<svg width="120" height="120" xmlns="http://www.w3.org/2000/svg">
 <g>
  <title>background</title>
  <rect x="-1" y="-1" width="122" height="122" id="canvas_background" fill="none"/>
 </g>

 <g>
  <title>Layer 1</title>
  <g stroke="null" id="svgg">
   <path stroke="null" id="path0" d="m74.609551,8.817126c-0.325174,0.082231 -1.5034,0.202712 -2.618284,0.267792c-1.114879,0.06508 -3.205284,0.274386 -4.645341,0.464788c-4.43335,0.585707 -5.106921,0.654744 -6.503482,0.665296c-2.10096,0.01583 -4.441371,0.464784 -7.145804,1.37061c-0.781263,0.262076 -0.91513,0.26735 -1.04858,0.042213c-0.122047,-0.205349 -0.195949,-0.213264 -0.362758,-0.039571c-0.115712,0.120481 -0.436243,0.218538 -0.713273,0.218538c-0.504233,0 -1.453569,0.260318 -2.002986,0.549214c-0.161322,0.084868 -0.446377,0.154342 -0.633457,0.154342c-0.187081,0 -0.339955,0.079147 -0.339955,0.175888c0,0.09674 -0.228042,0.175888 -0.506763,0.175888c-0.278721,0 -0.506768,0.079152 -0.506768,0.175888c0,0.09674 -0.228042,0.175888 -0.506763,0.175888c-0.278721,0 -0.506763,0.064642 -0.506763,0.144232c0,0.079147 -0.380074,0.251519 -0.84461,0.383437c-0.464532,0.131917 -0.844606,0.304284 -0.844606,0.383437c0,0.079589 -0.152031,0.144227 -0.337842,0.144227c-0.185815,0 -0.337846,0.079152 -0.337846,0.175888c0,0.09674 -0.152027,0.175888 -0.337842,0.175888c-0.185811,0 -0.337842,0.079152 -0.337842,0.175888c0,0.09674 -0.152031,0.175888 -0.337842,0.175888c-0.185815,0 -0.337842,0.079152 -0.337842,0.175893c0,0.096736 -0.152031,0.175888 -0.337846,0.175888c-0.185811,0 -0.337842,0.079147 -0.337842,0.175888c0,0.096736 -0.152027,0.175888 -0.337842,0.175888c-0.185815,0 -0.337842,0.079147 -0.337842,0.175888c0,0.09674 -0.152031,0.175888 -0.337842,0.175888c-0.185815,0 -0.337846,0.079152 -0.337846,0.175888c0,0.09674 -0.135137,0.175888 -0.30068,0.175888c-0.165121,0 -0.410054,0.1583 -0.543926,0.35178c-0.133872,0.193476 -0.378808,0.351776 -0.543926,0.351776c-0.165543,0 -0.300684,0.079147 -0.300684,0.175888c0,0.09674 -0.121621,0.175888 -0.270274,0.175888c-0.148227,0 -0.482691,0.237452 -0.743253,0.527664c-0.260562,0.290217 -0.564619,0.527668 -0.675689,0.527668c-0.111065,0 -0.415123,0.237447 -0.675684,0.527664c-0.260562,0.290217 -0.578136,0.527668 -0.706091,0.527668c-0.127959,0 -0.34249,0.1583 -0.476361,0.351776c-0.133867,0.193476 -0.340798,0.351776 -0.459467,0.351776c-0.119086,0 -0.216217,0.079152 -0.216217,0.175888c0,0.09674 -0.115291,0.175888 -0.25634,0.175888c-0.236068,0 -2.446406,2.151119 -2.446406,2.381092c0,0.055406 -0.456089,0.566802 -1.013527,1.136679c-0.557442,0.569881 -1.013531,1.12569 -1.013531,1.235177c0,0.109929 -0.304058,0.503481 -0.675684,0.875486c-0.371631,0.372006 -0.675689,0.767752 -0.675689,0.879444c0,0.111687 -0.304058,0.507438 -0.675684,0.879439c-0.371626,0.372006 -0.675689,0.783582 -0.675689,0.914621c0,0.131475 -0.152027,0.353096 -0.337842,0.492487c-0.185811,0.139395 -0.337842,0.357933 -0.337842,0.485892c0,0.127959 -0.152031,0.402346 -0.337842,0.609894c-0.185815,0.207549 -0.337842,0.481493 -0.337842,0.608136c0,0.127076 -0.059547,0.230853 -0.132607,0.230853c-0.072633,0 -0.270274,0.242725 -0.438351,0.539536c-0.168499,0.296811 -1.032108,1.533309 -1.919371,2.747819c-4.371268,5.983726 -5.772472,8.868299 -6.205332,12.770823c-0.13725,1.238256 -0.310392,2.364383 -0.384721,2.502894c-0.231842,0.431365 -0.040962,1.626966 0.2707,1.695566c0.153296,0.033856 2.445558,0.003079 5.093405,-0.0686c21.85676,-0.589223 67.027653,-0.264708 79.477597,0.571202c1.3936,0.093657 2.828588,0.118723 3.189237,0.056281l0.654995,-0.113887l-0.100509,-2.128252c-0.499586,-10.570897 -3.355206,-18.456417 -9.719747,-26.840145c-6.047814,-7.965989 -17.049254,-15.322525 -21.304809,-14.246526m8.783923,0.319236c0,0.08311 0.190037,0.241846 0.422301,0.351776c0.232268,0.110371 0.422305,0.171493 0.422305,0.136316c0,-0.035177 -0.190037,-0.193481 -0.422305,-0.35178c-0.232264,-0.158737 -0.422301,-0.219859 -0.422301,-0.136312m6.87806,5.136822c0.298993,0.326277 0.572223,0.558008 0.607273,0.514475c0.035054,-0.043092 -0.209461,-0.310442 -0.543504,-0.593622l-0.607273,-0.514916l0.543504,0.594064m2.912208,2.678345c0.414279,0.459505 0.77535,0.835468 0.802378,0.835468c0.127116,0 -0.007178,-0.157858 -0.752965,-0.886917l-0.802378,-0.784024l0.752965,0.835473m1.204411,1.319161c0.102622,0.169293 0.388099,0.458631 0.634723,0.643313c0.35558,0.266034 0.327708,0.20227 -0.133446,-0.307805c-0.640635,-0.707509 -0.785484,-0.804691 -0.501277,-0.335508m2.362369,2.770244c-0.002113,0.219422 0.823072,1.211432 0.921891,1.108539c0.039697,-0.041334 -0.151188,-0.347381 -0.423996,-0.67981c-0.27323,-0.332429 -0.497051,-0.525464 -0.497894,-0.428728m4.717557,6.917698c0,0.257235 0.663864,1.027187 0.670198,0.777425c0.002956,-0.120923 -0.070525,-0.219859 -0.163435,-0.219859c-0.092906,0 -0.168921,-0.113892 -0.168921,-0.253282c0,-0.13939 -0.076016,-0.302527 -0.168921,-0.362328c-0.092906,-0.059806 -0.168921,-0.033861 -0.168921,0.058043m1.620382,3.107947c0.152027,0.241846 0.304058,0.439722 0.337842,0.439722c0.033784,0 -0.024915,-0.197876 -0.130915,-0.439722c-0.105574,-0.241846 -0.258027,-0.439722 -0.337842,-0.439722c-0.080237,0 -0.021537,0.197876 0.130915,0.439722" fill="#eea929" fill-rule="evenodd"/>
   <path stroke="null" id="path1" d="m26.973671,76.024564c-5.786831,3.612307 -2.504262,16.194932 3.486122,13.362687c4.016953,-1.899157 5.028793,-8.429893 1.851802,-11.950306c-1.530007,-1.695124 -3.886042,-2.318649 -5.337924,-1.412381m35.895831,0.052323c-4.908437,1.882011 -6.631015,7.214067 -3.614077,11.188269c3.622102,4.771416 11.063943,3.069255 12.584659,-2.877974c1.369954,-5.358006 -3.910535,-10.249903 -8.970582,-8.310291m-23.33271,6.376394c-0.290124,1.203958 -0.04181,1.253207 6.386078,1.274311c5.787253,0.018909 5.882271,0.003958 5.882271,-0.927368c0,-0.804254 -0.075594,-0.813927 -6.280504,-0.813927l-5.875515,0l-0.11233,0.466983m59.481925,26.628201c-0.836163,0.072116 -2.394463,0.218101 -3.462893,0.323635c-1.068427,0.105972 -2.379681,0.193476 -2.913894,0.194355c-1.195542,0.001758 -1.267336,0.268229 -0.266052,0.988936c1.544366,1.111613 6.387769,0.685963 7.5736,-0.665738c0.35811,-0.408503 0.663016,-0.550535 1.410073,-0.656065c2.339141,-0.330672 0.775772,-0.454232 -2.340832,-0.185124m-77.197151,0.519753l-0.337846,0.137633l0.337846,0.138949c0.185811,0.076511 0.537591,0.290658 0.782106,0.475778c1.020709,0.774793 6.984904,0.784466 7.600202,0.012315c0.306593,-0.384316 0.255492,-0.392673 -3.577336,-0.587028c-1.99243,-0.100698 -3.812561,-0.212827 -4.044825,-0.249324c-0.232268,-0.036056 -0.574336,-0.003958 -0.760147,0.071679m87.086663,2.447046c-0.130489,0.254161 -0.133024,0.366727 -0.008443,0.366727c0.204814,0 0.428213,-0.493366 0.288855,-0.638472c-0.050678,-0.052328 -0.176525,0.069911 -0.280412,0.271745m-60.439287,0.146427c-2.280441,0.055848 -2.474282,0.119165 -1.928665,0.63364c0.960744,0.905385 2.484416,0.981016 4.017801,0.200071c0.860235,-0.438401 1.130087,-1.024108 0.426526,-0.926931c-0.152453,0.021109 -1.284648,0.063322 -2.515666,0.09322m39.569877,3.210408c-0.057434,0.096736 0.056591,0.175888 0.253384,0.175888c0.196793,0 0.310814,-0.079152 0.25338,-0.175888c-0.05743,-0.09674 -0.171451,-0.175893 -0.25338,-0.175893c-0.081928,0 -0.195949,0.079152 -0.253384,0.175893m-45.017597,0.351776c-0.191724,0.128838 -0.117399,0.171051 0.305749,0.173251c0.329821,0.001316 0.516054,-0.069479 0.454398,-0.173251c-0.131337,-0.221179 -0.431595,-0.221179 -0.760147,0m6.714634,0.12708c0.301945,0.039134 0.79604,0.039134 1.097989,0c0.301945,-0.038697 0.0549,-0.070795 -0.548995,-0.070795c-0.603895,0 -0.850944,0.032098 -0.548995,0.070795m21.621957,0c0.301949,0.039134 0.796044,0.039134 1.097989,0c0.301949,-0.038697 0.0549,-0.070795 -0.548995,-0.070795c-0.603895,0 -0.85094,0.032098 -0.548995,0.070795" fill="#393938" fill-rule="evenodd"/>
   <path stroke="null" id="path2" d="m49.096062,4.339447c-0.11909,0.149505 -0.318418,0.231294 -0.442995,0.181603c-0.416814,-0.166652 -0.229312,0.15962 0.214952,0.374205c0.402876,0.194792 0.431169,0.182482 0.348824,-0.145548c-0.060391,-0.241409 -0.020694,-0.330234 0.123312,-0.27307c0.116977,0.047054 0.212839,-0.025941 0.212839,-0.161815c0,-0.324072 -0.187081,-0.31352 -0.456933,0.024625m-3.642792,0.988931c-0.048144,0.080468 -0.045188,0.217222 0.006334,0.303847c0.051522,0.086626 -0.016047,0.201391 -0.15034,0.25504c-0.162587,0.064638 -0.212422,0.01231 -0.149918,-0.157421c0.051944,-0.140274 0.016468,-0.25504 -0.078128,-0.25504c-0.245358,0 -0.131759,0.581312 0.131759,0.672774c0.120781,0.041776 0.290968,-0.056285 0.377965,-0.218101c0.103887,-0.193476 0.272808,-0.256356 0.494095,-0.183366c0.296033,0.098061 0.311662,0.070795 0.133446,-0.226453c-0.20904,-0.348702 -0.612337,-0.449395 -0.765212,-0.191281m-1.581107,0.930014c-0.112334,0.141148 -0.149075,0.349139 -0.081928,0.462584c0.086997,0.146427 0.167234,0.122244 0.278299,-0.083984c0.086993,-0.16182 0.244937,-0.234815 0.356845,-0.164899c0.116556,0.072995 0.103887,0.001321 -0.03125,-0.17193c-0.280408,-0.360133 -0.269009,-0.359254 -0.521966,-0.041771m-0.579823,0.139828c0.070103,0.209748 0.016468,0.307805 -0.168499,0.307805c-0.149497,0 -0.271543,-0.088821 -0.271543,-0.197434c0,-0.128397 -0.097975,-0.113008 -0.279143,0.043971c-0.153718,0.132796 -0.305749,0.221621 -0.337842,0.197438c-0.179055,-0.134117 -0.38683,-0.001321 -0.481005,0.307805c-0.059121,0.193476 -0.220443,0.351776 -0.35938,0.351776c-0.138515,0 -0.20524,-0.078268 -0.148653,-0.173688c0.059547,-0.100698 -0.009291,-0.128838 -0.163009,-0.067721c-0.188767,0.075636 -0.216643,0.169735 -0.095018,0.322319c0.094597,0.118282 0.115712,0.277902 0.046874,0.353975c-0.069255,0.076511 0.026607,0.055402 0.212422,-0.047049c0.185811,-0.102456 0.478892,-0.232173 0.651191,-0.288459c0.20904,-0.068595 0.279143,-0.204033 0.210731,-0.408503c-0.09671,-0.288459 -0.089106,-0.288459 0.12289,-0.005274c0.20524,0.274386 0.258449,0.276581 0.599247,0.02814c0.206088,-0.149947 0.484808,-0.228657 0.619945,-0.174572c0.316305,0.126202 0.312927,-0.084863 -0.008447,-0.517112c-0.211574,-0.284496 -0.23649,-0.290212 -0.150762,-0.033419m-3.58114,1.438768c-0.176942,0.128838 -0.397807,0.263834 -0.490717,0.299453c-0.092906,0.035618 -0.162587,0.205349 -0.154983,0.377279c0.007599,0.17193 -0.068416,0.280981 -0.168921,0.241846c-0.100509,-0.039134 -0.158365,-0.179404 -0.128381,-0.312641c0.043075,-0.192155 0.010556,-0.197434 -0.157944,-0.024625c-0.220021,0.225137 -0.340377,0.926052 -0.159209,0.926052c0.286746,0 0.864878,-0.59538 0.78591,-0.809965c-0.100931,-0.274823 0.32813,-0.342982 0.485648,-0.076952c0.0549,0.092346 0.213265,0.122686 0.352202,0.067279c0.206505,-0.082668 0.213265,-0.149943 0.038006,-0.369364c-0.184124,-0.231294 -0.160896,-0.251524 0.1647,-0.14379c0.457776,0.151263 0.499164,0.005274 0.067147,-0.235689c-0.2196,-0.122244 -0.40668,-0.104214 -0.633457,0.061117m-1.757627,1.343349c0,0.11125 -0.146119,0.139395 -0.358958,0.069037c-0.264361,-0.087504 -0.32433,-0.059801 -0.227199,0.103777c0.095862,0.160936 0.035049,0.196113 -0.2196,0.126639c-0.267317,-0.072558 -0.327287,-0.03034 -0.250849,0.177209c0.065882,0.179404 0.032941,0.22909 -0.097127,0.145548c-0.112334,-0.072116 -0.198906,-0.027703 -0.200175,0.102893c-0.002109,0.167531 -0.047296,0.1583 -0.166387,-0.033419c-0.089949,-0.145111 -0.163852,-0.184682 -0.163852,-0.087946c0,0.333308 0.32813,0.710151 0.459467,0.527668c0.069677,-0.09674 0.240711,-0.175888 0.380074,-0.175888c0.139358,0 0.23522,-0.096303 0.213261,-0.213706c-0.023224,-0.123123 0.065882,-0.171051 0.211152,-0.113008c0.138093,0.055402 0.251271,0.008352 0.251271,-0.104656c0,-0.112566 0.060391,-0.166215 0.133872,-0.118723c0.073481,0.047049 0.144849,-0.066837 0.158361,-0.253719c0.013516,-0.186445 -0.008865,-0.339466 -0.049409,-0.339466c-0.04054,0 -0.073903,0.084426 -0.073903,0.187761m-2.710346,1.586074c-0.103887,0.201833 -0.144427,0.412898 -0.090371,0.469183c0.05363,0.056285 0.097975,0.009673 0.097975,-0.102893c0,-0.113008 0.114021,-0.205349 0.25338,-0.205349c0.139363,0 0.253384,-0.118728 0.253384,-0.263834c0,-0.382558 -0.295189,-0.323635 -0.514367,0.102893m-1.005927,0.74489c0,0.086626 -0.130915,0.105093 -0.290546,0.041334c-0.159631,-0.064201 -0.23649,-0.059801 -0.170186,0.008794c0.171877,0.178967 -0.218334,0.61561 -0.429061,0.480177c-0.108535,-0.069916 -0.124581,-0.026824 -0.04181,0.112566c0.088262,0.148626 0.056591,0.199192 -0.092484,0.147306c-0.362336,-0.12576 -0.858965,0.405424 -0.638522,0.68201c0.100927,0.126639 0.259714,0.230411 0.352624,0.230411c0.092906,0 0.064612,-0.134112 -0.062925,-0.29769c-0.197214,-0.253277 -0.196793,-0.275265 0.005069,-0.149064c0.157518,0.098935 0.315461,0.036497 0.471714,-0.186003c0.129224,-0.184245 0.273652,-0.310005 0.320948,-0.280543c0.0473,0.029903 0.345024,-0.182482 0.661751,-0.472262c0.460311,-0.420813 0.509298,-0.521069 0.244515,-0.500402c-0.182011,0.01451 -0.331086,0.09674 -0.331086,0.183366m-2.465409,1.72107c-0.176947,0.203591 -0.302793,0.401462 -0.279564,0.439717c0.13598,0.223821 0.005908,0.28758 -0.142319,0.069479c-0.159209,-0.234373 -0.170612,-0.234373 -0.103887,0c0.041388,0.145106 -0.032093,0.392668 -0.163009,0.550088c-0.206505,0.247567 -0.203549,0.29989 0.021959,0.390036c0.156253,0.062438 0.260562,0.008352 0.260562,-0.135438c0,-0.131475 0.114021,-0.284938 0.253384,-0.340782c0.139358,-0.055406 0.253384,-0.226895 0.253384,-0.3808c0,-0.1539 0.060808,-0.240526 0.134715,-0.193039c0.074324,0.047491 0.245358,0.014073 0.380074,-0.074753c0.189611,-0.124881 0.15414,-0.162257 -0.155409,-0.164452c-0.336999,-0.0022 -0.367405,-0.044413 -0.190458,-0.266471c0.321374,-0.402787 0.095862,-0.313962 -0.26943,0.106409m-1.70611,1.294978c-0.260562,0.238772 -0.37627,0.436643 -0.256762,0.439722c0.151609,0.003958 0.171456,0.098498 0.065038,0.31352c-0.083619,0.169293 -0.117825,0.406745 -0.076437,0.527668c0.090793,0.262513 -0.224669,0.296811 -0.376274,0.040892c-0.065456,-0.109929 -0.301102,-0.034735 -0.611072,0.194797c-0.277456,0.205791 -0.464115,0.416418 -0.414705,0.468304c0.049835,0.051449 0.203975,-0.004837 0.343333,-0.124881c0.220021,-0.190398 0.219178,-0.148626 -0.006756,0.323194c-0.142736,0.298132 -0.349667,0.598022 -0.459889,0.667059c-0.137671,0.085747 -0.133867,0.039134 0.012669,-0.149064c0.17399,-0.223821 0.165965,-0.315283 -0.042227,-0.495128c-0.210731,-0.182045 -0.255497,-0.168852 -0.255497,0.075194c0,0.162694 -0.076016,0.246683 -0.168921,0.186882c-0.092906,-0.059806 -0.168921,0.019346 -0.168921,0.175888c0,0.156542 -0.076016,0.235689 -0.168921,0.175888c-0.092906,-0.059801 -0.168921,-0.025066 -0.168921,0.07739c0,0.102456 0.076016,0.18644 0.168921,0.18644c0.092906,0 0.168921,0.081789 0.168921,0.182045c0,0.119165 -0.131337,0.111692 -0.380074,-0.021546c-0.309127,-0.165336 -0.341642,-0.160936 -0.174412,0.023308c0.162587,0.179404 0.127116,0.302527 -0.172299,0.59318c-0.207774,0.201396 -0.350089,0.514038 -0.315883,0.694762c0.040118,0.213706 -0.006756,0.284938 -0.133024,0.203591c-0.371631,-0.23921 -0.996215,0.053207 -0.903309,0.422571c0.070946,0.282743 0.017738,0.324077 -0.31124,0.242725c-0.378804,-0.093657 -0.382604,-0.086184 -0.07559,0.160941c0.225508,0.181603 0.262248,0.296811 0.123733,0.386073c-0.10853,0.069474 -0.160474,0.189081 -0.115291,0.265155c0.045188,0.076069 -0.124577,0.129717 -0.377117,0.119602c-0.351354,-0.014073 -0.447642,0.054965 -0.408789,0.293295c0.063769,0.395309 -0.306593,0.78974 -0.68751,0.731255c-0.184546,-0.02814 -0.292237,0.072116 -0.292237,0.271308c0,0.175451 -0.162161,0.359691 -0.365714,0.415097c-0.308705,0.083989 -0.33193,0.142032 -0.148227,0.372443c0.276186,0.346502 -0.073903,0.867134 -0.484383,0.719824c-0.208196,-0.074753 -0.201018,-0.041771 0.032093,0.14731c0.255497,0.207107 0.262674,0.258556 0.047722,0.344298c-0.139363,0.055848 -0.298993,0.024187 -0.354736,-0.069911c-0.180746,-0.304731 -0.372892,-0.010115 -0.289698,0.444117c0.045609,0.247125 0.158783,0.392231 0.257184,0.328909c0.101774,-0.065954 0.124999,-0.02814 0.054896,0.089704c-0.066299,0.111692 -0.301523,0.203154 -0.52281,0.203154c-0.221286,0 -0.448911,0.078268 -0.505498,0.173688c-0.059121,0.099819 0.008447,0.12928 0.158787,0.069474c0.172299,-0.069033 0.262248,-0.004395 0.262248,0.188202c0,0.160936 -0.076011,0.244046 -0.168921,0.184245c-0.092906,-0.059806 -0.168921,0.011868 -0.168921,0.159178c0,0.147743 -0.15414,0.353975 -0.34249,0.459068c-0.188346,0.105093 -0.302367,0.258556 -0.25338,0.341661c0.049409,0.082668 -0.051944,0.112129 -0.22509,0.064642c-0.224243,-0.060685 -0.345442,0.03254 -0.420192,0.324514c-0.158787,0.616926 -0.134293,0.72114 0.143162,0.609894c0.139358,-0.055406 0.253384,-0.018909 0.253384,0.081784c0,0.100698 -0.209044,0.157421 -0.464536,0.126643c-0.32433,-0.039576 -0.464532,0.022862 -0.464532,0.207107c0,0.145106 -0.095018,0.327151 -0.211152,0.404545c-0.116134,0.07739 -0.211152,0.255477 -0.211152,0.395747c0,0.140274 -0.085306,0.25504 -0.189615,0.25504c-0.130915,0 -0.124581,0.081347 0.020694,0.263829c0.115708,0.145111 0.153718,0.263834 0.084458,0.263834c-0.069255,0 -0.040118,0.107292 0.064612,0.238768c0.146962,0.184245 0.103466,0.304289 -0.190458,0.528105c-0.880503,0.669258 -1.063783,0.847346 -0.777459,0.754563c0.347133,-0.112129 0.312083,0.17193 -0.100509,0.819643c-0.235646,0.369364 -0.350511,0.436202 -0.455667,0.263829c-0.076859,-0.126639 -0.141471,-0.147306 -0.142736,-0.045729c-0.001269,0.101572 0.092484,0.288454 0.208618,0.415535c0.171877,0.187761 0.146962,0.210627 -0.133028,0.123123c-0.384717,-0.120486 -0.604316,0.893512 -0.244089,1.125685c0.118669,0.076073 0.079394,0.203591 -0.111913,0.364969c-0.230155,0.194797 -0.263939,0.197434 -0.156674,0.010994c0.111491,-0.19216 0.06926,-0.199633 -0.220865,-0.037818c-0.401189,0.223821 -0.486495,0.403225 -0.121625,0.257677c0.322222,-0.128838 0.428639,0.113892 0.256762,0.586149c-0.092484,0.25504 -0.233112,0.356617 -0.401189,0.289338c-0.142736,-0.056723 -0.209883,-0.18644 -0.149492,-0.288017c0.066299,-0.11125 0.027872,-0.131917 -0.09671,-0.051886c-0.113178,0.072995 -0.165965,0.175009 -0.116556,0.226458c0.049409,0.051444 0.002956,0.261193 -0.103044,0.466104c-0.259292,0.500839 -0.288855,1.195159 -0.063764,1.505601c0.137245,0.188644 0.132602,0.221621 -0.016473,0.127959c-0.364027,-0.226895 -0.57011,0.456431 -0.252114,0.83591c0.213265,0.253719 0.220865,0.298574 0.030406,0.180729c-0.38683,-0.240088 -0.703134,-0.250645 -0.622054,-0.021109c0.040118,0.113008 0.158365,0.186003 0.263096,0.161815c0.236911,-0.054965 0.252114,0.423013 0.018159,0.573397c-0.094175,0.060685 -0.130915,0.178529 -0.081506,0.262076c0.049409,0.083547 0.012669,0.201391 -0.081502,0.262072c-0.09671,0.062001 -0.171882,-0.06068 -0.171882,-0.280981c0,-0.215464 -0.052365,-0.337266 -0.11613,-0.27087c-0.181594,0.189081 -0.195949,0.883402 -0.02365,1.109418c0.09924,0.129717 0.081928,0.251961 -0.046874,0.335071c-0.128803,0.083105 -0.159209,0.056723 -0.082772,-0.072116c0.066299,-0.111692 0.04434,-0.203154 -0.048566,-0.203154c-0.09291,0 -0.2158,0.079152 -0.27323,0.175893c-0.057434,0.096736 -0.018581,0.175888 0.085728,0.175888c0.119934,0 0.146536,0.146427 0.072212,0.395747l-0.118664,0.395751l0.318413,-0.360133c0.174834,-0.197876 0.251697,-0.257235 0.170612,-0.131917c-0.084037,0.129717 -0.084037,0.229536 0,0.230853c0.081085,0.001321 0.033363,0.077831 -0.105996,0.169735c-0.139363,0.091462 -0.255497,0.228653 -0.257605,0.304726c-0.007182,0.223379 -0.407102,0.860093 -0.413014,0.657381c-0.002956,-0.101572 0.089949,-0.289775 0.206083,-0.417734c0.170612,-0.188198 0.162165,-0.217222 -0.042231,-0.150384c-0.239024,0.078268 -0.309971,0.724223 -0.149071,1.3605c0.035471,0.140707 -0.024072,0.259435 -0.132607,0.263829c-0.427791,0.017151 -0.452707,0.312641 -0.05363,0.638035c0.230999,0.187765 0.294346,0.295937 0.141049,0.239651c-0.152875,-0.056285 -0.335734,-0.005278 -0.405837,0.113008c-0.088258,0.148626 -0.05743,0.169731 0.100509,0.068158c0.125425,-0.08091 0.051944,0.110808 -0.163852,0.426087c-0.313349,0.458631 -0.348824,0.613852 -0.177368,0.779188c0.167656,0.160936 0.184546,0.151705 0.077702,-0.043534c-0.101774,-0.185561 -0.064612,-0.220738 0.144006,-0.137633c0.167234,0.066837 0.282099,0.025504 0.28379,-0.102014c0.001687,-0.137633 0.0587,-0.121802 0.159631,0.044413c0.086571,0.142469 0.213261,0.200512 0.282099,0.129276c0.068412,-0.071674 0.034628,-0.223379 -0.075594,-0.338145c-0.1098,-0.114329 -0.193836,-0.330672 -0.186237,-0.480614c0.008025,-0.165778 0.045188,-0.190402 0.095018,-0.062443c0.109378,0.278786 0.567154,0.085747 0.567154,-0.239205c0,-0.140711 0.067568,-0.211948 0.149918,-0.159183c0.176103,0.11345 0.694692,-1.437448 0.694692,-2.07724c0,-0.241846 0.076016,-0.488971 0.168921,-0.548772c0.092906,-0.059801 0.168921,-0.341665 0.168921,-0.626162c0,-0.284501 0.076016,-0.517116 0.168921,-0.517116c0.092906,0 0.168921,-0.272186 0.168921,-0.605053c0,-0.332871 0.076016,-0.654307 0.168921,-0.714108c0.09291,-0.059801 0.168921,-0.341665 0.168921,-0.626162c0,-0.284501 0.088684,-0.517112 0.197219,-0.517112c0.108109,0 0.154983,-0.043534 0.103887,-0.09674c-0.0511,-0.053644 0.049831,-0.488971 0.224664,-0.967386c0.174412,-0.478856 0.281255,-0.87065 0.23649,-0.87065c-0.04434,0 0.070946,-0.281422 0.256762,-0.625725c0.185389,-0.343861 0.35938,-0.759395 0.386408,-0.923415c0.027028,-0.163573 0.179903,-0.554925 0.339533,-0.869329c0.160052,-0.314399 0.248315,-0.571634 0.196371,-0.571634c-0.099666,0 0.678219,-1.519237 0.967074,-1.888605c0.093332,-0.119602 0.124159,-0.341224 0.068416,-0.492929c-0.058278,-0.1583 -0.030406,-0.229532 0.065877,-0.167531c0.152031,0.098057 0.227199,-0.121802 0.124581,-0.365411c-0.023229,-0.055402 0.090793,-0.178083 0.25338,-0.272624c0.162587,-0.094541 0.295615,-0.287138 0.295615,-0.427412c0,-0.140269 0.080659,-0.255035 0.179055,-0.255035c0.098396,0 0.135137,-0.073874 0.081506,-0.163578c-0.053213,-0.090141 -0.018581,-0.214143 0.077281,-0.276144c0.245358,-0.157862 0.692579,-1.32444 0.580244,-1.513521c-0.051518,-0.086626 0.01436,-0.157421 0.146119,-0.157421c0.131759,0 0.516902,-0.435323 0.856009,-0.967386c0.339533,-0.532063 0.584048,-0.96739 0.54393,-0.96739c-0.040118,0 0.130068,-0.229974 0.378382,-0.510954c0.84714,-0.959033 1.235239,-1.593552 1.111084,-1.817368c-0.067147,-0.122244 -0.067147,-0.17061 0.000843,-0.107292c0.136402,0.127518 1.451035,-1.283985 1.451035,-1.558371c0,-0.094983 0.152031,-0.316162 0.337842,-0.491171c0.185815,-0.175009 0.337846,-0.42477 0.337846,-0.554925c0,-0.130159 0.114021,-0.236573 0.25338,-0.236573c0.139363,0 0.253384,-0.118723 0.253384,-0.263829c0,-0.145111 0.069681,-0.263834 0.154561,-0.263834c0.084884,0 0.424418,-0.382999 0.754661,-0.851299c0.329817,-0.467867 1.077717,-1.384245 1.661344,-2.035474c1.280001,-1.429091 1.711174,-3.045509 0.521545,-1.95588m-12.454587,17.272252c-0.047722,0.128838 -0.022385,0.234373 0.056587,0.234373c0.07855,0 0.226777,-0.105535 0.329821,-0.234373c0.141049,-0.177209 0.127111,-0.23481 -0.056591,-0.23481c-0.133867,0 -0.282521,0.105535 -0.329817,0.23481m-1.182874,4.279808c0,0.193476 -0.059969,0.351776 -0.133028,0.351776c-0.073055,0 -0.132602,-0.1583 -0.132602,-0.351776c0,-0.193476 0.059547,-0.351776 0.132602,-0.351776c0.073059,0 0.133028,0.1583 0.133028,0.351776m-2.841683,9.79523c-0.174412,0.047491 -0.295615,0.247562 -0.295615,0.488529c0,0.225579 0.131759,0.461268 0.295615,0.527226c0.267317,0.107734 0.269852,0.138953 0.02745,0.326714c-0.147384,0.113887 -0.267739,0.357933 -0.267317,0.541736c0.000422,0.306484 0.027024,0.300769 0.310392,-0.063322c0.350511,-0.451153 0.384295,-0.641992 0.140628,-0.798971c-0.092906,-0.059801 -0.168921,-0.187761 -0.168921,-0.284501c0,-0.096736 0.076016,-0.12708 0.168921,-0.067275c0.092906,0.059801 0.168921,-0.019351 0.168921,-0.175888c0,-0.180729 0.076859,-0.236573 0.211152,-0.152584c0.143584,0.089704 0.136824,0.036935 -0.020694,-0.165336c-0.127537,-0.163578 -0.241559,-0.288459 -0.253384,-0.277465c-0.011825,0.011431 -0.154561,0.056723 -0.317148,0.101135m-0.047722,2.174422c-0.062078,0.104656 -0.206927,0.153021 -0.321374,0.107292c-0.114443,-0.045733 -0.208192,0.024625 -0.208192,0.156542c0,0.131475 0.063343,0.198313 0.141049,0.148626c0.077281,-0.050128 0.140623,-0.013631 0.140623,0.080905c0,0.094541 -0.095018,0.20799 -0.211148,0.252403c-0.163435,0.062438 -0.157944,0.134991 0.024915,0.322315c0.200171,0.205349 0.215374,0.20447 0.100505,-0.005278c-0.090793,-0.165336 -0.070946,-0.205349 0.059126,-0.121802c0.141471,0.091025 0.118243,0.277907 -0.084463,0.686847c-0.259718,0.522385 -0.259292,0.544815 0.000422,0.320115c0.239446,-0.20667 0.279564,-0.202712 0.279564,0.029461c0,0.148626 -0.070099,0.296811 -0.155827,0.329351c-0.085728,0.032103 -0.199753,0.574718 -0.254227,1.205716c-0.054056,0.630561 -0.162165,1.382483 -0.240294,1.670942c-0.078546,0.288017 -0.081502,1.110734 -0.006756,1.82792c0.07475,0.717624 0.081928,1.390398 0.016473,1.495054c-0.122894,0.196113 -0.31124,9.402557 -0.455667,22.264847c-0.044766,4.014653 -0.154987,7.615971 -0.244093,8.002923c-0.089528,0.386957 -0.167652,3.236349 -0.174412,6.331986c-0.006334,3.095637 -0.08488,6.142909 -0.173986,6.771708c-0.244515,1.720628 -0.214952,7.216704 0.041805,7.783069c0.274499,0.605932 0.930759,0.824037 3.378431,1.123048c0.441308,0.054086 0.8028,0.189519 0.803222,0.301206c0.000848,0.144669 0.784219,0.202275 2.744978,0.200512c3.274965,-0.002195 7.099773,0.154342 12.372659,0.506559c10.478625,0.700036 39.621395,0.666617 55.744115,-0.063759c3.508924,-0.159178 4.798637,-0.255477 9.881913,-0.740491c2.408822,-0.229536 5.469257,-0.28186 6.58794,-0.112566c0.442995,0.066837 0.84841,0.039571 0.9713,-0.065521c0.116134,-0.099377 0.211152,-0.121802 0.211152,-0.049686c0,0.072111 0.10304,0.042213 0.228464,-0.0664c0.134293,-0.116087 0.954405,-0.203591 1.981874,-0.212385l1.752984,-0.014951l0.543504,-0.582628l0.543504,-0.582633l-0.0038,-3.132135c-0.002113,-1.722386 -0.072216,-3.264926 -0.155831,-3.427183c-0.083193,-0.162257 -0.191724,-3.767533 -0.241137,-8.010843c-0.048987,-4.243752 -0.165543,-11.079656 -0.259292,-15.191049c-0.093332,-4.111393 -0.20904,-10.398088 -0.257184,-13.970386c-0.053209,-3.954852 -0.153718,-6.578227 -0.257184,-6.707945c-0.114865,-0.144232 -0.104731,-0.361891 0.031671,-0.672774c0.155831,-0.356617 0.153718,-0.788419 -0.009712,-1.932134l-0.210305,-1.472629l-2.730618,-0.201833c-1.501713,-0.110808 -3.224713,-0.244041 -3.828607,-0.295932c-11.528897,-0.99201 -61.570221,-1.232099 -80.406665,-0.386073c-7.65468,0.343861 -7.915663,0.322315 -7.931288,-0.655623c-0.001691,-0.09674 0.053209,-0.083989 0.122047,0.02814c0.068412,0.112566 0.124155,-0.461268 0.123733,-1.274753c0,-0.813485 0.048566,-1.479223 0.108109,-1.479223c0.059969,-0.000437 0.151609,-0.116524 0.203975,-0.258556c0.114021,-0.31 -0.156674,-0.532063 -0.317996,-0.260314m59.803721,7.037737c21.751608,0.245367 33.066395,0.677611 33.650444,1.285305c0.07179,0.075194 -0.780841,0.091025 -1.894877,0.035181c-5.756003,-0.288459 -10.945274,-0.467867 -18.664145,-0.645955c-10.273385,-0.236568 -54.059543,-0.303847 -62.585439,-0.096299c-3.344646,0.081789 -6.021208,0.084868 -5.948149,0.007478c0.517745,-0.549214 30.546508,-0.86625 55.442165,-0.585712m-43.84697,20.240371c2.321829,0.772151 3.601408,2.06713 4.580733,4.63642c0.967922,2.540271 0.110643,6.510511 -1.839555,8.520039c-3.725568,3.838328 -8.81053,0.430049 -8.81053,-5.905016c0,-4.501429 3.121673,-8.231143 6.069352,-7.251443m37.765797,0.353534c5.825259,2.125173 7.019531,9.386731 2.16895,13.189441c-6.106936,4.788562 -14.607491,-2.03899 -11.30085,-9.076727c1.567169,-3.334847 5.907187,-5.289406 9.131899,-4.112714m-15.629047,6.18468c0.61192,0.303847 0.703556,1.543419 0.144006,1.951043c-0.431595,0.314841 -10.13487,0.412461 -11.605334,0.116524c-1.577729,-0.317036 -1.46286,-2.139683 0.147384,-2.334917c1.263532,-0.153463 10.926271,0.074753 11.313944,0.26735m53.720857,27.383639c0.327708,0.2203 0.506763,0.2203 0.506763,0c0,-0.096736 -0.17103,-0.174567 -0.380074,-0.173246c-0.307436,0.002195 -0.331508,0.035177 -0.12669,0.173246m2.858577,3.247343c-0.00676,0.00352 -0.038432,0.145111 -0.06926,0.314399c-0.074324,0.404545 0.127111,0.390473 0.496208,-0.034298c0.257605,-0.296369 -0.026185,-0.482814 -0.426948,-0.280102m-94.682648,0.244925c0.089949,0.151263 1.054915,0.72906 1.218345,0.72906c0.029141,0 0.008025,-0.122244 -0.046874,-0.271308c-0.0549,-0.149505 -0.138093,-0.231736 -0.184968,-0.182924c-0.046874,0.048807 -0.311662,-0.033861 -0.589113,-0.182924c-0.277034,-0.149068 -0.456089,-0.190839 -0.39739,-0.091904m93.954172,0.302527c-0.061234,0.165778 -0.070103,0.343865 -0.019846,0.396193c0.050252,0.051886 0.181168,0.001316 0.291389,-0.11345c0.141471,-0.147306 0.147384,-0.262513 0.019425,-0.395751c-0.127537,-0.132796 -0.212418,-0.099814 -0.290968,0.113008m-91.236222,0.250645c-0.057434,0.096736 -0.25634,0.175888 -0.442151,0.175888c-0.185815,0 -0.290968,0.079147 -0.233538,0.175888c0.168078,0.282739 0.493251,0.203591 0.720876,-0.175888c0.11613,-0.193481 0.176942,-0.35178 0.135137,-0.35178c-0.04181,0 -0.12289,0.079152 -0.180325,0.175888m89.659341,0.175893c0.023646,0.329351 0.445951,0.483693 0.673998,0.246683c0.186233,-0.193918 -0.077707,-0.598463 -0.390212,-0.598463c-0.20524,0 -0.30068,0.118286 -0.283786,0.35178m-88.78053,0.117403c0.0473,0.128838 -0.01689,0.240088 -0.142736,0.246683c-0.301949,0.016272 0.361914,0.311325 0.736497,0.327156c0.19088,0.007915 0.257184,-0.078273 0.193415,-0.251524c-0.05363,-0.145106 -0.207774,-0.263829 -0.342485,-0.263829c-0.135141,0 -0.206509,-0.065959 -0.158365,-0.146427c0.047718,-0.08091 -0.016473,-0.146869 -0.142741,-0.146869c-0.12669,0 -0.191302,0.10553 -0.143584,0.23481m1.393183,0.180724c0.236068,0.50788 0.297302,0.539099 1.343769,0.683768c0.875859,0.120923 0.88895,0.116087 0.672732,-0.244488c-0.152031,-0.253719 -0.282099,-0.314837 -0.418927,-0.196113c-0.135559,0.116966 -0.230999,0.082668 -0.301102,-0.108171c-0.057013,-0.153905 -0.181168,-0.229536 -0.276186,-0.168414c-0.095018,0.061122 -0.128803,0.185124 -0.075594,0.275265c0.203975,0.343865 -0.475935,0.144669 -0.791818,-0.232173l-0.332356,-0.395747l0.179481,0.386073m86.584125,-0.127959c-0.054056,0.091462 -0.198062,0.126643 -0.319687,0.077831c-0.121199,-0.04837 -0.318413,0.034298 -0.437504,0.183803c-0.241137,0.302531 -0.005913,0.335071 0.863187,0.119165c0.367827,-0.091462 0.407102,-0.150384 0.220443,-0.329351c-0.134715,-0.128838 -0.267739,-0.149943 -0.326439,-0.051449m-2.81888,0.2225c0.165543,0.172372 0.093753,0.260314 -0.346289,0.426528l-0.554486,0.209311l0.506768,-0.007478c0.581931,-0.008352 1.659653,-0.26515 1.245373,-0.296811c-0.151183,-0.011431 -0.369518,-0.13939 -0.485226,-0.284501c-0.115712,-0.145106 -0.292237,-0.263829 -0.39232,-0.263829c-0.115712,0 -0.106422,0.07871 0.026181,0.21678m-77.91718,0.154784c0.063769,0.107292 0.010977,0.270866 -0.116977,0.363207c-0.165121,0.119165 -0.122894,0.135438 0.145693,0.057164c0.361914,-0.105972 1.153733,0.280102 0.969187,0.472704c-0.095018,0.098494 2.353922,0.324072 3.297772,0.303406c0.325174,-0.007036 0.495786,-0.052765 0.37923,-0.102014c-0.116982,-0.048812 -0.161322,-0.175009 -0.099244,-0.279665c0.074324,-0.125318 0.005491,-0.147747 -0.200592,-0.065517c-0.293924,0.117403 -0.296037,0.105093 -0.034206,-0.196118c0.263092,-0.302527 0.255492,-0.323635 -0.126272,-0.356612c-0.305745,-0.026382 -0.391051,0.041771 -0.347554,0.276581c0.038853,0.209311 -0.047296,0.311325 -0.263518,0.311325c-0.176947,0 -0.321374,-0.106414 -0.321374,-0.236573c0,-0.130155 0.076016,-0.187761 0.168921,-0.127955c0.09291,0.059801 0.168921,0.029461 0.168921,-0.067279c0,-0.288896 -0.365714,-0.434444 -0.50465,-0.200512c-0.090797,0.1539 -0.162587,0.160499 -0.243672,0.023746c-0.086571,-0.14599 -1.532115,-0.160499 -1.532115,-0.015393c0,0.164457 -0.814625,0.052328 -0.878394,-0.120481c-0.047722,-0.129717 -0.197214,-0.235689 -0.33193,-0.235689c-0.13725,0 -0.194262,0.086184 -0.129229,0.195676m72.371068,-0.009236c0,0.102456 -0.076016,0.137195 -0.168925,0.07739c-0.092906,-0.059801 -0.168921,0.014514 -0.168921,0.165336c0,0.150826 -0.118664,0.274386 -0.263518,0.274386c-0.144849,0 -0.216217,0.079152 -0.158783,0.175888c0.061234,0.103335 -0.117403,0.175888 -0.432017,0.175888c-0.46158,0 -0.523658,-0.051444 -0.443842,-0.369364c0.075168,-0.298132 0.029985,-0.351776 -0.233955,-0.280102c-0.194684,0.053207 -0.28379,0.017147 -0.220869,-0.089262c0.06926,-0.116528 -0.092062,-0.132796 -0.46411,-0.047054c-0.313349,0.072116 -0.796044,0.125323 -1.071809,0.117407c-0.276186,-0.007473 -0.590378,0.062443 -0.698487,0.155663c-0.130915,0.113445 -0.22509,0.091462 -0.282947,-0.06508c-0.095018,-0.258119 -1.237774,-0.204033 -1.397826,0.065959c-0.049831,0.083984 -0.241559,0.055406 -0.426105,-0.063322c-0.269852,-0.17413 -0.362758,-0.169731 -0.477627,0.022425c-0.078546,0.131038 -0.185811,0.165778 -0.238598,0.076952c-0.057013,-0.095857 -3.046501,-0.13807 -7.326976,-0.103335c-3.977256,0.032103 -13.540329,0.054086 -21.251596,0.048812c-7.711271,-0.005278 -15.084695,-0.0022 -16.385394,0.007032c-1.300695,0.009236 -2.478921,0.014073 -2.618284,0.010115c-0.6419,-0.017147 -1.666835,-0.001758 -2.306622,0.033861c-0.385986,0.021983 -0.67611,-0.003958 -0.644435,-0.057164c0.092484,-0.155221 -5.895788,-0.093662 -6.128477,0.063317c-0.122042,0.082231 -0.211152,0.063322 -0.211152,-0.043971c0,-0.102456 -0.19468,-0.18644 -0.432439,-0.18644c-0.296454,0 -0.394851,0.069037 -0.312927,0.219859c0.09544,0.175888 0.073903,0.175888 -0.108109,0c-0.377539,-0.364969 -0.889793,-0.278781 -0.786754,0.132359c0.048566,0.193476 0.019429,0.307363 -0.064612,0.253277c-0.084458,-0.054086 -0.153296,-0.203591 -0.153296,-0.331551c0,-0.127959 -0.165121,-0.277902 -0.366983,-0.332867c-0.404989,-0.110371 -0.646543,-0.014514 -0.646543,0.255477c0,0.096736 0.089106,0.118723 0.197636,0.048807c0.133024,-0.085305 0.162165,-0.031219 0.089949,0.165336c-0.072633,0.196997 -0.02069,0.292853 0.157944,0.292853c0.16723,0 0.230155,0.098061 0.168921,0.263834c-0.081928,0.2225 0.140628,0.263834 1.418098,0.263834c0.833202,0 1.514803,-0.065959 1.514803,-0.146427c0,-0.08091 0.114021,-0.146869 0.25338,-0.146869c0.139363,0 0.253384,0.105535 0.253384,0.23481c0,0.367169 2.509331,0.329793 2.645312,-0.039576c0.057434,-0.155221 0.210731,-0.229974 0.353893,-0.172809c0.139358,0.055406 0.35431,0.013631 0.47847,-0.093662c0.176942,-0.153021 0.210726,-0.118282 0.158783,0.162699c-0.049409,0.268229 0.001269,0.330672 0.203553,0.249762c0.179055,-0.071674 0.228464,-0.038697 0.147384,0.098057c-0.091219,0.153905 0.54266,0.205791 2.505949,0.205791c1.639806,0 2.628422,-0.065959 2.628422,-0.175888c0,-0.09674 0.118669,-0.175888 0.263518,-0.175888c0.144849,0 0.216222,-0.079152 0.158787,-0.175888c-0.057434,-0.09674 -0.025341,-0.175893 0.071368,-0.175893c0.09671,0 0.223399,0.197876 0.281677,0.439722l0.106,0.439722l2.503415,0c1.771143,0 2.568453,-0.064201 2.726396,-0.219859c0.12289,-0.120923 0.527457,-0.215906 0.899084,-0.211069c3.253428,0.041334 4.307499,0.102019 4.307499,0.247567c0,0.092778 -0.589113,0.195676 -1.309142,0.228653c-0.720029,0.032982 2.909673,0.059364 8.066003,0.058922c5.156334,-0.000437 8.71002,-0.027261 7.897086,-0.059359c-2.095474,-0.08311 -1.86194,-0.39663 0.295611,-0.39663c0.981012,0 1.773678,-0.072995 1.773678,-0.163578c0,-0.100693 0.209461,-0.101135 0.545191,-0.000879c0.299837,0.089704 0.67991,0.118286 0.845032,0.063759c0.165121,-0.054523 0.419349,0.025066 0.565041,0.176767c0.44722,0.465667 5.477282,0.405424 5.477282,-0.065517c0,-0.187761 0.076016,-0.390473 0.168921,-0.450274c0.09291,-0.059801 0.168921,0.054086 0.168921,0.253277c0,0.35178 0.084463,0.362332 2.95613,0.362332c1.794368,0 2.956126,-0.066837 2.956126,-0.170172c0,-0.094104 -0.114021,-0.124881 -0.25338,-0.069474c-0.139363,0.055844 -0.253384,0.013631 -0.253384,-0.093225c0,-0.107292 0.095018,-0.196113 0.211152,-0.197434c0.143584,-0.001758 0.130068,-0.063322 -0.042231,-0.192597c-0.202284,-0.151263 -0.184968,-0.162699 0.084463,-0.056723c0.185811,0.07299 0.541391,0.136312 0.790549,0.141148c0.249162,0.004399 0.439199,0.090583 0.422305,0.191718c-0.017738,0.107734 0.438351,0.20447 1.109814,0.23481c0.967922,0.044413 1.140221,0.008357 1.140221,-0.238768c0,-0.169731 -0.093327,-0.253277 -0.225086,-0.200512c-0.124159,0.049691 -0.225512,-0.021104 -0.225512,-0.156979c0,-0.32012 0.193415,-0.313962 0.510989,0.016709c0.139358,0.145106 0.328552,0.263829 0.420192,0.263829c0.09164,0 0.19215,0.059364 0.223399,0.131917c0.030828,0.072553 0.702291,0.085747 1.492001,0.029903c0.789706,-0.056285 1.169779,-0.120923 0.844606,-0.143348c-0.53337,-0.036939 -0.554064,-0.056285 -0.211152,-0.199633c0.20904,-0.087504 0.380074,-0.206233 0.380074,-0.263397c0,-0.05716 -0.087836,-0.047487 -0.195102,0.021551c-0.120781,0.077831 -0.149075,0.048366 -0.074329,-0.077831c0.088262,-0.148626 0.212844,-0.152584 0.462002,-0.013631c0.187081,0.104214 0.453555,0.144664 0.591648,0.0897c0.137671,-0.055402 0.470023,0.017593 0.738188,0.162257c0.618676,0.332871 1.687102,0.350901 1.687102,0.028145c0,-0.12928 0.114025,-0.23481 0.253384,-0.23481c0.139363,0 0.253384,0.065959 0.253384,0.146864c0,0.080473 0.437082,0.146427 0.9713,0.14599l0.9713,-0.000442l0.042227,-0.615168c0.023229,-0.338145 0.004226,-0.615173 -0.042227,-0.615173c-0.046457,0 -0.084463,0.083989 -0.084463,0.186445m1.753828,-0.044854c-0.626275,0.428291 -0.38176,0.958596 0.391477,0.848225c0.425257,-0.06068 1.086164,-0.119607 1.467929,-0.130596c0.38176,-0.011436 0.561242,-0.056727 0.398655,-0.10114c-0.312927,-0.084863 -0.413014,-0.406299 -0.126694,-0.406299c0.09291,0 0.168925,-0.079152 0.168925,-0.175888c0,-0.315283 -0.312083,-0.185124 -0.422305,0.175888c-0.12965,0.425649 -0.462423,0.447633 -1.019443,0.067716c-0.350511,-0.23921 -0.416392,-0.243609 -0.416392,-0.029461c0,0.140269 -0.112752,0.255035 -0.250845,0.255035c-0.191728,0 -0.206088,-0.055844 -0.060391,-0.238768c0.218752,-0.274823 0.134293,-0.445875 -0.130915,-0.264713m-76.96953,0.399267c0.057856,0.230415 0.233112,0.338587 0.548573,0.338587c0.254649,0 0.796888,0.047491 1.204833,0.105972c0.709047,0.101135 0.741566,0.086188 0.741566,-0.343423c0,-0.425208 -0.020272,-0.435323 -0.380074,-0.189519c-0.209461,0.142911 -0.380074,0.178529 -0.380074,0.079152c0,-0.231736 -0.622897,-0.234815 -0.760147,-0.003958c-0.057434,0.096736 -0.25634,0.175888 -0.442151,0.175888c-0.185815,0 -0.296037,-0.070795 -0.244515,-0.157421c0.051522,-0.086626 -0.011403,-0.199633 -0.139784,-0.250641c-0.16343,-0.065521 -0.207774,0.008352 -0.148227,0.245362m74.075482,-0.236568c-0.116134,0.042213 -0.209887,0.208865 -0.208618,0.369806c0.001687,0.189077 0.046874,0.222496 0.12669,0.093662c0.068412,-0.109492 0.276186,-0.230857 0.462002,-0.269112c0.26014,-0.053207 0.279564,-0.092341 0.084458,-0.170172c-0.139358,-0.055402 -0.348398,-0.066396 -0.464532,-0.024183m1.478063,0.022425c0,0.180724 0.511832,0.430486 0.630079,0.307363c0.040962,-0.043092 -0.084041,-0.166215 -0.277877,-0.274386c-0.193836,-0.10773 -0.352202,-0.122681 -0.352202,-0.032977m-70.177615,0.537341c-0.062504,0.105093 -0.356428,0.185119 -0.652882,0.177204c-0.296459,-0.007473 -0.443421,-0.053644 -0.326865,-0.102893c0.116977,-0.048807 0.170191,-0.160499 0.118247,-0.248004c-0.051944,-0.087063 0.016047,-0.114766 0.150762,-0.06068c0.134715,0.053644 0.299415,0.006594 0.365714,-0.105535c0.080237,-0.135433 0.176947,-0.144227 0.289281,-0.027261c0.092906,0.096736 0.117821,0.262072 0.055743,0.367164m2.440072,-0.336382c0.168921,0.113445 0.182855,0.171488 0.042231,0.173246c-0.358114,0.004399 -0.23269,0.277907 0.141049,0.307368c0.251693,0.019346 0.324326,-0.049249 0.25338,-0.240967c-0.054478,-0.147747 -0.098818,-0.301652 -0.098818,-0.342103c0,-0.040455 -0.133024,-0.072116 -0.295611,-0.070795c-0.25254,0.002195 -0.258875,0.027699 -0.042231,0.173246m3.274543,0.604621c-0.059969,0.163136 -0.371626,0.238326 -0.963696,0.232173l-0.875016,-0.008799l0.802378,-0.169289c0.441308,-0.092783 0.802378,-0.244488 0.802378,-0.336387c0,-0.091904 0.072638,-0.120486 0.161743,-0.063322c0.088684,0.057164 0.121199,0.212827 0.072212,0.345623m57.368296,0.054965c0,0.300327 -0.617407,0.27966 -0.729741,-0.024625c-0.062925,-0.170614 0.033784,-0.23701 0.319683,-0.219863c0.225512,0.013631 0.410058,0.123565 0.410058,0.244488m-50.913802,0.071232c0.081928,0.137633 0.04434,0.155221 -0.116556,0.054086c-0.202284,-0.126639 -0.203127,-0.104651 -0.005491,0.148626c0.198484,0.254598 0.195106,0.29769 -0.022381,0.29769c-0.140206,0 -0.294346,-0.1583 -0.342911,-0.351776c-0.09671,-0.384757 0.279143,-0.499523 0.487339,-0.148626m44.250268,-0.042213c-0.052365,0.088383 0,0.196118 0.116977,0.239647c0.335734,0.124881 0.027876,0.337266 -0.39612,0.27307c-0.366557,-0.055406 -0.370361,-0.072116 -0.086993,-0.365848c0.31757,-0.329351 0.523236,-0.411582 0.366136,-0.146869m-1.529163,0.366727c0.062925,0.106414 -0.16723,0.175888 -0.581088,0.175888c-0.377117,0 -0.685823,-0.079147 -0.685823,-0.175888c0,-0.096736 0.261405,-0.175888 0.581092,-0.175888c0.319683,0 0.628388,0.079152 0.685818,0.175888m-34.8823,0.284501c0,0.036935 -0.190037,0.067275 -0.422305,0.067275c-0.232268,0 -0.422305,-0.068154 -0.422305,-0.1517c0,-0.08311 0.190037,-0.11345 0.422305,-0.067279c0.232268,0.046171 0.422305,0.114329 0.422305,0.151705m14.316101,0.017588c2.206539,-0.033861 4.140269,-0.096299 4.297787,-0.138074c0.157096,-0.041771 0.290124,0.003079 0.295615,0.099819c0.016468,0.29549 -9.149637,0.23481 -9.244234,-0.061122c-0.060391,-0.189081 -0.003378,-0.196555 0.281255,-0.037813c0.246624,0.137191 1.60011,0.179845 4.369577,0.137191m0.84461,-0.180724c-0.162587,0.043971 -0.428639,0.043971 -0.591226,0c-0.162587,-0.044413 -0.029563,-0.080468 0.295611,-0.080468c0.325174,0 0.458202,0.036056 0.295615,0.080468m1.860249,-0.000442c-0.161743,0.043975 -0.465801,0.045733 -0.675689,0.00352c-0.210305,-0.042213 -0.078124,-0.078273 0.293502,-0.080031c0.371626,-0.0022 0.543504,0.03254 0.382186,0.076511m12.202468,0.054965c0,0.09674 -0.285055,0.165336 -0.633453,0.152584l-0.633457,-0.022867l0.591226,-0.129717c0.325174,-0.071232 0.610229,-0.139828 0.633457,-0.152579c0.023224,-0.012752 0.042227,0.055844 0.042227,0.152579" fill="#f3f3f2" fill-rule="evenodd"/>
   <path stroke="null" id="path3" d="m40.114502,55.082399c-8.33459,0.052328 -15.207585,0.151263 -15.273463,0.219859c-0.065882,0.068595 9.261967,0.12576 20.727943,0.126639c19.149366,0.001763 45.004081,0.236573 47.030716,0.427412c1.710753,0.160936 12.327049,0.313962 12.201203,0.175888c-0.311657,-0.342544 -15.150994,-0.766436 -30.529192,-0.872408c-6.921561,-0.047928 -14.028937,-0.105972 -15.794164,-0.129717c-1.765231,-0.023304 -10.028453,0 -18.363043,0.052328m-20.693737,0.650786c0.537596,0.035177 1.373758,0.034739 1.858141,-0.000879c0.484383,-0.035177 0.04434,-0.063759 -0.977634,-0.063322c-1.021978,0.000442 -1.418098,0.029024 -0.880503,0.064201m86.568075,0.697836c0.209887,0.042218 0.513945,0.040455 0.675684,-0.003516c0.161322,-0.043971 -0.010556,-0.07871 -0.382182,-0.076511c-0.371626,0.001758 -0.503811,0.037813 -0.293502,0.080026m-78.437037,18.936599c-6.145789,2.350747 -5.075671,14.62161 1.275358,14.62161c2.532556,0 4.908015,-2.402638 5.438429,-5.500912c0.387677,-2.266763 0.390634,-2.21312 -0.242402,-4.524733c-0.848831,-3.100037 -4.1863,-5.47013 -6.471384,-4.595965m36.500148,0.054965c-5.448141,0.821838 -8.362883,7.004318 -5.435473,11.530809c4.252177,6.574711 14.22573,3.153239 13.754016,-4.718651c-0.253384,-4.234511 -4.166028,-7.43832 -8.318544,-6.812158m-33.493343,0.64595c0.99368,0.461268 2.458653,1.957201 2.873354,2.932938c0.641057,1.510442 0.716651,1.894321 0.709051,3.600439c-0.030828,6.731253 -6.442248,9.704647 -9.268306,4.298275c-2.969216,-5.680316 0.900775,-13.053566 5.6859,-10.831652m36.474389,-0.162257c5.236567,1.654669 6.724768,8.14276 2.762711,12.044405c-5.625931,5.540047 -14.517963,-0.758521 -11.324922,-8.021395c1.343348,-3.054745 5.478126,-4.997873 8.562211,-4.02301m-27.617406,6.049685c-0.386834,0.445437 -0.354736,1.31213 0.063343,1.706118c0.445107,0.419055 11.082524,0.649908 11.986677,0.259877c0.828981,-0.357933 0.936668,-1.65819 0.170608,-2.060535c-0.765638,-0.401904 -11.863782,-0.31572 -12.220628,0.094541m12.186843,0.241405c0.284212,0.295937 0.252114,0.943203 -0.062921,1.271237c-0.230577,0.240526 -0.962009,0.274386 -5.616645,0.258993c-6.427884,-0.021104 -6.676198,-0.070353 -6.386078,-1.274311l0.112334,-0.466983l5.875511,0c4.344244,0 5.927881,0.054965 6.077799,0.211069m46.99398,26.70075c-0.277034,0.107734 0.332351,0.129717 1.773674,0.063322c2.220898,-0.102014 2.739487,0.058043 0.989459,0.305168c-0.747057,0.10553 -1.051958,0.247562 -1.410073,0.65606c-1.18583,1.351706 -6.029233,1.777355 -7.5736,0.665738c-1.136843,-0.818317 -0.979742,-0.922531 1.617425,-1.071599c1.27747,-0.072995 2.702746,-0.198755 3.167278,-0.279223c1.040133,-0.180287 -1.812105,-0.063759 -4.47642,0.182924c-11.041979,1.022792 -43.474922,1.264638 -62.416518,0.465225c-0.836163,-0.035177 -1.159224,-0.03034 -0.717916,0.010552c1.156267,0.107734 1.022395,0.525027 -0.299415,0.93353c-1.073496,0.331551 -6.052458,-0.025066 -6.64664,-0.476219c-0.244515,-0.185119 -0.596295,-0.398825 -0.782106,-0.474457l-0.337842,-0.137633l0.337842,-0.124881c0.185811,-0.068595 1.097989,-0.068595 2.027058,0c0.929068,0.068595 2.259326,0.122681 2.956126,0.120481l1.266915,-0.004395l-0.929068,-0.14159c-1.580685,-0.24053 -10.646707,-0.357054 -11.402207,-0.14599c-0.371626,0.103335 -0.922734,0.229095 -1.224683,0.279223c-0.301945,0.050128 -0.548995,0.165778 -0.548995,0.257677c0,0.091904 -0.070103,0.122244 -0.155405,0.067279c-0.265631,-0.171051 -0.858122,0.800292 -0.858122,1.406229c0,0.551851 0.7517,1.487139 1.195542,1.487139c0.345442,0 0.414701,0.035177 0.544347,0.276144c0.155831,0.290217 1.29563,0.343861 1.604757,0.075632c0.147384,-0.127959 0.156674,-0.118286 0.033784,0.035177c-0.286746,0.358375 -0.190037,0.492487 0.356002,0.492487c0.367827,0 0.498742,-0.069916 0.438351,-0.234368c-0.047722,-0.12928 0.01689,-0.234815 0.143584,-0.234815c0.126268,0 0.190458,0.065959 0.142736,0.146869c-0.04814,0.080468 0.023229,0.146427 0.158365,0.146427c0.134715,0 0.288855,0.118728 0.34249,0.263834c0.053209,0.145106 0.254227,0.263834 0.446373,0.263834c0.303636,0 0.325174,-0.051007 0.164278,-0.395751l-0.184124,-0.395751l0.332351,0.395751c0.303215,0.361449 0.999593,0.582191 0.805756,0.255477c-0.045609,-0.07739 -0.012247,-0.255477 0.074324,-0.395747c0.127959,-0.20667 0.178212,-0.178529 0.263939,0.147306c0.098822,0.376842 0.125851,0.383874 0.411749,0.114766c0.186659,-0.17633 0.391899,-0.232173 0.527457,-0.14379c0.122047,0.079589 0.297724,0.151268 0.390629,0.159178c0.356002,0.031224 0.754235,0.302531 0.664707,0.452916c-0.051522,0.086626 0.060391,0.157421 0.248315,0.157421c0.188346,0 0.431174,-0.173251 0.540126,-0.385199c0.195106,-0.379479 0.201862,-0.380358 0.476361,-0.043971c0.36487,0.447195 0.709047,0.518874 0.571375,0.119165c-0.057856,-0.167973 -0.045188,-0.248883 0.028293,-0.179845c0.073481,0.069037 0.278299,0.04485 0.455667,-0.053649c0.353045,-0.196992 1.106436,-0.033856 0.875012,0.189523c-0.078972,0.076069 -0.333621,0.192155 -0.565885,0.257677c-0.312505,0.088383 -0.357693,0.072995 -0.17399,-0.058485c0.307858,-0.2203 0.167656,-0.410261 -0.151183,-0.205349c-0.451868,0.291096 -0.065038,0.690804 0.65879,0.680248c0.58827,-0.008352 0.647817,-0.041771 0.405837,-0.226016c-0.30448,-0.232173 -0.048987,-0.565919 0.274073,-0.357933c0.09291,0.059801 0.168921,0.031661 0.168921,-0.06288c0,-0.094541 -0.095018,-0.212827 -0.211152,-0.262955c-0.11613,-0.050565 -0.021111,-0.06288 0.211152,-0.027699c0.232268,0.034735 0.422305,0.073874 0.422305,0.086184c0,0.012315 0.323065,0.043534 0.717916,0.068595c0.394855,0.025066 0.71792,-0.001316 0.71792,-0.059359c0,-0.058043 0.20904,-0.089267 0.464532,-0.069916c0.255492,0.019788 0.464536,0.051886 0.464536,0.072111c0,0.02023 0.950184,0.063763 2.111516,0.097182c2.527069,0.072553 2.390241,0.069474 3.537218,0.081784c0.50592,0.005278 0.992415,0.056727 1.081943,0.114329c0.096288,0.062001 0.106844,0.010552 0.026185,-0.125318c-0.095018,-0.160499 -0.070946,-0.188202 0.079394,-0.091025c0.119086,0.076511 0.758034,0.130596 1.419785,0.120486c0.662172,-0.010115 2.343784,-0.011873 3.737389,-0.00352c1.393604,0.007915 9.484523,0.010557 17.979587,0.005716c10.337158,-0.005716 15.553453,0.051449 15.772209,0.173251c0.182433,0.101577 0.282942,0.108171 0.227621,0.014951c-0.062078,-0.104656 2.638134,-0.179408 7.200704,-0.199192c4.015266,-0.01803 8.040666,-0.05277 8.945241,-0.077394c0.904575,-0.025062 1.664722,0.013631 1.689215,0.085747c0.024494,0.072116 0.348402,0.050128 0.720029,-0.048807c0.887685,-0.23701 2.114055,-0.302531 1.997921,-0.106855c-0.050678,0.084868 0.178633,0.109492 0.509298,0.054969c0.330243,-0.054528 0.646969,-0.021551 0.70356,0.073869c0.056587,0.09542 -0.046879,0.173693 -0.230581,0.173693c-0.183703,0 -0.372048,0.098935 -0.418923,0.219859c-0.06546,0.169293 -0.088262,0.166657 -0.098396,-0.010552c-0.007604,-0.126639 -0.089532,-0.181166 -0.182437,-0.121365c-0.335308,0.215906 -0.158365,0.439722 0.34798,0.439722c0.301102,0 0.472979,-0.073432 0.412167,-0.175888c-0.057434,-0.09674 0.019425,-0.175888 0.170191,-0.175888c0.198058,0 0.244932,-0.098498 0.167652,-0.351776c-0.061656,-0.201833 -0.030406,-0.35178 0.073059,-0.35178c0.09924,0 0.18159,0.09894 0.182859,0.219863c0.001687,0.152584 0.049409,0.142469 0.156253,-0.03254c0.133024,-0.219422 0.192571,-0.219422 0.451863,0c0.164278,0.138953 0.244515,0.157858 0.17779,0.04265c-0.213261,-0.370243 1.506782,-0.249762 1.981027,0.138516c0.421883,0.345618 0.946806,0.448511 0.946806,0.185998c0,-0.162694 0.582357,-0.906264 0.709473,-0.906264c0.043496,0 0.078972,0.118723 0.078972,0.263834c0,0.145106 -0.034632,0.228216 -0.076437,0.18424c-0.083193,-0.086626 -0.543086,0.342986 -0.543086,0.506559c0,0.171493 0.89951,0.084868 1.511004,-0.145106c0.360649,-0.135433 0.506346,-0.26735 0.383452,-0.346502c-0.108952,-0.069916 -0.339107,-0.048807 -0.511406,0.047049c-0.235646,0.13148 -0.313353,0.11345 -0.313353,-0.072111c0,-0.135438 0.058278,-0.209307 0.129229,-0.163578c0.070946,0.045733 0.176942,0.002637 0.235646,-0.096299c0.070946,-0.119602 0.210305,-0.120923 0.420192,-0.003958c0.223821,0.124881 0.340798,0.112129 0.407098,-0.043534c0.0511,-0.120044 0.076437,-0.060238 0.055748,0.133238c-0.050678,0.478856 1.112349,0.605053 1.573503,0.170172c0.171034,-0.160941 0.385986,-0.244046 0.47847,-0.184682c0.092484,0.059359 0.220865,0.019346 0.285055,-0.089267c0.084463,-0.142469 0.153718,-0.136312 0.248315,0.022867c0.182859,0.308247 0.690044,0.071674 0.565889,-0.264271c-0.070103,-0.190402 0.005491,-0.270429 0.256336,-0.270429c0.195949,0 0.356002,0.079147 0.356002,0.175888c0,0.34826 0.818851,0.185561 0.932025,-0.185124c0.087841,-0.288459 0.157944,-0.319236 0.349246,-0.154342c0.131337,0.11345 0.248736,0.157421 0.26014,0.097178c0.011825,-0.060238 0.034206,-0.208428 0.049835,-0.329351c0.016047,-0.120923 0.11613,-0.201391 0.222973,-0.178967c0.230155,0.047933 0.836163,-0.824037 0.792244,-1.140195c-0.016473,-0.120923 -0.039697,-0.286701 -0.051522,-0.368927c-0.032097,-0.227337 -0.57138,-0.792377 -0.989037,-1.035986c-1.312941,-0.76731 -8.285603,-1.574638 -9.505217,-1.100619m-47.240178,3.420152c0.111487,0.302085 -1.347995,1.106776 -2.297757,1.267275c-0.944693,0.15962 -2.827745,-0.634519 -2.827745,-1.192523c0,-0.079152 1.007192,-0.168414 2.23821,-0.198317c1.231013,-0.029898 2.363213,-0.072111 2.515661,-0.09322c0.152875,-0.021104 0.320109,0.076511 0.371631,0.216785m-30.970504,1.644554c0,0.276149 0.411749,0.562845 0.807869,0.562845c0.249158,0 0.374583,-0.083989 0.328552,-0.219859c-0.041384,-0.123123 -0.277451,-0.196559 -0.535904,-0.166657c-0.290546,0.033419 -0.421457,-0.01583 -0.352624,-0.131917c0.060391,-0.102014 0.029563,-0.185124 -0.068834,-0.185124c-0.098396,0 -0.179059,0.063322 -0.179059,0.140711m77.263033,0.312641c0.106,0.287138 -0.04054,0.317041 -0.399076,0.08091c-0.164274,-0.108171 -0.293076,-0.092341 -0.377539,0.046612c-0.240289,0.393551 -0.134715,0.468741 0.584044,0.418613c0.756347,-0.052765 1.081099,-0.646829 0.409215,-0.749285c-0.207353,-0.031661 -0.278299,0.035177 -0.216643,0.203149m-71.095284,0.070795c-0.066299,0.112129 -0.230999,0.159183 -0.365714,0.105535c-0.134715,-0.054086 -0.202705,-0.026382 -0.150762,0.06068c0.051944,0.087504 -0.001269,0.192602 -0.118247,0.233494c-0.116556,0.040892 0.033784,0.081789 0.334043,0.09102c0.584048,0.01803 0.866569,-0.229974 0.589961,-0.51799c-0.112334,-0.116966 -0.20904,-0.108171 -0.289281,0.027261m1.433723,0.014073c0,0.102456 -0.076016,0.137195 -0.168921,0.07739c-0.092906,-0.059801 -0.168921,-0.002195 -0.168921,0.127959c0,0.130159 0.140628,0.236573 0.312505,0.236573c0.217065,0 0.288433,-0.096299 0.233533,-0.314404c-0.086571,-0.345618 -0.208196,-0.420371 -0.208196,-0.127518m64.891217,0.209307c-0.251693,0.262076 -1.188786,0.329351 -1.577729,0.11345c-0.185811,-0.102893 -0.327282,-0.087504 -0.406254,0.045292c-0.07475,0.126202 -0.046453,0.155663 0.074324,0.077831c0.107265,-0.069037 0.195106,-0.07871 0.195106,-0.021546c0,0.057164 -0.171034,0.175009 -0.380074,0.261634c-0.266474,0.110808 0.005487,0.148622 0.912596,0.126639c0.71116,-0.017588 1.215393,-0.081789 1.119953,-0.142911c-0.101353,-0.065517 -0.042653,-0.187319 0.141893,-0.294611c0.172721,-0.100698 0.271965,-0.227337 0.220021,-0.281422c-0.051944,-0.054086 -0.186659,-0.0022 -0.299837,0.115645m-63.019565,0.095861c-0.007604,0.124881 -0.108535,0.214585 -0.224669,0.198755c-0.116134,-0.01583 -0.363179,-0.016709 -0.548995,-0.0022c-0.621211,0.047928 0.111065,0.336824 0.802378,0.316157c0.57771,-0.017147 0.94934,-0.300769 0.394007,-0.300769c-0.131333,0 -0.277451,-0.098935 -0.324326,-0.219859c-0.066303,-0.170614 -0.088262,-0.168852 -0.098396,0.007915m1.760162,0.299011l-0.84461,0.221179l0.886841,0.004837c0.651191,0.003516 0.886837,-0.06068 0.886837,-0.241846c0,-0.135875 -0.019003,-0.237889 -0.042231,-0.226016c-0.023229,0.011431 -0.422305,0.120044 -0.886837,0.241846m55.929083,0.021104c-0.059969,0.162257 -0.025759,0.216343 0.089106,0.142469c0.102196,-0.065959 0.25254,-0.010552 0.333621,0.122686c0.118669,0.195234 0.147805,0.185998 0.149918,-0.046612c0.003378,-0.381237 -0.449333,-0.553609 -0.572645,-0.218543m1.757627,0.017588c0,0.124444 0.152031,0.226016 0.337846,0.226016c0.185811,0 0.337842,-0.101572 0.337842,-0.226016c0,-0.124439 -0.152031,-0.226453 -0.337842,-0.226453c-0.185815,0 -0.337846,0.102014 -0.337846,0.226453m-6.353981,0.182045c-0.283368,0.293732 -0.279569,0.310442 0.086993,0.365848c0.423992,0.064201 0.731854,-0.148185 0.39612,-0.273065c-0.116977,-0.043534 -0.169343,-0.151263 -0.116977,-0.239647c0.157096,-0.264713 -0.048566,-0.182487 -0.366136,0.146864m-46.398954,0.101577c-0.050252,0.137633 0.168078,0.207549 0.658373,0.210627c0.559555,0.003516 0.664707,-0.035618 0.442573,-0.165336c-0.437082,-0.25504 -1.015218,-0.278786 -1.100946,-0.045292m6.890733,-0.057602c0.057434,0.096736 -0.013934,0.175888 -0.158787,0.175888c-0.144849,0 -0.263518,0.059359 -0.263518,0.131917c0,0.072553 0.190037,0.131912 0.422305,0.131912c0.232268,0 0.422305,-0.013189 0.422305,-0.029461c0,-0.198313 -0.24198,-0.586144 -0.365714,-0.586144c-0.088684,0 -0.114025,0.079147 -0.056591,0.175888m41.005287,-0.043975c-0.447642,0.155663 -0.178212,0.317041 0.520701,0.312641c0.824338,-0.005274 1.020287,-0.350897 0.211574,-0.372001c-0.286746,-0.007478 -0.616141,0.019346 -0.732275,0.059359m-3.927004,0.219863c0,0.096736 0.308705,0.175888 0.685823,0.175888c0.413858,0 0.644013,-0.069474 0.581088,-0.175888c-0.05743,-0.09674 -0.366136,-0.175888 -0.685818,-0.175888c-0.319687,0 -0.581092,0.079147 -0.581092,0.175888m-34.46,0.200071c0,0.083547 0.190037,0.151705 0.422305,0.151705c0.232268,0 0.422305,-0.03034 0.422305,-0.067279c0,-0.037376 -0.190037,-0.10553 -0.422305,-0.1517c-0.232268,-0.046171 -0.422305,-0.01583 -0.422305,0.067275m3.096758,0.063759c-0.103466,0.116528 0.744096,0.194797 2.512283,0.231736c1.812953,0.038255 2.668119,-0.003958 2.668119,-0.131917c0,-0.171493 -0.520701,-0.203154 -4.327771,-0.264713c-0.38303,-0.006157 -0.766481,0.068158 -0.852631,0.164894m12.317337,-0.142469c0.162587,0.043975 0.428639,0.043975 0.591226,0c0.162587,-0.044413 0.029559,-0.080468 -0.295615,-0.080468c-0.325174,0 -0.458198,0.036056 -0.295611,0.080468m3.855214,0.08091c-0.225512,0.088825 -2.258904,0.138953 -4.518651,0.11125c-2.259752,-0.027261 -4.108598,0.009673 -4.108598,0.082226c0,0.194797 9.083334,0.163136 9.199046,-0.031661c0.153718,-0.258993 -0.124155,-0.337266 -0.571797,-0.161815m4.168562,-0.064638c-1.24073,0.030777 -1.98483,0.118723 -1.98483,0.233931c0,0.123123 0.937094,0.164894 2.839996,0.126202c1.953998,-0.040018 2.783827,-0.114771 2.660511,-0.23921c-0.190037,-0.19216 -0.390208,-0.199196 -3.515676,-0.120923m5.954483,0.038255l-0.591226,0.129717l0.633457,0.022867c0.348398,0.012752 0.633453,-0.055844 0.633453,-0.152584c0,-0.09674 -0.019003,-0.165336 -0.042227,-0.152584c-0.023229,0.012752 -0.308284,0.081347 -0.633457,0.152584" fill="#a7a6a6" fill-rule="evenodd"/>
   <path stroke="null" id="path4" d="m55.480875,3.242781c-0.117399,0.115645 -0.578136,0.191718 -1.027465,0.170172c-0.448064,-0.021109 -1.278314,0.073874 -1.845046,0.211506c-0.567154,0.137633 -1.09419,0.209307 -1.171892,0.15962c-0.187081,-0.120486 -0.838697,0.099377 -0.7479,0.252398c0.039271,0.065517 -0.206509,0.119165 -0.546464,0.119165c-0.361492,0 -0.603047,0.081347 -0.582779,0.195676c0.021116,0.120923 -0.173143,0.172367 -0.506763,0.133675c-0.37923,-0.043534 -0.467914,-0.013194 -0.296037,0.100693c0.134715,0.089267 0.305749,0.123123 0.380074,0.075632c0.073903,-0.047487 0.134715,0.037376 0.134715,0.189081c0,0.291974 -0.606851,0.056285 -0.879659,-0.341661c-0.076437,-0.11125 -0.195528,-0.09542 -0.329395,0.043971c-0.115712,0.120481 -0.381343,0.218543 -0.590383,0.218543c-0.312927,0 -1.11784,0.272628 -1.391913,0.470941c-0.036319,0.026382 0.038853,0.180287 0.167656,0.341661c0.20904,0.262513 0.193836,0.280106 -0.145697,0.167977c-0.269009,-0.088825 -0.40921,-0.044854 -0.481426,0.150384c-0.11909,0.323194 -0.500007,0.364527 -0.672728,0.072995c-0.066303,-0.111692 -0.048144,-0.156542 0.040118,-0.099377c0.088684,0.056723 0.260562,0.039571 0.382182,-0.038697c0.154987,-0.100256 0.165543,-0.178088 0.03421,-0.262955c-0.103044,-0.065959 -0.187081,-0.043529 -0.187081,0.049691c0,0.09322 -0.163856,0.125318 -0.364449,0.070795c-0.247471,-0.067716 -0.325595,-0.034739 -0.244515,0.102014c0.07855,0.132796 0.026181,0.164457 -0.153718,0.092341c-0.458202,-0.182924 -1.111084,0.282301 -0.919356,0.655186c0.221708,0.431365 0.203549,0.519311 -0.083615,0.404541c-0.135137,-0.054086 -0.413858,0.024625 -0.619945,0.174572c-0.340798,0.248441 -0.394007,0.246246 -0.599247,-0.02814c-0.211996,-0.28318 -0.2196,-0.28318 -0.12289,0.005274c0.068412,0.20447 -0.001691,0.339903 -0.210731,0.408503c-0.172299,0.056285 -0.454398,0.181603 -0.626697,0.278344c-0.209466,0.117845 -0.278721,0.117403 -0.208196,-0.000879c0.151605,-0.255919 -0.184968,-0.418176 -0.589535,-0.284501c-0.334043,0.110371 -0.335734,0.125323 -0.040966,0.372006c0.285899,0.239205 0.277877,0.248883 -0.113599,0.134991c-0.364027,-0.105972 -0.391899,-0.086184 -0.206927,0.146427c0.175255,0.219422 0.168499,0.286701 -0.03801,0.369369c-0.138937,0.055406 -0.297302,0.025062 -0.352202,-0.067279c-0.157518,-0.266029 -0.586579,-0.197876 -0.485648,0.076952c0.050252,0.135875 -0.082772,0.372006 -0.296037,0.527664c-0.46538,0.339466 -0.619941,0.355738 -0.588691,0.062443c0.01309,-0.120923 -0.052365,-0.238768 -0.145271,-0.261634c-0.092906,-0.023304 -0.160478,0.153021 -0.149918,0.39091c0.010134,0.238331 -0.046874,0.390915 -0.12669,0.339466c-0.080241,-0.051444 -0.145697,-0.001316 -0.145697,0.11125c0,0.113008 -0.113178,0.160057 -0.251271,0.104656c-0.145271,-0.058043 -0.234377,-0.010115 -0.211152,0.113008c0.021959,0.117403 -0.092906,0.202712 -0.255492,0.189081c-0.162587,-0.013194 -0.295615,0.046171 -0.295615,0.131912c0,0.086188 -0.08108,0.156542 -0.18032,0.156542c-0.106,0 -0.136406,-0.163136 -0.073481,-0.395747c0.083615,-0.310005 0.068412,-0.338587 -0.070525,-0.131917c-0.097553,0.145106 -0.178638,0.194797 -0.179903,0.110371c-0.005491,-0.324956 -0.509298,0.303406 -0.509298,0.635393c0,0.270429 -0.081928,0.328472 -0.357271,0.253282c-0.350511,-0.09542 -0.994102,0.192597 -0.994102,0.444996c0,0.070358 0.133028,0.078273 0.295611,0.017588c0.162591,-0.06068 0.256762,-0.078268 0.209466,-0.038692c-0.047722,0.039576 -0.362336,0.336387 -0.698913,0.659139c-0.441729,0.423013 -0.649082,0.52591 -0.742409,0.36849c-0.084463,-0.142469 -0.059969,-0.173693 0.069677,-0.090146c0.119512,0.076952 0.180746,0.034739 0.152875,-0.104651c-0.025759,-0.128401 0.054056,-0.211506 0.177368,-0.184682c0.12289,0.026382 0.175255,-0.032982 0.116556,-0.131917c-0.0587,-0.099377 -0.013934,-0.180287 0.100088,-0.180287c0.114021,0 0.159631,-0.049249 0.101774,-0.109929c-0.058278,-0.060243 -0.335734,0.091899 -0.616985,0.338145c-0.285477,0.250203 -0.424418,0.477977 -0.31504,0.515791c0.111065,0.038697 0.139358,0.164457 0.064612,0.289779c-0.072216,0.121802 -0.248315,0.174567 -0.391477,0.117403c-0.215796,-0.086184 -0.223821,-0.058043 -0.046874,0.16402c0.252536,0.316157 -0.005913,0.363649 -0.301949,0.055402c-0.159205,-0.165773 -0.266896,-0.146427 -0.492404,0.087946c-0.271543,0.28318 -0.264361,0.300327 0.127959,0.302968c0.318839,0.0022 0.358958,0.040455 0.17103,0.164457c-0.134715,0.088821 -0.305745,0.122239 -0.380074,0.074753c-0.073903,-0.047491 -0.134715,0.039134 -0.134715,0.193034c0,0.153905 -0.114021,0.325393 -0.25338,0.3808c-0.139363,0.055844 -0.253384,0.209307 -0.253384,0.340787c0,0.145106 -0.104309,0.197871 -0.263939,0.134112c-0.217908,-0.087063 -0.183281,-0.192597 0.200592,-0.609894c0.255497,-0.277902 0.374161,-0.504797 0.263939,-0.504797c-0.110222,0 -0.200592,0.065959 -0.200592,0.145985c0,0.080468 -0.175255,0.244046 -0.388942,0.363211c-0.278721,0.155221 -0.380074,0.354413 -0.356845,0.702672c0.025337,0.378163 -0.204396,0.747527 -1.038868,1.669184c-0.589535,0.650786 -1.347573,1.574638 -1.684994,2.053057c-0.33742,0.478856 -0.682866,0.870208 -0.767747,0.870208c-0.084884,0 -0.154566,0.118723 -0.154566,0.263834c0,0.145106 -0.114021,0.263829 -0.25338,0.263829c-0.139363,0 -0.253384,0.106414 -0.253384,0.236573c0,0.130155 -0.152031,0.379921 -0.337842,0.55493c-0.185815,0.175009 -0.337846,0.396188 -0.337846,0.491166c0,0.274386 -1.314628,1.685893 -1.451035,1.558371c-0.06799,-0.063317 -0.06799,-0.014947 -0.000843,0.107292c0.124155,0.223821 -0.263939,0.858335 -1.111084,1.817368c-0.248315,0.280981 -0.418501,0.510959 -0.378382,0.510959c0.040118,0 -0.204396,0.435323 -0.54393,0.967386c-0.339107,0.532063 -0.72425,0.967386 -0.856009,0.967386c-0.131759,0 -0.197636,0.070795 -0.146114,0.157421c0.11233,0.189081 -0.33489,1.355659 -0.580249,1.513521c-0.095862,0.062001 -0.130489,0.186003 -0.077281,0.276144c0.053635,0.089704 0.016894,0.163578 -0.081506,0.163578c-0.098396,0 -0.179055,0.114766 -0.179055,0.255035c0,0.140274 -0.120777,0.325398 -0.268587,0.411582c-0.147805,0.086184 -0.261827,0.208869 -0.25338,0.272628c0.046031,0.353096 -0.002956,0.476657 -0.151609,0.381237c-0.096284,-0.062001 -0.124155,0.009236 -0.065877,0.167535c0.055743,0.1517 0.024915,0.373322 -0.068416,0.492924c-0.288855,0.369369 -1.06674,1.888605 -0.967074,1.888605c0.051944,0 -0.036319,0.257235 -0.196371,0.571639c-0.159631,0.314399 -0.312505,0.705751 -0.339533,0.869329c-0.027028,0.164015 -0.201018,0.57955 -0.386408,0.923415c-0.185815,0.344298 -0.301102,0.62572 -0.256762,0.62572c0.044766,0 -0.062078,0.391794 -0.23649,0.87065c-0.174834,0.478414 -0.275765,0.913742 -0.224664,0.967386c0.051096,0.053207 0.004221,0.09674 -0.103887,0.09674c-0.108535,0 -0.197214,0.23261 -0.197214,0.517112c0,0.284501 -0.076016,0.566361 -0.168925,0.626162c-0.092906,0.059801 -0.168921,0.381237 -0.168921,0.714108c0,0.332867 -0.076011,0.605058 -0.168921,0.605058c-0.092906,0 -0.168921,0.23261 -0.168921,0.517112c0,0.284496 -0.076016,0.566361 -0.168921,0.626162c-0.092906,0.059801 -0.168921,0.306926 -0.168921,0.548772c0,0.639793 -0.518588,2.19069 -0.694692,2.077245c-0.08235,-0.05277 -0.149918,0.018467 -0.149918,0.159178c0,0.324951 -0.457776,0.51799 -0.567154,0.239205c-0.049831,-0.127955 -0.086993,-0.10333 -0.095018,0.062443c-0.007599,0.149943 0.076437,0.366285 0.186237,0.480614c0.110222,0.114771 0.144006,0.266471 0.075594,0.338145c-0.068838,0.071237 -0.195528,0.013194 -0.282099,-0.129276c-0.08615,-0.142032 -0.158365,-0.168414 -0.159631,-0.058043c-0.001269,0.109929 -0.127537,0.189081 -0.279986,0.175888c-0.152453,-0.013631 -0.314618,0.086184 -0.360649,0.222058c-0.059547,0.177209 0.016468,0.219422 0.271539,0.149947c0.213265,-0.058043 0.440464,0.01451 0.57138,0.182924c0.165543,0.212822 0.16723,0.247999 0.006334,0.147306c-0.134293,-0.083989 -0.211152,-0.028145 -0.211152,0.152584c0,0.156537 -0.076016,0.235689 -0.168921,0.175888c-0.227199,-0.146427 -0.215374,0.145106 0.015625,0.385636c0.237333,0.24712 -0.116556,0.998167 -0.388099,0.823154c-0.11233,-0.072111 -0.138515,-0.039134 -0.065877,0.08311c0.066303,0.111687 0.02745,0.203149 -0.086571,0.203149c-0.114021,0 -0.158365,0.051007 -0.098396,0.113008c0.059543,0.062001 0.217487,0.018909 0.350932,-0.096299c0.315461,-0.273065 0.519436,0.04837 0.231846,0.364969c-0.135559,0.148626 -0.212844,0.756321 -0.212844,1.667863c0,0.788419 -0.055743,1.34247 -0.124155,1.23122c-0.068412,-0.111687 -0.12289,-0.12356 -0.121203,-0.026824c0.015625,0.977942 0.276612,0.999488 7.931292,0.655628c22.450095,-1.008719 70.07035,-0.579554 85.625494,0.771268c1.21708,0.105535 1.324767,0.087946 1.405004,-0.230853c0.132602,-0.528984 -0.055743,-5.026014 -0.224664,-5.361959c-0.081928,-0.162699 -0.149075,-0.652986 -0.149075,-1.088751c0,-0.436202 -0.076016,-0.841626 -0.168921,-0.901427c-0.092906,-0.059801 -0.168921,-0.455552 -0.168921,-0.879444c0,-0.423892 -0.076016,-0.819638 -0.168921,-0.879444c-0.092906,-0.059801 -0.168921,-0.3764 -0.168921,-0.703551c0,-0.327156 -0.076016,-0.643755 -0.168921,-0.703556c-0.09291,-0.059801 -0.168921,-0.3764 -0.168921,-0.703551c0,-0.327156 -0.076016,-0.643755 -0.168921,-0.703556c-0.09291,-0.059801 -0.168925,-0.336829 -0.168925,-0.61561c0,-0.278786 -0.076011,-0.555809 -0.168921,-0.61561c-0.092906,-0.059801 -0.168921,-0.302968 -0.168921,-0.540415c0,-0.237452 -0.067147,-0.569002 -0.149071,-0.736975c-0.08235,-0.167973 -0.234381,-0.523269 -0.337846,-0.789298c-0.103883,-0.266034 -0.269004,-0.665301 -0.367401,-0.886922c-0.098401,-0.222058 -0.195949,-0.518869 -0.217065,-0.659581c-0.021116,-0.141148 -0.168921,-0.525906 -0.32813,-0.854819c-0.159209,-0.329351 -0.291811,-0.685521 -0.293924,-0.791498c-0.009291,-0.408061 -2.989488,-6.288452 -3.247519,-6.407618c-0.069677,-0.03254 -0.12669,-0.136754 -0.12669,-0.232173c0,-0.09542 -0.228042,-0.518869 -0.506763,-0.940561c-0.278721,-0.421692 -0.506763,-0.834152 -0.506763,-0.916378c0,-0.082231 -0.152031,-0.263392 -0.337846,-0.402787c-0.185811,-0.13939 -0.337842,-0.335066 -0.337842,-0.434444c-0.000422,-0.099814 -0.189193,-0.418613 -0.420192,-0.70883c-0.230577,-0.290217 -0.572223,-0.725539 -0.758882,-0.967386c-0.186655,-0.241846 -0.604316,-0.756321 -0.927799,-1.143278c-0.323487,-0.386952 -0.589961,-0.760279 -0.592069,-0.830195c-0.013516,-0.44148 -4.704888,-5.290285 -7.098508,-7.335869c-2.57014,-2.197284 -2.514818,-2.152872 -3.085354,-2.461119c-0.254223,-0.137191 -0.461997,-0.315278 -0.461997,-0.395751c0,-0.080026 -0.099666,-0.145985 -0.221712,-0.145985c-0.121621,0 -0.36867,-0.13939 -0.548995,-0.309563c-0.179899,-0.170172 -0.688353,-0.506559 -1.129661,-0.74709c-0.441308,-0.240967 -0.802378,-0.497323 -0.802378,-0.569876c0,-0.072995 -0.145693,-0.132354 -0.323909,-0.132354c-0.17779,0 -0.34882,-0.059364 -0.380074,-0.131917c-0.049409,-0.116528 -0.600091,-0.415097 -2.421065,-1.312571c-0.278721,-0.137191 -0.658794,-0.334187 -0.84461,-0.437522c-0.332777,-0.184682 -0.945536,-0.461268 -1.773678,-0.800292c-0.232264,-0.094978 -0.554481,-0.242725 -0.715803,-0.328472c-0.161322,-0.085305 -0.446377,-0.155221 -0.633457,-0.155221c-0.187081,0 -0.339955,-0.079152 -0.339955,-0.175888c0,-0.09674 -0.185389,-0.175888 -0.412167,-0.175888c-0.226777,0 -0.459467,-0.079152 -0.516902,-0.175888c-0.05743,-0.09674 -0.265626,-0.175888 -0.462423,-0.175888c-0.380495,0 -1.36995,-0.292416 -1.858136,-0.549214c-0.161317,-0.084868 -0.555751,-0.154342 -0.876703,-0.154342c-0.320948,0 -0.630497,-0.079147 -0.687931,-0.175888c-0.057434,-0.09674 -0.426948,-0.175888 -0.82096,-0.175888c-0.394007,0 -0.78844,-0.071674 -0.876703,-0.15962c-0.162587,-0.161815 -0.990724,-0.281422 -3.285525,-0.475336c-0.6968,-0.058485 -1.347147,-0.17413 -1.445122,-0.256361c-0.289703,-0.244046 -8.984937,-0.181166 -9.237478,0.0664m-11.086741,3.057382c0.135137,0.173246 0.147805,0.244925 0.03125,0.17193c-0.111913,-0.069916 -0.269852,0.003079 -0.356849,0.164894c-0.111065,0.206228 -0.191302,0.230415 -0.278295,0.083989c-0.263096,-0.443242 0.287585,-0.827116 0.603895,-0.420813m-1.433723,0.000437c-0.190458,0.197876 -0.116134,0.405424 0.145271,0.405424c0.139363,0 0.253384,-0.074311 0.253384,-0.165336c0,-0.222058 -0.263939,-0.3808 -0.398655,-0.240088m-1.628403,0.845146c-0.171034,0.214585 -0.162587,0.263829 0.045609,0.263829c0.141049,0 0.299832,-0.118723 0.353467,-0.263829c0.053209,-0.145111 0.032941,-0.263834 -0.046031,-0.263834c-0.07855,0 -0.237333,0.118723 -0.353045,0.263834m36.8249,1.973026c5.268664,1.797143 13.357048,8.149354 17.757457,13.944883c6.364541,8.383723 9.220162,16.269243 9.719747,26.840145l0.100505,2.128252l-0.65499,0.113887c-0.360649,0.062438 -1.795637,0.037376 -3.189242,-0.056285c-12.449939,-0.83591 -57.620832,-1.160425 -79.477592,-0.571197c-2.647846,0.071674 -4.940113,0.102456 -5.093409,0.068595c-0.311657,-0.068595 -0.502542,-1.264197 -0.270695,-1.695566c0.074324,-0.138512 0.247471,-1.264638 0.384717,-2.50289c0.432865,-3.902528 1.834069,-6.787101 6.205336,-12.770828c0.887259,-1.21451 1.750871,-2.451004 1.919371,-2.747815c0.168078,-0.296816 0.365714,-0.539541 0.438351,-0.539541c0.073059,0 0.132602,-0.103772 0.132602,-0.230853c0,-0.126639 0.152031,-0.400588 0.337842,-0.608136c0.185815,-0.207544 0.337846,-0.48193 0.337846,-0.60989c0,-0.127959 0.152027,-0.346502 0.337842,-0.485892c0.185811,-0.139395 0.337842,-0.361012 0.337842,-0.492487c0,-0.131038 0.304058,-0.54262 0.675684,-0.914621c0.371631,-0.372006 0.675689,-0.767757 0.675689,-0.879444c0,-0.111687 0.304058,-0.507438 0.675684,-0.879444c0.371626,-0.372001 0.675689,-0.765552 0.675689,-0.875482c0,-0.109492 0.456085,-0.665301 1.013527,-1.235177c0.557442,-0.569881 1.013531,-1.081277 1.013531,-1.136679c0,-0.229978 2.210338,-2.381092 2.446406,-2.381092c0.141049,0 0.256336,-0.079152 0.256336,-0.175888c0,-0.09674 0.097131,-0.175888 0.216222,-0.175888c0.118669,0 0.325595,-0.1583 0.459467,-0.35178c0.133872,-0.193476 0.348402,-0.351776 0.476357,-0.351776c0.127959,0 0.445533,-0.237447 0.706095,-0.527664c0.260562,-0.290217 0.564619,-0.527668 0.675684,-0.527668c0.111065,0 0.415123,-0.237447 0.675684,-0.527664c0.260562,-0.290217 0.595026,-0.527668 0.743257,-0.527668c0.148649,0 0.270274,-0.079147 0.270274,-0.175888c0,-0.096736 0.135137,-0.175888 0.30068,-0.175888c0.165121,0 0.410058,-0.1583 0.54393,-0.351776c0.133867,-0.193476 0.378804,-0.351776 0.543926,-0.351776c0.165543,0 0.30068,-0.079152 0.30068,-0.175888c0,-0.09674 0.152031,-0.175893 0.337842,-0.175893c0.185815,0 0.337842,-0.079147 0.337842,-0.175888c0,-0.096736 0.152031,-0.175888 0.337846,-0.175888c0.185811,0 0.337842,-0.079147 0.337842,-0.175888c0,-0.096736 0.152027,-0.175888 0.337842,-0.175888c0.185815,0 0.337842,-0.079147 0.337842,-0.175888c0,-0.09674 0.152031,-0.175888 0.337842,-0.175888c0.185815,0 0.337846,-0.079152 0.337846,-0.175888c0,-0.09674 0.152027,-0.175888 0.337842,-0.175888c0.185811,0 0.337842,-0.079152 0.337842,-0.175888c0,-0.09674 0.152031,-0.175893 0.337842,-0.175893c0.185815,0 0.337842,-0.064638 0.337842,-0.144227c0,-0.079147 0.380074,-0.251519 0.84461,-0.383437c0.464532,-0.131917 0.844606,-0.304289 0.844606,-0.383437c0,-0.079589 0.228047,-0.144227 0.506768,-0.144227c0.278721,0 0.506763,-0.079152 0.506763,-0.175888c0,-0.09674 0.228042,-0.175893 0.506763,-0.175893c0.278721,0 0.506768,-0.079147 0.506768,-0.175888c0,-0.096736 0.152875,-0.175888 0.339955,-0.175888c0.187081,0 0.472136,-0.069474 0.633453,-0.154342c0.549416,-0.288896 1.498757,-0.549209 2.00299,-0.549209c0.27703,0 0.597556,-0.098061 0.713268,-0.218543c0.166813,-0.173688 0.240715,-0.165773 0.362762,0.039576c0.133446,0.225137 0.267317,0.219859 1.04858,-0.042213c2.704433,-0.905826 5.044839,-1.354784 7.145804,-1.370615c1.396556,-0.010552 2.070132,-0.079589 6.503478,-0.665296c1.440057,-0.190398 3.530462,-0.399709 4.645345,-0.464784c1.114879,-0.06508 2.29311,-0.185566 2.618284,-0.267792c0.749587,-0.189519 2.558741,-0.035618 3.547352,0.301648m-48.931084,6.352216l-0.500855,0.49864l0.565045,0c0.333617,0 0.537591,-0.078268 0.498316,-0.190835c-0.036319,-0.104656 0.002113,-0.328914 0.085728,-0.498207c0.229734,-0.464784 -0.081928,-0.373322 -0.648234,0.190402m-0.989881,0.916816c-0.059969,0.100698 -0.028293,0.284501 0.070525,0.408503c0.127955,0.160499 0.119934,0.291974 -0.027872,0.457747c-0.148231,0.167094 -0.15034,0.199633 -0.006334,0.115649c0.110222,-0.064642 0.322639,-0.372884 0.472136,-0.684647c0.151605,-0.316599 0.179055,-0.470941 0.061234,-0.34826c-0.250849,0.261193 -0.544773,0.293295 -0.396124,0.043092c0.057434,-0.096736 0.066303,-0.175888 0.019851,-0.175888c-0.046453,0 -0.13345,0.082668 -0.193415,0.183803m-1.310833,1.43569c-0.165965,0.180724 -0.248736,0.424333 -0.183703,0.541736c0.064612,0.117407 0.055322,0.154784 -0.020694,0.082668c-0.189189,-0.178088 -0.61445,0.213706 -0.479313,0.44148c0.059969,0.100698 0.029563,0.132359 -0.067147,0.069916c-0.096705,-0.062001 -0.263939,-0.0022 -0.372048,0.133238c-0.149497,0.187319 -0.147805,0.277465 0.006756,0.376842c0.13725,0.088383 0.159209,0.056281 0.067568,-0.097619c-0.102196,-0.172809 -0.024072,-0.20667 0.320105,-0.138074c0.356002,0.070795 0.443842,0.028582 0.402037,-0.194355c-0.029563,-0.156542 0.117399,-0.451153 0.326861,-0.654307c0.20904,-0.203149 0.324752,-0.433123 0.25634,-0.511833c-0.06799,-0.078273 0.009291,-0.092341 0.171877,-0.031661c0.162587,0.06068 0.295611,0.042213 0.295611,-0.041334c0,-0.308247 -0.431595,-0.294174 -0.72425,0.023304m-1.951468,2.468155c-0.274495,0.285822 -0.244089,0.602858 0.057434,0.602858c0.139363,0 0.216222,-0.039134 0.170191,-0.086626c-0.045609,-0.047487 -0.003804,-0.185561 0.092906,-0.306921c0.228464,-0.286701 -0.062925,-0.47754 -0.320531,-0.209311m-1.093342,1.286184c-0.202284,0.2889 -0.232268,0.421696 -0.088262,0.390036c0.294346,-0.064201 0.647813,-0.419497 0.647813,-0.650349c0,-0.313079 -0.235224,-0.203149 -0.55955,0.260314m-1.272406,1.683256c-0.282942,0.47182 -0.101774,0.660022 0.266052,0.277023c0.186237,-0.193918 0.227199,-0.355733 0.118669,-0.468741c-0.10853,-0.113008 -0.241559,-0.047049 -0.384721,0.191718m-0.532944,0.652544c0,0.252398 0.191724,0.361012 0.453129,0.256798c0.204396,-0.081789 0.209044,-0.127959 0.025763,-0.24932c-0.288855,-0.190402 -0.478892,-0.193481 -0.478892,-0.007478m-0.460737,0.782704c-0.220443,0.50788 0.278299,0.751926 0.561242,0.274828c0.071794,-0.120923 0.046879,-0.155221 -0.062499,-0.085309c-0.106422,0.0686 -0.205662,-0.046608 -0.236911,-0.274823c-0.052365,-0.3764 -0.063347,-0.372884 -0.261831,0.085305m-0.54646,0.909784c-0.112334,0.141153 -0.148227,0.351339 -0.079394,0.466983c0.074324,0.125323 0.053635,0.164894 -0.050674,0.097619c-0.299837,-0.193039 -0.648239,0.384316 -0.384721,0.638035c0.168921,0.162699 0.193415,0.163136 0.106,0.001321c-0.064612,-0.119607 0.034628,-0.293737 0.228886,-0.401908c0.18835,-0.105093 0.34249,-0.311321 0.34249,-0.459068c0,-0.147306 0.076016,-0.21898 0.168921,-0.159178c0.092906,0.059801 0.168921,-0.01451 0.168921,-0.165336c0,-0.344739 -0.233955,-0.353096 -0.500429,-0.018467m-1.357707,2.244339c0,0.076069 0.152031,0.13807 0.337842,0.13807c0.185815,0 0.337842,-0.062001 0.337842,-0.13807c0,-0.076073 -0.152027,-0.138512 -0.337842,-0.138512c-0.185811,0 -0.337842,0.062438 -0.337842,0.138512m-1.013531,1.886401c0,0.199196 -0.080659,0.362332 -0.179055,0.362332c-0.098396,0 -0.128803,0.084426 -0.067568,0.187761c0.061234,0.102893 -0.029137,0.298569 -0.201018,0.434006c-0.171877,0.135433 -0.229308,0.248883 -0.127533,0.251961c0.326861,0.01011 1.135152,-0.818764 0.928647,-0.95156c-0.104731,-0.067275 -0.149497,-0.190398 -0.100088,-0.273944c0.049409,-0.083547 0.012669,-0.201391 -0.081506,-0.262076c-0.09544,-0.061122 -0.171877,0.051007 -0.171877,0.251519m-0.65499,1.576401c-0.127959,0.084426 -0.183703,0.23701 -0.123316,0.338587c0.060391,0.101577 0.004226,0.248883 -0.124999,0.327151c-0.3256,0.197876 -0.532105,0.934409 -0.262253,0.934409c0.114443,0 0.160052,-0.050565 0.100509,-0.112129c-0.059121,-0.061559 0.059543,-0.355733 0.263096,-0.653865c0.20397,-0.298132 0.385138,-0.643313 0.402454,-0.767315c0.037162,-0.26515 0.043075,-0.263392 -0.255492,-0.066837m-1.266067,2.433857c-0.070103,0.216785 -0.080241,0.47402 -0.022385,0.571639c0.057856,0.097619 0.030406,0.177646 -0.061234,0.177646c-0.09164,0 -0.273652,0.223379 -0.404141,0.496007c-0.221712,0.462589 -0.214956,0.494687 0.099662,0.470499c0.293502,-0.022862 0.78295,-0.790619 0.503807,-0.790619c-0.057852,0 0.032519,-0.1583 0.200597,-0.351776c0.168078,-0.193476 0.223399,-0.351776 0.12289,-0.351776c-0.100509,0 -0.211574,-0.138512 -0.24705,-0.307805c-0.05363,-0.256798 -0.085302,-0.242725 -0.192145,0.086184m-0.612763,2.332285c0,0.193476 0.059543,0.351776 0.132602,0.351776c0.073059,0 0.133024,-0.1583 0.133024,-0.351776c0,-0.193481 -0.059965,-0.35178 -0.133024,-0.35178c-0.073059,0 -0.132602,0.1583 -0.132602,0.35178m-0.731854,1.172735c-0.062078,0.064201 -0.110643,0.242288 -0.107687,0.395751c0.004221,0.233489 0.033363,0.228211 0.179481,-0.032982c0.095862,-0.171493 0.257179,-0.258114 0.358536,-0.193039c0.111065,0.071237 0.136402,0.037818 0.064186,-0.083984c-0.135137,-0.227779 -0.326439,-0.261197 -0.494516,-0.085747m-0.450598,1.944886c0,0.359691 0.068412,0.55273 0.171877,0.486334c0.094175,-0.060685 0.130915,-0.178529 0.081506,-0.262076c-0.049409,-0.083547 -0.012669,-0.201391 0.081502,-0.262072c0.261831,-0.168414 0.204818,-0.558887 -0.081502,-0.558887c-0.175255,0 -0.253384,0.183803 -0.253384,0.596701m-0.281255,1.056653c0.059547,0.100693 -0.008869,0.284496 -0.152449,0.40894c-0.144006,0.124002 -0.242402,0.430044 -0.219178,0.679369c0.02365,0.249762 -0.053209,0.651665 -0.170186,0.893512l-0.213265,0.439722l0.336155,-0.434885c0.184546,-0.23921 0.302367,-0.491608 0.260983,-0.560645c-0.040966,-0.069474 0.059965,-0.207549 0.224664,-0.307363c0.164278,-0.099819 0.23269,-0.183803 0.151609,-0.186882c-0.084041,-0.003079 -0.084041,-0.103777 0,-0.233494c0.08108,-0.125318 0.014355,-0.076948 -0.148231,0.107292c-0.362336,0.411582 -0.390629,0.164457 -0.04054,-0.356175c0.188346,-0.279223 0.203549,-0.412456 0.058278,-0.506118c-0.114865,-0.073874 -0.151605,-0.050128 -0.087841,0.056723m-1.032955,3.986512c0.019007,0.237893 0.09544,0.393114 0.170191,0.345181c0.074746,-0.048366 0.084458,-0.174567 0.021116,-0.281418c-0.073903,-0.124444 -0.014781,-0.153463 0.165965,-0.081352c0.390629,0.156104 0.352624,0 -0.055322,-0.227332c-0.296037,-0.164899 -0.33193,-0.135875 -0.301949,0.24492m-0.375004,2.832245c0,0.161378 0.081928,0.264713 0.18159,0.229974c0.100088,-0.034735 0.18159,-0.13807 0.18159,-0.229974c0,-0.091899 -0.081502,-0.195234 -0.18159,-0.229974c-0.099662,-0.034735 -0.18159,0.068595 -0.18159,0.229974m-0.224243,1.975668c-0.043075,0.074316 -0.073481,0.64947 -0.067147,1.278269c0.005913,0.628803 0.040962,0.886038 0.077281,0.571639c0.036741,-0.314399 0.137671,-0.571639 0.224664,-0.571639c0.086997,0 0.158365,-0.12356 0.158365,-0.274386c0,-0.150821 -0.076016,-0.225137 -0.168921,-0.165336c-0.215374,0.138516 -0.214952,-0.021546 0.000422,-0.440601c0.162587,-0.316599 -0.0511,-0.695636 -0.224664,-0.397946m35.158909,5.982847c1.329836,0.029903 3.45825,0.029903 4.729804,0c1.27198,-0.029898 0.184128,-0.054086 -2.417265,-0.054086c-2.601394,0 -3.641948,0.024625 -2.312539,0.054086m9.702857,-0.000437c0.99875,0.031219 2.633065,0.031219 3.631814,0c0.998745,-0.030782 0.18159,-0.056285 -1.815909,-0.056285c-1.997495,0 -2.814655,0.025504 -1.815905,0.056285m-29.899117,0.172809c0.348402,0.038255 0.918513,0.038255 1.26691,0c0.348402,-0.037818 0.063347,-0.069037 -0.633453,-0.069037c-0.696804,0 -0.98186,0.031219 -0.633457,0.069037m55.152889,-0.000879c0.301949,0.039134 0.796044,0.039134 1.097989,0c0.301949,-0.038697 0.0549,-0.070795 -0.548995,-0.070795c-0.603895,0 -0.85094,0.032098 -0.548995,0.070795m-61.698598,0.215022l-2.871667,0.097619l2.027058,0.087942c1.114884,0.04837 5.637756,0.045733 10.050834,-0.005716l8.023772,-0.093662l-6.84132,-0.040455c-3.76273,-0.022425 -6.993355,-0.063759 -7.179166,-0.091899c-0.185815,-0.02814 -1.630094,-0.007473 -3.20951,0.046171m42.357078,0.141148c1.370376,0.029461 3.612812,0.029461 4.983188,0c1.370376,-0.029461 0.249158,-0.053644 -2.491594,-0.053644c-2.740752,0 -3.86197,0.024183 -2.491594,0.053644m19.425983,0.173693c0.441308,0.036056 1.163445,0.036056 1.604753,0c0.441308,-0.036056 0.080237,-0.065959 -0.802378,-0.065959c-0.882615,0 -1.243682,0.029903 -0.802374,0.065959m7.513209,0.173688c0.299832,0.038697 0.831937,0.039576 1.182448,0.001321c0.350515,-0.038255 0.105157,-0.069916 -0.545195,-0.070795c-0.650347,-0.000879 -0.937089,0.03034 -0.637257,0.069474m6.678316,0.175009c0.257184,0.040455 0.637257,0.039576 0.84461,-0.0022c0.20777,-0.041771 -0.002113,-0.07519 -0.466649,-0.073869c-0.464532,0.001316 -0.634723,0.035614 -0.377961,0.076069m5.276686,0.046612l-2.195979,0.097615l2.533825,0.08443c1.3936,0.046608 2.799873,0.034735 3.125047,-0.026824l0.591226,-0.111692l-0.703982,-0.020225c-0.387251,-0.010994 -0.80533,-0.043092 -0.929068,-0.070795c-0.123733,-0.027703 -1.21328,-0.006594 -2.421069,0.047491m-61.780948,27.917901c0.209887,0.042213 0.513945,0.040455 0.675684,-0.00352c0.161322,-0.043971 -0.010556,-0.07871 -0.382182,-0.076511c-0.371626,0.001758 -0.503811,0.037818 -0.293502,0.080031m30.826072,26.20431c0.162587,0.043971 0.428639,0.043971 0.591226,0c0.162587,-0.044413 0.029563,-0.080473 -0.295611,-0.080473c-0.325174,0 -0.458202,0.03606 -0.295615,0.080473m-26.351761,0.175888c0.162587,0.043971 0.428639,0.043971 0.591226,0c0.162587,-0.044413 0.029559,-0.080473 -0.295615,-0.080473c-0.325174,0 -0.458198,0.03606 -0.295611,0.080473m47.983857,3.662877c-0.226777,0.172809 -0.182433,0.194355 0.259296,0.126639c0.293081,-0.044413 0.532948,-0.138074 0.532948,-0.207986c0,-0.198317 -0.490717,-0.148189 -0.792244,0.081347m4.339596,-0.07871c0,0.079147 0.162165,0.11125 0.360649,0.071674c0.527457,-0.105972 0.562507,-0.215464 0.068834,-0.215464c-0.236068,0 -0.429483,0.064638 -0.429483,0.14379m-68.933086,0.032098c-0.118247,0.402787 -0.076016,0.653865 0.12289,0.733454c0.13725,0.054528 0.200171,0.021109 0.142315,-0.076069c-0.056587,-0.09542 0.020694,-0.173693 0.172299,-0.173693c0.244937,0 0.24705,-0.029461 0.021963,-0.263829c-0.230155,-0.239651 -0.426105,-0.333308 -0.459467,-0.219863m10.259026,0.263834c-0.083615,0.140711 1.92444,0.094541 2.060846,-0.047491c0.04434,-0.046608 -0.383452,-0.084426 -0.951027,-0.084426c-0.567154,0 -1.06674,0.059364 -1.109814,0.131917m2.254257,-0.064638c0,0.152584 0.839119,0.2203 1.044781,0.084863c0.141471,-0.093657 -0.007604,-0.147743 -0.411323,-0.149505c-0.348402,-0.001316 -0.633457,0.027703 -0.633457,0.064642m5.743335,0.108609c0.327704,0.2203 0.506763,0.2203 0.506763,0c0,-0.096736 -0.171034,-0.174567 -0.380074,-0.173246c-0.307436,0.002195 -0.331508,0.035177 -0.12669,0.173246m2.47343,-0.040892c-0.043918,0.074311 0.217487,0.105972 0.581514,0.069474c0.363605,-0.036056 0.661329,-0.096736 0.661329,-0.134991c0,-0.131038 -1.162601,-0.069479 -1.242843,0.065517m3.380544,-0.003079c-0.089949,0.151263 16.090201,0.118723 16.235476,-0.03254c0.052787,-0.054523 -3.56129,-0.099377 -8.030954,-0.099377c-4.469242,0 -8.161448,0.059364 -8.204522,0.131917m18.502823,-0.039576c0.113178,0.117407 2.329007,0.14599 2.439228,0.031661c0.047722,-0.050128 -0.500007,-0.097178 -1.217923,-0.105093c-0.717494,-0.007473 -1.267336,0.025504 -1.221305,0.073432m2.96922,0.113013c0.145693,0.1517 0.297724,0.154779 0.582779,0.011868c0.361914,-0.181603 0.350089,-0.194355 -0.197214,-0.205349c-0.444264,-0.009231 -0.535904,0.036939 -0.385564,0.193481m3.713317,-0.081352c0.20904,0.042213 0.551108,0.042213 0.760147,0c0.20904,-0.041771 0.03801,-0.076069 -0.380074,-0.076069c-0.418079,0 -0.589113,0.034298 -0.380074,0.076069m1.775791,0.0022c0.257179,0.040455 0.637253,0.039576 0.844606,-0.0022c0.207774,-0.041771 -0.002113,-0.07519 -0.466645,-0.073874c-0.464536,0.001321 -0.634723,0.035618 -0.377961,0.076073" fill="#f6d899" fill-rule="evenodd"/>
  </g>
 </g>
</svg>