<svg width="40" height="40" xmlns="http://www.w3.org/2000/svg">
 <g>
  <title>background</title>
  <rect x="-1" y="-1" width="42" height="42" id="canvas_background" fill="none"/>
 </g>

 <g>
  <title>Layer 1</title>
  <g stroke="null" id="svgg">
   <path stroke="null" id="path0" d="m24.800754,4.807914c-0.1094,0.025341 -0.505798,0.062469 -0.880885,0.082524c-0.375085,0.020055 -1.078373,0.084557 -1.56286,0.143232c-1.491538,0.180495 -1.718152,0.20177 -2.188005,0.205022c-0.706838,0.004878 -1.494237,0.143231 -2.404105,0.422376c-0.262845,0.080763 -0.307883,0.082388 -0.35278,0.013009c-0.041061,-0.063282 -0.065924,-0.065721 -0.122045,-0.012195c-0.03893,0.037128 -0.146768,0.067346 -0.239971,0.067346c-0.169642,0 -0.489033,0.080221 -0.673876,0.169249c-0.054274,0.026153 -0.150177,0.047563 -0.213118,0.047563c-0.062941,0 -0.114373,0.024391 -0.114373,0.054203c0,0.029812 -0.076722,0.054203 -0.170493,0.054203c-0.093772,0 -0.170495,0.024392 -0.170495,0.054203c0,0.029812 -0.076722,0.054203 -0.170493,0.054203c-0.093772,0 -0.170493,0.019921 -0.170493,0.044447c0,0.024391 -0.12787,0.07751 -0.284157,0.118162c-0.156285,0.040652 -0.284156,0.09377 -0.284156,0.118162c0,0.024527 -0.051149,0.044446 -0.113662,0.044446c-0.062515,0 -0.113664,0.024392 -0.113664,0.054203c0,0.029812 -0.051147,0.054203 -0.113662,0.054203c-0.062514,0 -0.113662,0.024392 -0.113662,0.054203c0,0.029812 -0.051149,0.054203 -0.113662,0.054203c-0.062515,0 -0.113662,0.024392 -0.113662,0.054204c0,0.029811 -0.051149,0.054203 -0.113664,0.054203c-0.062514,0 -0.113662,0.024391 -0.113662,0.054203c0,0.029811 -0.051147,0.054203 -0.113662,0.054203c-0.062515,0 -0.113662,0.024391 -0.113662,0.054203c0,0.029812 -0.051149,0.054203 -0.113662,0.054203c-0.062515,0 -0.113664,0.024392 -0.113664,0.054203c0,0.029812 -0.045465,0.054203 -0.10116,0.054203c-0.055553,0 -0.137957,0.048783 -0.182996,0.108407c-0.045039,0.059623 -0.127445,0.108405 -0.182996,0.108405c-0.055695,0 -0.101161,0.024391 -0.101161,0.054203c0,0.029812 -0.040918,0.054203 -0.09093,0.054203c-0.049869,0 -0.162395,0.073175 -0.250057,0.162608c-0.087662,0.089435 -0.189958,0.16261 -0.227326,0.16261c-0.037366,0 -0.139662,0.073173 -0.227324,0.162608c-0.087662,0.089435 -0.194506,0.16261 -0.237554,0.16261c-0.04305,0 -0.115226,0.048783 -0.160265,0.108405c-0.045038,0.059623 -0.114657,0.108405 -0.154581,0.108405c-0.040065,0 -0.072743,0.024392 -0.072743,0.054203c0,0.029812 -0.038788,0.054203 -0.086242,0.054203c-0.079422,0 -0.823059,0.662903 -0.823059,0.733773c0,0.017074 -0.153445,0.17467 -0.340987,0.350286c-0.187543,0.175618 -0.340988,0.3469 -0.340988,0.38064c0,0.033877 -0.102296,0.155156 -0.227324,0.269796c-0.12503,0.11464 -0.227326,0.236595 -0.227326,0.271015c0,0.034418 -0.102296,0.156376 -0.227324,0.271014c-0.125028,0.11464 -0.227326,0.241474 -0.227326,0.281855c0,0.040516 -0.051147,0.108813 -0.113662,0.151768c-0.062514,0.042957 -0.113662,0.110303 -0.113662,0.149736c0,0.039433 -0.051149,0.123989 -0.113662,0.187949c-0.062515,0.06396 -0.113662,0.14838 -0.113662,0.187407c0,0.039161 -0.020034,0.071141 -0.044614,0.071141c-0.024436,0 -0.09093,0.0748 -0.147477,0.166267c-0.056689,0.091467 -0.347238,0.472515 -0.645745,0.846786c-1.470651,1.843984 -1.942067,2.732913 -2.087696,3.93554c-0.046176,0.381589 -0.104427,0.728624 -0.129434,0.771308c-0.078,0.132932 -0.013781,0.501376 0.091073,0.522517c0.051574,0.010433 0.822774,0.000949 1.713604,-0.02114c7.353399,-0.181579 22.550508,-0.081574 26.739116,0.176025c0.468857,0.028862 0.951639,0.036587 1.072974,0.017344l0.220364,-0.035096l-0.033815,-0.655856c-0.168079,-3.257596 -1.128812,-5.68765 -3.270072,-8.271234c-2.034702,-2.454851 -5.735981,-4.721889 -7.167702,-4.390302m2.955227,0.098378c0,0.025612 0.063935,0.074529 0.142077,0.108405c0.078143,0.034013 0.142079,0.052848 0.142079,0.042008c0,-0.01084 -0.063935,-0.059624 -0.142079,-0.108407c-0.078142,-0.048917 -0.142077,-0.067753 -0.142077,-0.042007m2.314026,1.582997c0.100592,0.100548 0.192516,0.171959 0.204308,0.158544c0.011793,-0.013279 -0.07047,-0.095668 -0.182854,-0.182934l-0.204308,-0.15868l0.182854,0.183071m0.979771,0.825376c0.139378,0.141604 0.260856,0.257463 0.269949,0.257463c0.042766,0 -0.002415,-0.048646 -0.253325,-0.273318l-0.269949,-0.24161l0.253325,0.257465m0.405207,0.406521c0.034526,0.052171 0.13057,0.141335 0.213543,0.198248c0.11963,0.081983 0.110253,0.062333 -0.044896,-0.094855c-0.215533,-0.218031 -0.264265,-0.247979 -0.168647,-0.103392m0.794786,0.853696c-0.000711,0.067618 0.276911,0.373323 0.310157,0.341614c0.013355,-0.012738 -0.050865,-0.107051 -0.142647,-0.209495c-0.091924,-0.102444 -0.167226,-0.16193 -0.16751,-0.13212m1.587156,2.131803c0,0.079271 0.223348,0.316545 0.225479,0.239576c0.000995,-0.037264 -0.023727,-0.067753 -0.054985,-0.067753c-0.031257,0 -0.056831,-0.035098 -0.056831,-0.078053c0,-0.042955 -0.025574,-0.093229 -0.056831,-0.111657c-0.031257,-0.01843 -0.056831,-0.010435 -0.056831,0.017887m0.545155,0.957765c0.051147,0.074529 0.102296,0.135508 0.113662,0.135508c0.011366,0 -0.008382,-0.060979 -0.044045,-0.135508c-0.035519,-0.074529 -0.08681,-0.135508 -0.113662,-0.135508c-0.026995,0 -0.007246,0.060979 0.044045,0.135508" fill="#eea929" fill-rule="evenodd"/>
   <path stroke="null" id="path1" d="m8.774334,25.518996c-1.946898,1.113192 -0.842524,4.990736 1.172857,4.117933c1.351447,-0.585257 1.691866,-2.597811 0.623013,-3.682684c-0.514749,-0.522381 -1.307404,-0.71453 -1.795869,-0.435249m12.076646,0.016124c-1.651374,0.579973 -2.230911,2.223134 -1.215905,3.44785c1.218605,1.470391 3.722308,0.945842 4.233931,-0.886895c0.460902,-1.651158 -1.315644,-3.158677 -3.018026,-2.560953m-7.849961,1.964991c-0.097608,0.37102 -0.014066,0.386197 2.148506,0.3927c1.94704,0.005827 1.979007,0.00122 1.979007,-0.285784c0,-0.247844 -0.025432,-0.250825 -2.112987,-0.250825l-1.976734,0l-0.037792,0.143909m20.011855,8.20592c-0.281315,0.022224 -0.805583,0.067211 -1.165042,0.099734c-0.359457,0.032657 -0.80061,0.059623 -0.980339,0.059894c-0.402223,0.000542 -0.426377,0.082659 -0.08951,0.304757c0.51958,0.342562 2.149075,0.211391 2.548031,-0.205158c0.120481,-0.125887 0.223062,-0.169656 0.474399,-0.202177c0.786971,-0.101902 0.260998,-0.139979 -0.78754,-0.057049m-25.971893,0.16017l-0.113664,0.042414l0.113664,0.042819c0.062514,0.023578 0.180865,0.089571 0.263129,0.146619c0.343403,0.238765 2.349972,0.241746 2.556981,0.003795c0.103149,-0.118433 0.085957,-0.121009 -1.203544,-0.180902c-0.670325,-0.031032 -1.282682,-0.065586 -1.360824,-0.076833c-0.078143,-0.011111 -0.193227,-0.00122 -0.255741,0.022089m29.299079,0.754098c-0.043901,0.078324 -0.044754,0.113013 -0.00284,0.113013c0.068907,0 0.144066,-0.152039 0.097181,-0.196756c-0.01705,-0.016126 -0.059389,0.021544 -0.094341,0.083743m-20.333946,0.045124c-0.767222,0.017211 -0.832437,0.036723 -0.648872,0.195267c0.323229,0.279009 0.835847,0.302316 1.351732,0.061655c0.289414,-0.135101 0.380202,-0.315596 0.143499,-0.285649c-0.051291,0.006505 -0.432202,0.019514 -0.84636,0.028727m13.312727,0.98934c-0.019323,0.029811 0.019039,0.054203 0.085247,0.054203c0.066208,0 0.104569,-0.024392 0.085246,-0.054203c-0.019322,-0.029812 -0.057682,-0.054204 -0.085246,-0.054204c-0.027564,0 -0.065924,0.024392 -0.085247,0.054204m-15.145535,0.108405c-0.064503,0.039704 -0.039497,0.052712 0.102865,0.05339c0.110964,0.000406 0.173619,-0.021411 0.152876,-0.05339c-0.044187,-0.06816 -0.145204,-0.06816 -0.255741,0m2.259044,0.039162c0.101585,0.01206 0.267816,0.01206 0.369403,0c0.101585,-0.011925 0.01847,-0.021817 -0.184702,-0.021817c-0.203172,0 -0.286288,0.009892 -0.184702,0.021817m7.274403,0c0.101587,0.01206 0.267818,0.01206 0.369403,0c0.101587,-0.011925 0.01847,-0.021817 -0.184702,-0.021817c-0.203172,0 -0.286287,0.009892 -0.184702,0.021817" fill="#393938" fill-rule="evenodd"/>
   <path stroke="null" id="path2" d="m16.217101,2.428044c-0.040066,0.046073 -0.107127,0.071277 -0.149039,0.055964c-0.140231,-0.051357 -0.077149,0.04919 0.072318,0.115318c0.135542,0.060028 0.145061,0.056235 0.117357,-0.044853c-0.020318,-0.074394 -0.006962,-0.101767 0.041487,-0.084151c0.039355,0.0145 0.071607,-0.007994 0.071607,-0.049866c0,-0.099868 -0.062941,-0.096616 -0.153729,0.007588m-1.225566,0.304756c-0.016197,0.024798 -0.015203,0.06694 0.002131,0.093636c0.017334,0.026695 -0.005399,0.062062 -0.05058,0.078595c-0.0547,0.019919 -0.071466,0.003794 -0.050438,-0.048512c0.017476,-0.043228 0.005541,-0.078595 -0.026285,-0.078595c-0.082547,0 -0.044328,0.179141 0.044328,0.207326c0.040635,0.012874 0.097892,-0.017345 0.127161,-0.067211c0.034951,-0.059623 0.091783,-0.079 0.166231,-0.056507c0.099596,0.030219 0.104854,0.021817 0.044896,-0.069785c-0.070328,-0.107458 -0.206012,-0.138489 -0.257445,-0.058946m-0.531941,0.286599c-0.037793,0.043497 -0.050154,0.107593 -0.027564,0.142553c0.029269,0.045124 0.056264,0.037671 0.09363,-0.025881c0.029268,-0.049868 0.082405,-0.072362 0.120055,-0.050816c0.039214,0.022495 0.034951,0.000407 -0.010514,-0.052983c-0.094339,-0.110981 -0.090504,-0.11071 -0.175608,-0.012872m-0.195073,0.04309c0.023585,0.064637 0.005541,0.094855 -0.056689,0.094855c-0.050296,0 -0.091357,-0.027372 -0.091357,-0.060842c0,-0.039568 -0.032962,-0.034825 -0.093914,0.01355c-0.051716,0.040923 -0.102865,0.068296 -0.113662,0.060844c-0.060241,-0.04133 -0.130143,-0.000407 -0.161827,0.094855c-0.019891,0.059623 -0.074165,0.108405 -0.120908,0.108405c-0.046601,0 -0.06905,-0.02412 -0.050012,-0.053525c0.020034,-0.031032 -0.003126,-0.039704 -0.054842,-0.020869c-0.063508,0.023309 -0.072887,0.052307 -0.031968,0.099328c0.031826,0.03645 0.03893,0.08564 0.01577,0.109083c-0.0233,0.023578 0.008951,0.017073 0.071466,-0.014499c0.062514,-0.031573 0.161116,-0.071548 0.219084,-0.088893c0.070328,-0.021139 0.093914,-0.062876 0.070897,-0.125887c-0.032537,-0.088893 -0.029978,-0.088893 0.041345,-0.001625c0.06905,0.084557 0.086951,0.085233 0.201608,0.008672c0.069335,-0.046209 0.163107,-0.070465 0.208572,-0.053797c0.106416,0.038891 0.10528,-0.026152 -0.002842,-0.159356c-0.071181,-0.087672 -0.079564,-0.089434 -0.050722,-0.010299m-1.204824,0.44338c-0.05953,0.039704 -0.133837,0.081305 -0.165095,0.092281c-0.031257,0.010976 -0.0547,0.063282 -0.052142,0.116265c0.002557,0.052983 -0.023018,0.086589 -0.056831,0.074529c-0.033815,-0.01206 -0.05328,-0.055286 -0.043192,-0.096346c0.014492,-0.059216 0.003551,-0.060842 -0.053138,-0.007588c-0.074023,0.06938 -0.114515,0.285378 -0.053564,0.285378c0.096472,0 0.290976,-0.183476 0.264408,-0.249604c-0.033957,-0.084691 0.110395,-0.105695 0.163389,-0.023714c0.01847,0.028458 0.07175,0.037808 0.118493,0.020733c0.069476,-0.025475 0.07175,-0.046207 0.012786,-0.113826c-0.061946,-0.071277 -0.054131,-0.077511 0.055411,-0.044311c0.154012,0.046614 0.167937,0.001625 0.022591,-0.072631c-0.073881,-0.037671 -0.136822,-0.032115 -0.213118,0.018834m-0.591329,0.413975c0,0.034284 -0.04916,0.042957 -0.120766,0.021275c-0.088941,-0.026966 -0.109116,-0.018429 -0.076438,0.03198c0.032251,0.049595 0.011792,0.060435 -0.073881,0.039026c-0.089935,-0.02236 -0.110111,-0.00935 -0.084395,0.05461c0.022165,0.055286 0.011082,0.070598 -0.032677,0.044853c-0.037793,-0.022224 -0.066919,-0.008537 -0.067346,0.031708c-0.000709,0.051627 -0.015912,0.048783 -0.055978,-0.010299c-0.030262,-0.044718 -0.055126,-0.056913 -0.055126,-0.027102c0,0.102715 0.110395,0.218845 0.154581,0.16261c0.023442,-0.029812 0.080984,-0.054203 0.12787,-0.054203c0.046885,0 0.079136,-0.029677 0.071749,-0.065857c-0.007813,-0.037942 0.022165,-0.052712 0.071039,-0.034825c0.046459,0.017073 0.084537,0.002574 0.084537,-0.032251c0,-0.034689 0.020318,-0.051222 0.045039,-0.036587c0.024722,0.014499 0.048732,-0.020597 0.053278,-0.078188c0.004547,-0.057456 -0.002982,-0.104612 -0.016623,-0.104612c-0.013639,0 -0.024864,0.026017 -0.024864,0.057862m-0.911858,0.488775c-0.034951,0.062198 -0.048591,0.127241 -0.030404,0.144587c0.018043,0.017345 0.032962,0.002981 0.032962,-0.031708c0,-0.034825 0.038361,-0.063282 0.085246,-0.063282c0.046887,0 0.085247,-0.036588 0.085247,-0.081305c0,-0.117891 -0.099312,-0.099734 -0.173052,0.031708m-0.33843,0.22955c0,0.026695 -0.044045,0.032386 -0.09775,0.012738c-0.053705,-0.019784 -0.079564,-0.018429 -0.057257,0.00271c0.057826,0.055151 -0.073456,0.18971 -0.144351,0.147974c-0.036515,-0.021546 -0.041914,-0.008266 -0.014066,0.034689c0.029695,0.045802 0.019039,0.061384 -0.031115,0.045395c-0.121903,-0.038755 -0.288987,0.124938 -0.214822,0.210173c0.033955,0.039026 0.087377,0.071005 0.118635,0.071005c0.031257,0 0.021738,-0.041329 -0.02117,-0.091738c-0.06635,-0.078052 -0.066208,-0.084827 0.001705,-0.045936c0.052995,0.030489 0.106133,0.011247 0.158702,-0.05732c0.043476,-0.056778 0.092066,-0.095533 0.107978,-0.086454c0.015914,0.009215 0.116079,-0.056235 0.222637,-0.145535c0.154865,-0.12968 0.171346,-0.160576 0.082264,-0.154207c-0.061235,0.004471 -0.111389,0.029812 -0.111389,0.056507m-0.829452,0.530376c-0.059531,0.06274 -0.10187,0.123717 -0.094055,0.135506c0.045749,0.068974 0.001988,0.088622 -0.047881,0.021411c-0.053564,-0.072226 -0.0574,-0.072226 -0.034951,0c0.013924,0.044717 -0.010797,0.121007 -0.054842,0.169519c-0.069476,0.076292 -0.068481,0.092416 0.007388,0.120196c0.052569,0.019241 0.087662,0.002574 0.087662,-0.041737c0,-0.040516 0.038361,-0.087808 0.085247,-0.105018c0.046885,-0.017074 0.085247,-0.069921 0.085247,-0.11735c0,-0.047427 0.020458,-0.074122 0.045323,-0.059488c0.025005,0.014635 0.082547,0.004337 0.12787,-0.023036c0.063792,-0.038484 0.051858,-0.050002 -0.052285,-0.050679c-0.113378,-0.000678 -0.123608,-0.013686 -0.064077,-0.082117c0.108122,-0.124126 0.032251,-0.096753 -0.090646,0.032792m-0.573997,0.399069c-0.087662,0.073582 -0.126591,0.134559 -0.086384,0.135508c0.051007,0.00122 0.057684,0.030354 0.021881,0.096616c-0.028133,0.052171 -0.039641,0.125345 -0.025716,0.16261c0.030546,0.080898 -0.075587,0.091467 -0.126592,0.012602c-0.022022,-0.033877 -0.101301,-0.010704 -0.205587,0.06003c-0.093346,0.063418 -0.156145,0.128326 -0.139522,0.144316c0.016766,0.015855 0.068624,-0.00149 0.11551,-0.038484c0.074023,-0.058674 0.073739,-0.045802 -0.002273,0.099597c-0.048022,0.091874 -0.117641,0.18429 -0.154723,0.205565c-0.046318,0.026424 -0.045038,0.01206 0.004262,-0.045936c0.058537,-0.068974 0.055837,-0.09716 -0.014207,-0.152582c-0.070897,-0.0561 -0.085958,-0.052034 -0.085958,0.023172c0,0.050137 -0.025574,0.076019 -0.056831,0.057591c-0.031257,-0.01843 -0.056831,0.005962 -0.056831,0.054203c0,0.048241 -0.025574,0.072631 -0.056831,0.054203c-0.031257,-0.018429 -0.056831,-0.007725 -0.056831,0.023849c0,0.031573 0.025574,0.057455 0.056831,0.057455c0.031257,0 0.056831,0.025205 0.056831,0.0561c0,0.036723 -0.044187,0.03442 -0.12787,-0.00664c-0.104001,-0.050951 -0.114941,-0.049595 -0.058678,0.007183c0.0547,0.055286 0.042766,0.093229 -0.057968,0.182798c-0.069903,0.062064 -0.117783,0.158409 -0.106274,0.214102c0.013497,0.065857 -0.002273,0.087808 -0.044754,0.06274c-0.12503,-0.073716 -0.335162,0.016397 -0.303906,0.130222c0.023869,0.087132 0.005968,0.09987 -0.104712,0.0748c-0.127443,-0.028862 -0.128722,-0.026559 -0.025431,0.049597c0.075869,0.055964 0.08823,0.091467 0.041628,0.118975c-0.036514,0.02141 -0.053989,0.058269 -0.038788,0.081712c0.015203,0.023442 -0.041912,0.039975 -0.126876,0.036857c-0.118208,-0.004337 -0.150603,0.016938 -0.137531,0.090384c0.021454,0.121821 -0.103149,0.243371 -0.231303,0.225348c-0.062088,-0.008672 -0.098319,0.022224 -0.098319,0.083608c0,0.054068 -0.054557,0.110845 -0.123039,0.127919c-0.10386,0.025882 -0.111673,0.043769 -0.049869,0.114774c0.092919,0.10678 -0.024864,0.267222 -0.162964,0.221826c-0.070045,-0.023036 -0.06763,-0.012872 0.010797,0.045396c0.085958,0.063823 0.088373,0.079678 0.016055,0.106101c-0.046887,0.017211 -0.100592,0.007454 -0.119346,-0.021544c-0.06081,-0.093908 -0.125454,-0.003117 -0.097465,0.136862c0.015345,0.076156 0.05342,0.120872 0.086526,0.101359c0.034241,-0.020325 0.042054,-0.008672 0.018469,0.027644c-0.022305,0.03442 -0.101443,0.062605 -0.175892,0.062605c-0.074449,0 -0.15103,0.02412 -0.170068,0.053525c-0.019891,0.030761 0.002842,0.03984 0.053422,0.02141c0.057968,-0.021274 0.08823,-0.001354 0.08823,0.057998c0,0.049595 -0.025573,0.075207 -0.056831,0.056778c-0.031257,-0.01843 -0.056831,0.003657 -0.056831,0.049053c0,0.045529 -0.051858,0.109083 -0.115226,0.141469c-0.063366,0.032386 -0.101727,0.079678 -0.085246,0.105288c0.016623,0.025475 -0.017476,0.034554 -0.075728,0.019921c-0.075443,-0.018701 -0.116219,0.010028 -0.141368,0.100004c-0.053422,0.190116 -0.045181,0.222231 0.048165,0.187949c0.046885,-0.017074 0.085247,-0.005827 0.085247,0.025203c0,0.031032 -0.07033,0.048512 -0.156287,0.039027c-0.109116,-0.012196 -0.156285,0.007045 -0.156285,0.063823c0,0.044717 -0.031968,0.100817 -0.071039,0.124667c-0.039072,0.023849 -0.071039,0.078729 -0.071039,0.121956c0,0.043228 -0.0287,0.078595 -0.063793,0.078595c-0.044045,0 -0.041914,0.025068 0.006962,0.081303c0.038928,0.044718 0.051716,0.081305 0.028415,0.081305c-0.0233,0 -0.013497,0.033064 0.021738,0.07358c0.049443,0.056778 0.03481,0.093772 -0.064077,0.162744c-0.296233,0.206243 -0.357895,0.261124 -0.261565,0.232531c0.116788,-0.034554 0.104996,0.052983 -0.033815,0.252586c-0.07928,0.113826 -0.117924,0.134423 -0.153303,0.081303c-0.025858,-0.039026 -0.047596,-0.045395 -0.048022,-0.014092c-0.000427,0.031301 0.031115,0.088892 0.070187,0.128054c0.057826,0.057862 0.049443,0.064908 -0.044755,0.037942c-0.129433,-0.03713 -0.203314,0.27535 -0.08212,0.346898c0.039924,0.023443 0.026711,0.06274 -0.037651,0.112471c-0.077432,0.06003 -0.088799,0.060842 -0.052711,0.003388c0.03751,-0.059217 0.023301,-0.06152 -0.074307,-0.011654c-0.134974,0.068974 -0.163674,0.12426 -0.040919,0.079407c0.108407,-0.039704 0.14421,0.035098 0.086384,0.180631c-0.031115,0.078595 -0.078427,0.109897 -0.134974,0.089164c-0.048022,-0.01748 -0.070612,-0.057455 -0.050295,-0.088757c0.022305,-0.034284 0.009377,-0.040652 -0.032537,-0.01599c-0.038077,0.022495 -0.055837,0.053932 -0.039214,0.069787c0.016623,0.015853 0.000995,0.080491 -0.034668,0.143638c-0.087235,0.154342 -0.097181,0.368308 -0.021453,0.463976c0.046174,0.058134 0.044612,0.068296 -0.005542,0.039433c-0.122472,-0.069921 -0.191806,0.140657 -0.08482,0.2576c0.07175,0.078188 0.074307,0.09201 0.01023,0.055695c-0.130143,-0.073987 -0.23656,-0.07724 -0.209281,-0.006505c0.013497,0.034825 0.05328,0.05732 0.088515,0.049866c0.079705,-0.016938 0.08482,0.130358 0.006109,0.176702c-0.031684,0.018701 -0.044045,0.055017 -0.027422,0.080763c0.016623,0.025746 0.004262,0.062062 -0.02742,0.080762c-0.032537,0.019107 -0.057827,-0.0187 -0.057827,-0.086589c0,-0.066399 -0.017618,-0.103934 -0.03907,-0.083473c-0.061095,0.058269 -0.065924,0.272235 -0.007957,0.341885c0.033388,0.039975 0.027564,0.077646 -0.01577,0.103258c-0.043334,0.02561 -0.053564,0.01748 -0.027847,-0.022224c0.022305,-0.03442 0.014918,-0.062605 -0.016339,-0.062605c-0.031258,0 -0.072603,0.024392 -0.091924,0.054204c-0.019323,0.029811 -0.006251,0.054203 0.028842,0.054203c0.04035,0 0.0493,0.045124 0.024295,0.121956l-0.039923,0.121957l0.107126,-0.110981c0.05882,-0.060979 0.08468,-0.079271 0.0574,-0.040652c-0.028273,0.039975 -0.028273,0.070735 0,0.071141c0.02728,0.000407 0.011224,0.023985 -0.035661,0.052307c-0.046887,0.028186 -0.085958,0.070463 -0.086668,0.093906c-0.002416,0.068838 -0.136964,0.265052 -0.138953,0.202583c-0.000995,-0.031301 0.030262,-0.089299 0.069334,-0.128732c0.0574,-0.057996 0.054558,-0.06694 -0.014208,-0.046343c-0.080416,0.02412 -0.104285,0.223181 -0.050153,0.41926c0.011934,0.043361 -0.008099,0.079949 -0.044614,0.081303c-0.143924,0.005285 -0.152307,0.096346 -0.018043,0.196621c0.077716,0.057863 0.099028,0.091198 0.047454,0.073853c-0.051432,-0.017345 -0.112953,-0.001627 -0.136538,0.034825c-0.029693,0.045802 -0.019322,0.052305 0.033815,0.021004c0.042197,-0.024934 0.017476,0.034147 -0.055126,0.131306c-0.105422,0.141335 -0.117357,0.189169 -0.059673,0.24012c0.056405,0.049595 0.062088,0.04675 0.026142,-0.013416c-0.034241,-0.057184 -0.021738,-0.068024 0.048449,-0.042414c0.056264,0.020597 0.094908,0.007859 0.095477,-0.031437c0.000568,-0.042414 0.019749,-0.037535 0.053705,0.013686c0.029126,0.043904 0.071749,0.061791 0.094908,0.039838c0.023016,-0.022088 0.01165,-0.068838 -0.025432,-0.104205c-0.036941,-0.035232 -0.065214,-0.101902 -0.062657,-0.148109c0.0027,-0.051087 0.015203,-0.058676 0.031968,-0.019243c0.036799,0.085912 0.190811,0.026424 0.190811,-0.073715c0,-0.043362 0.022732,-0.065315 0.050438,-0.049055c0.059247,0.034961 0.233719,-0.442973 0.233719,-0.640136c0,-0.074529 0.025574,-0.150685 0.056831,-0.169113c0.031257,-0.018429 0.056831,-0.10529 0.056831,-0.192962c0,-0.087674 0.025574,-0.159358 0.056831,-0.159358c0.031257,0 0.056831,-0.083879 0.056831,-0.186457c0,-0.10258 0.025574,-0.201635 0.056831,-0.220064c0.031258,-0.018429 0.056831,-0.10529 0.056831,-0.192962c0,-0.087674 0.029837,-0.159356 0.066351,-0.159356c0.036372,0 0.052142,-0.013416 0.034951,-0.029812c-0.017192,-0.016531 0.016765,-0.150685 0.075585,-0.298116c0.058678,-0.147567 0.094624,-0.268305 0.079564,-0.268305c-0.014918,0 0.023869,-0.086725 0.086384,-0.192827c0.062372,-0.105966 0.120908,-0.23402 0.130001,-0.284565c0.009093,-0.050408 0.060526,-0.171009 0.114231,-0.267898c0.053847,-0.096887 0.083542,-0.176159 0.066066,-0.176159c-0.033531,0 0.228177,-0.468178 0.325358,-0.582005c0.0314,-0.036857 0.041772,-0.105154 0.023018,-0.151904c-0.019607,-0.048783 -0.01023,-0.070734 0.022163,-0.051627c0.051149,0.030218 0.076438,-0.037535 0.041914,-0.112607c-0.007815,-0.017073 0.030546,-0.054879 0.085246,-0.084013c0.0547,-0.029134 0.099456,-0.088486 0.099456,-0.131714c0,-0.043226 0.027136,-0.078593 0.060241,-0.078593c0.033104,0 0.045465,-0.022765 0.027422,-0.050409c-0.017903,-0.027779 -0.006251,-0.065992 0.026,-0.085098c0.082547,-0.048648 0.233008,-0.408148 0.195215,-0.466416c-0.017332,-0.026695 0.004831,-0.048512 0.04916,-0.048512c0.044328,0 0.173904,-0.134152 0.287992,-0.298116c0.114231,-0.163964 0.196495,-0.298117 0.182998,-0.298117c-0.013497,0 0.043759,-0.07087 0.127301,-0.157459c0.285008,-0.295542 0.415579,-0.491079 0.373808,-0.560052c-0.022591,-0.037671 -0.022591,-0.052576 0.000284,-0.033064c0.045891,0.039297 0.48818,-0.395681 0.48818,-0.480238c0,-0.02927 0.051149,-0.097431 0.113662,-0.151362c0.062515,-0.053932 0.113664,-0.1309 0.113664,-0.171009c0,-0.040111 0.038361,-0.072904 0.085246,-0.072904c0.046887,0 0.085247,-0.036587 0.085247,-0.081303c0,-0.044718 0.023443,-0.081305 0.052,-0.081305c0.028558,0 0.142789,-0.118028 0.253895,-0.262342c0.110962,-0.144181 0.362583,-0.426578 0.558936,-0.627265c0.430638,-0.440398 0.575701,-0.938524 0.175466,-0.602737m-4.19017,5.32273c-0.016055,0.039704 -0.007531,0.072226 0.019038,0.072226c0.026427,0 0.076296,-0.032522 0.110964,-0.072226c0.047454,-0.05461 0.042765,-0.072361 -0.019039,-0.072361c-0.045038,0 -0.09505,0.032522 -0.110962,0.072361m-0.397961,1.318893c0,0.059623 -0.020176,0.108405 -0.044755,0.108405c-0.024578,0 -0.044612,-0.048783 -0.044612,-0.108405c0,-0.059623 0.020034,-0.108405 0.044612,-0.108405c0.02458,0 0.044755,0.048783 0.044755,0.108405m-0.956044,3.018562c-0.058678,0.014635 -0.099456,0.07629 -0.099456,0.150548c0,0.069516 0.044328,0.142147 0.099456,0.162474c0.089935,0.0332 0.090788,0.042821 0.009235,0.100682c-0.049585,0.035096 -0.090077,0.110303 -0.089935,0.166945c0.000142,0.094448 0.009092,0.092687 0.104427,-0.019514c0.117924,-0.13903 0.129291,-0.197841 0.047312,-0.246216c-0.031257,-0.018429 -0.056831,-0.057862 -0.056831,-0.087674c0,-0.029811 0.025574,-0.039162 0.056831,-0.020732c0.031257,0.018429 0.056831,-0.005963 0.056831,-0.054203c0,-0.055695 0.025858,-0.072904 0.071039,-0.047021c0.048307,0.027644 0.046032,0.011382 -0.006962,-0.050951c-0.042908,-0.050409 -0.081269,-0.088893 -0.085247,-0.085505c-0.003978,0.003523 -0.052,0.01748 -0.1067,0.031166m-0.016055,0.670084c-0.020885,0.032251 -0.069618,0.047156 -0.108122,0.033064c-0.038503,-0.014093 -0.070043,0.007588 -0.070043,0.048241c0,0.040516 0.021311,0.061113 0.047454,0.045802c0.026,-0.015448 0.047311,-0.004201 0.047311,0.024932c0,0.029134 -0.031968,0.064096 -0.071038,0.077782c-0.054985,0.019241 -0.053138,0.0416 0.008382,0.099327c0.067345,0.063282 0.07246,0.063011 0.033813,-0.001627c-0.030546,-0.050951 -0.023869,-0.063282 0.019892,-0.037535c0.047596,0.028051 0.039781,0.085642 -0.028416,0.211663c-0.087378,0.160982 -0.087235,0.167894 0.000142,0.098649c0.080558,-0.063689 0.094055,-0.062469 0.094055,0.009079c0,0.045802 -0.023584,0.091467 -0.052426,0.101495c-0.028842,0.009893 -0.067204,0.177109 -0.085531,0.371561c-0.018187,0.194318 -0.054558,0.426035 -0.080843,0.514928c-0.026426,0.088757 -0.02742,0.342291 -0.002273,0.563304c0.025149,0.221148 0.027564,0.428474 0.005542,0.460726c-0.041346,0.060435 -0.104712,2.897553 -0.153303,6.86128c-0.015061,1.237182 -0.052143,2.346987 -0.082122,2.466233c-0.03012,0.119247 -0.056404,0.997334 -0.058678,1.951306c-0.002131,0.953972 -0.028557,1.893039 -0.058535,2.086814c-0.082264,0.53024 -0.072318,2.223946 0.014065,2.398481c0.092351,0.186728 0.313141,0.253941 1.136625,0.346086c0.148472,0.016667 0.270091,0.058403 0.270233,0.092822c0.000285,0.044582 0.263839,0.062334 0.923509,0.061791c1.101816,-0.000676 2.388618,0.047563 4.162606,0.156105c3.525386,0.215728 13.330059,0.205429 18.754321,-0.019648c1.180528,-0.049053 1.614434,-0.078729 3.32463,-0.228194c0.810414,-0.070735 1.840054,-0.08686 2.21642,-0.034689c0.149039,0.020597 0.285435,0.012195 0.32678,-0.020191c0.039072,-0.030625 0.071039,-0.037535 0.071039,-0.015312c0,0.022222 0.034666,0.013009 0.076864,-0.020462c0.045181,-0.035774 0.321096,-0.06274 0.666774,-0.06545l0.589767,-0.004608l0.182854,-0.179547l0.182854,-0.179548l-0.001278,-0.965219c-0.000711,-0.530782 -0.024296,-1.006141 -0.052427,-1.056143c-0.027989,-0.050002 -0.064503,-1.161027 -0.081127,-2.468674c-0.016481,-1.307782 -0.055695,-3.414379 -0.087235,-4.681373c-0.0314,-1.266994 -0.070328,-3.204342 -0.086526,-4.305205c-0.017901,-1.218753 -0.051716,-2.027189 -0.086526,-2.067164c-0.038645,-0.044447 -0.035235,-0.111523 0.010655,-0.207326c0.052427,-0.109897 0.051716,-0.242964 -0.003268,-0.595419l-0.070754,-0.453815l-0.918678,-0.062198c-0.50523,-0.034147 -1.084909,-0.075205 -1.288081,-0.091196c-3.878735,-0.305704 -20.714432,-0.379692 -27.051688,-0.118975c-2.575309,0.105966 -2.663113,0.099327 -2.66837,-0.202041c-0.000569,-0.029812 0.017901,-0.025882 0.041061,0.008672c0.023016,0.034689 0.04177,-0.142147 0.041628,-0.392836c0,-0.250689 0.016339,-0.455847 0.036372,-0.455847c0.020176,-0.000135 0.051007,-0.035909 0.068624,-0.079678c0.038361,-0.095532 -0.052711,-0.163964 -0.106985,-0.08022m20.120118,2.168795c7.318022,0.075614 11.124722,0.208817 11.321217,0.396088c0.024153,0.023172 -0.262703,0.028051 -0.637505,0.010842c-1.936526,-0.088893 -3.682383,-0.144181 -6.279288,-0.199062c-3.456336,-0.072902 -18.187571,-0.093636 -21.055988,-0.029676c-1.125259,0.025205 -2.02575,0.026153 -2.001171,0.002304c0.174188,-0.169249 10.276942,-0.266949 18.652735,-0.180497m-14.751695,6.237405c0.781147,0.237951 1.211643,0.63702 1.541123,1.428789c0.325644,0.782826 0.037224,2.006321 -0.618892,2.625591c-1.253415,1.182844 -2.964178,0.132527 -2.964178,-1.819728c0,-1.38719 1.050243,-2.536563 2.041948,-2.234652m12.70577,0.108947c1.959826,0.654907 2.361622,2.892676 0.729713,4.064544c-2.054592,1.475674 -4.914484,-0.628348 -3.802012,-2.797143c0.527252,-1.027688 1.98739,-1.630018 3.072299,-1.267401m-5.258172,1.905911c0.205872,0.093636 0.236702,0.47563 0.048449,0.601246c-0.145204,0.097024 -3.409734,0.127107 -3.904451,0.035909c-0.530805,-0.0977 -0.492159,-0.659379 0.049585,-0.719543c0.425098,-0.047292 3.67599,0.023036 3.806417,0.082388m18.073625,8.43872c0.110253,0.067889 0.170493,0.067889 0.170493,0c0,-0.029811 -0.057541,-0.053796 -0.12787,-0.053389c-0.103433,0.000676 -0.111531,0.01084 -0.042623,0.053389m0.961728,1.000722c-0.002274,0.001085 -0.01293,0.044718 -0.023301,0.096887c-0.025005,0.124667 0.042765,0.120331 0.166942,-0.010569c0.086668,-0.091331 -0.00881,-0.148787 -0.143641,-0.086318m-31.854641,0.075478c0.030262,0.046614 0.354911,0.224672 0.409895,0.224672c0.009804,0 0.0027,-0.037671 -0.01577,-0.083608c-0.01847,-0.046073 -0.046459,-0.071413 -0.06223,-0.056371c-0.01577,0.015041 -0.104854,-0.010435 -0.198199,-0.056371c-0.093204,-0.045938 -0.153445,-0.05881 -0.133696,-0.028322m31.609556,0.093229c-0.020601,0.051087 -0.023585,0.105968 -0.006677,0.122093c0.016907,0.01599 0.060951,0.000406 0.098034,-0.034961c0.047596,-0.045395 0.049585,-0.080898 0.006535,-0.121957c-0.042908,-0.040923 -0.071465,-0.030759 -0.097892,0.034825m-30.69514,0.07724c-0.019323,0.029811 -0.086242,0.054203 -0.148756,0.054203c-0.062515,0 -0.097892,0.024391 -0.07857,0.054203c0.056547,0.087131 0.165947,0.06274 0.242529,-0.054203c0.03907,-0.059624 0.05953,-0.108407 0.045465,-0.108407c-0.014066,0 -0.041345,0.024392 -0.060668,0.054203m30.164621,0.054204c0.007955,0.101495 0.150034,0.149058 0.226757,0.076019c0.062655,-0.059759 -0.026143,-0.184426 -0.131281,-0.184426c-0.06905,0 -0.10116,0.036452 -0.095476,0.108407m-29.868957,0.03618c0.015914,0.039704 -0.005682,0.073987 -0.048022,0.076019c-0.101587,0.005015 0.121761,0.09594 0.247784,0.100818c0.064219,0.002439 0.086526,-0.024121 0.065072,-0.077511c-0.018043,-0.044717 -0.069903,-0.081303 -0.115224,-0.081303c-0.045466,0 -0.069477,-0.020326 -0.05328,-0.045124c0.016054,-0.024934 -0.005542,-0.04526 -0.048023,-0.04526c-0.042623,0 -0.064361,0.032521 -0.048307,0.072361m0.468717,0.055693c0.079422,0.156512 0.100023,0.166132 0.452092,0.210714c0.294671,0.037264 0.299075,0.035774 0.226331,-0.075343c-0.051149,-0.078188 -0.094908,-0.097022 -0.140942,-0.060435c-0.045607,0.036045 -0.077716,0.025475 -0.101301,-0.033335c-0.019181,-0.047428 -0.060951,-0.070735 -0.092919,-0.0519c-0.031968,0.018836 -0.043334,0.057049 -0.025432,0.084827c0.068624,0.105968 -0.160122,0.044582 -0.266396,-0.071548l-0.111816,-0.121956l0.060384,0.118975m29.130008,-0.039433c-0.018187,0.028186 -0.066635,0.039027 -0.107554,0.023985c-0.040776,-0.014906 -0.107126,0.010569 -0.147192,0.056642c-0.081127,0.09323 -0.001989,0.103258 0.290407,0.036723c0.12375,-0.028186 0.136964,-0.046343 0.074165,-0.101495c-0.045323,-0.039704 -0.090077,-0.046207 -0.109826,-0.015855m-0.948373,0.068567c0.055695,0.053119 0.031542,0.08022 -0.116504,0.131442l-0.186549,0.064503l0.170495,-0.002304c0.195783,-0.002574 0.558367,-0.08171 0.418988,-0.091467c-0.050864,-0.003523 -0.124319,-0.042955 -0.163247,-0.087674c-0.03893,-0.044717 -0.098319,-0.081303 -0.131991,-0.081303c-0.03893,0 -0.035804,0.024256 0.008808,0.066804m-26.214136,0.047699c0.021454,0.033064 0.003693,0.083472 -0.039355,0.111928c-0.055553,0.036723 -0.041346,0.041737 0.049016,0.017616c0.121761,-0.032657 0.388157,0.086318 0.326069,0.145671c-0.031968,0.030352 0.791944,0.099868 1.109489,0.093499c0.1094,-0.002168 0.1668,-0.01626 0.127587,-0.031437c-0.039357,-0.015042 -0.054274,-0.053932 -0.033389,-0.086183c0.025005,-0.038619 0.001847,-0.045531 -0.067487,-0.02019c-0.098887,0.03618 -0.099597,0.032386 -0.011508,-0.060437c0.088514,-0.093229 0.085957,-0.099734 -0.042483,-0.109896c-0.102864,-0.00813 -0.131564,0.012872 -0.11693,0.085233c0.013072,0.064503 -0.015912,0.09594 -0.088657,0.09594c-0.059531,0 -0.108122,-0.032793 -0.108122,-0.072904c0,-0.040109 0.025574,-0.057862 0.056831,-0.039431c0.031258,0.018429 0.056831,0.009079 0.056831,-0.020733c0,-0.089028 -0.123039,-0.133881 -0.169783,-0.061791c-0.030547,0.047427 -0.0547,0.04946 -0.08198,0.007318c-0.029126,-0.044989 -0.515459,-0.04946 -0.515459,-0.004744c0,0.05068 -0.274069,0.016126 -0.295523,-0.037128c-0.016055,-0.039975 -0.06635,-0.072631 -0.111673,-0.072631c-0.046176,0 -0.065357,0.026559 -0.043477,0.060301m24.348225,-0.002846c0,0.031573 -0.025574,0.042279 -0.056833,0.023849c-0.031257,-0.018429 -0.056831,0.004473 -0.056831,0.050951c0,0.04648 -0.039923,0.084557 -0.088657,0.084557c-0.048732,0 -0.072743,0.024392 -0.05342,0.054203c0.020601,0.031844 -0.039499,0.054203 -0.145346,0.054203c-0.155292,0 -0.176177,-0.015853 -0.149324,-0.113826c0.025289,-0.091874 0.010088,-0.108405 -0.078711,-0.086318c-0.065499,0.016397 -0.095477,0.005284 -0.074308,-0.027508c0.023301,-0.03591 -0.030973,-0.040923 -0.156143,-0.0145c-0.105422,0.022224 -0.267818,0.03862 -0.360595,0.036181c-0.092919,-0.002303 -0.198624,0.019243 -0.234996,0.04797c-0.044045,0.03496 -0.075728,0.028186 -0.095193,-0.020055c-0.031968,-0.079544 -0.416431,-0.062876 -0.470279,0.020326c-0.016765,0.025881 -0.081269,0.017074 -0.143357,-0.019514c-0.090788,-0.053661 -0.122045,-0.052305 -0.160691,0.006911c-0.026426,0.040382 -0.062514,0.051087 -0.080273,0.023714c-0.019181,-0.02954 -1.024952,-0.042548 -2.465058,-0.031844c-1.338092,0.009893 -4.555453,0.016667 -7.1498,0.015042c-2.594348,-0.001627 -5.075033,-0.000678 -5.512635,0.002167c-0.4376,0.002846 -0.833998,0.004337 -0.880885,0.003117c-0.215958,-0.005284 -0.560783,-0.000542 -0.77603,0.010435c-0.12986,0.006774 -0.227468,-0.00122 -0.216811,-0.017616c0.031115,-0.047834 -1.983555,-0.028863 -2.06184,0.019512c-0.041059,0.025341 -0.071039,0.019514 -0.071039,-0.01355c0,-0.031573 -0.065497,-0.057455 -0.145488,-0.057455c-0.099738,0 -0.132842,0.021275 -0.10528,0.067753c0.032109,0.054203 0.024864,0.054203 -0.036372,0c-0.127018,-0.112471 -0.299358,-0.085911 -0.264692,0.040789c0.016339,0.059623 0.006537,0.094719 -0.021738,0.078052c-0.028415,-0.016667 -0.051574,-0.06274 -0.051574,-0.102173c0,-0.039433 -0.055553,-0.08564 -0.123466,-0.102578c-0.136253,-0.034013 -0.21752,-0.004473 -0.21752,0.078729c0,0.029811 0.029978,0.036587 0.066492,0.015041c0.044754,-0.026288 0.054558,-0.009621 0.030262,0.050951c-0.024436,0.060708 -0.006961,0.090248 0.053138,0.090248c0.056262,0 0.077432,0.030219 0.056831,0.081305c-0.027564,0.068567 0.047312,0.081305 0.477099,0.081305c0.280319,0 0.509634,-0.020326 0.509634,-0.045124c0,-0.024934 0.038361,-0.04526 0.085246,-0.04526c0.046887,0 0.085247,0.032522 0.085247,0.072361c0,0.113149 0.844229,0.101631 0.889978,-0.012196c0.019323,-0.047834 0.070897,-0.07087 0.119062,-0.053254c0.046885,0.017074 0.119203,0.004201 0.160974,-0.028863c0.05953,-0.047156 0.070896,-0.03645 0.05342,0.050138c-0.016623,0.082659 0.000427,0.101902 0.068483,0.076968c0.060241,-0.022088 0.076864,-0.011925 0.049585,0.030218c-0.030689,0.047428 0.18257,0.063418 0.843091,0.063418c0.55169,0 0.884295,-0.020326 0.884295,-0.054203c0,-0.029812 0.039924,-0.054203 0.088657,-0.054203c0.048732,0 0.072745,-0.024392 0.053422,-0.054203c-0.019323,-0.029812 -0.008526,-0.054204 0.024011,-0.054204c0.032537,0 0.07516,0.060979 0.094766,0.135508l0.035662,0.135508l0.842239,0c0.595876,0 0.86412,-0.019784 0.917258,-0.067753c0.041345,-0.037264 0.177456,-0.066535 0.302484,-0.065044c1.09457,0.012738 1.449197,0.031439 1.449197,0.076292c0,0.028591 -0.198199,0.060301 -0.440442,0.070463c-0.242243,0.010164 0.978918,0.018294 2.713693,0.018158c1.734776,-0.000135 2.930364,-0.008401 2.656863,-0.018293c-0.704993,-0.025612 -0.626424,-0.122228 0.099454,-0.122228c0.330048,0 0.596729,-0.022495 0.596729,-0.050409c0,-0.03103 0.07047,-0.031166 0.183422,-0.000271c0.100876,0.027644 0.228746,0.036452 0.284299,0.019648c0.055553,-0.016802 0.141084,0.007725 0.1901,0.054474c0.150461,0.143503 1.842754,0.124938 1.842754,-0.02019c0,-0.057862 0.025574,-0.120331 0.056831,-0.138759c0.031258,-0.018429 0.056831,0.016667 0.056831,0.078052c0,0.108407 0.028416,0.111659 0.994548,0.111659c0.60369,0 0.994547,-0.020597 0.994547,-0.052441c0,-0.029 -0.038361,-0.038484 -0.085246,-0.02141c-0.046887,0.017209 -0.085247,0.004201 -0.085247,-0.028729c0,-0.033064 0.031968,-0.060435 0.071039,-0.060842c0.048307,-0.000542 0.043759,-0.019514 -0.014208,-0.059352c-0.068055,-0.046614 -0.06223,-0.050138 0.028416,-0.01748c0.062514,0.022493 0.182143,0.042007 0.265969,0.043497c0.083827,0.001356 0.147762,0.027915 0.142079,0.059081c-0.005968,0.0332 0.147477,0.063011 0.373381,0.072361c0.325644,0.013686 0.383611,0.002575 0.383611,-0.07358c0,-0.052305 -0.031399,-0.078052 -0.075727,-0.061791c-0.041772,0.015313 -0.07587,-0.006504 -0.07587,-0.048376c0,-0.09865 0.065072,-0.096753 0.171915,0.005149c0.046885,0.044717 0.110537,0.081303 0.141368,0.081303c0.030831,0 0.064646,0.018294 0.07516,0.040652c0.010372,0.022358 0.236276,0.026424 0.501963,0.009215c0.265685,-0.017345 0.393556,-0.037264 0.284156,-0.044175c-0.179445,-0.011383 -0.186407,-0.017345 -0.071039,-0.06152c0.070328,-0.026966 0.12787,-0.063554 0.12787,-0.08117c0,-0.017615 -0.029551,-0.014634 -0.065639,0.006641c-0.040635,0.023985 -0.050154,0.014905 -0.025007,-0.023985c0.029695,-0.045802 0.071608,-0.047021 0.155434,-0.004201c0.062941,0.032115 0.152592,0.044581 0.199052,0.027642c0.046318,-0.017073 0.158133,0.005422 0.248353,0.050002c0.208145,0.10258 0.567602,0.108136 0.567602,0.008673c0,-0.03984 0.038362,-0.072361 0.085247,-0.072361c0.046887,0 0.085247,0.020326 0.085247,0.045259c0,0.024799 0.14705,0.045124 0.32678,0.044989l0.32678,-0.000136l0.014207,-0.189574c0.007815,-0.104205 0.001422,-0.189576 -0.014207,-0.189576c-0.01563,0 -0.028416,0.025882 -0.028416,0.057456m0.590051,-0.013823c-0.210702,0.131985 -0.128438,0.295407 0.131707,0.261395c0.143072,-0.0187 0.365425,-0.036859 0.493864,-0.040245c0.128438,-0.003524 0.188822,-0.017481 0.134122,-0.031168c-0.10528,-0.026152 -0.138953,-0.125208 -0.042624,-0.125208c0.031258,0 0.056833,-0.024392 0.056833,-0.054203c0,-0.09716 -0.104996,-0.057049 -0.142079,0.054203c-0.043619,0.131171 -0.155576,0.137945 -0.342977,0.020868c-0.117924,-0.073716 -0.140089,-0.075072 -0.140089,-0.009079c0,0.043226 -0.037934,0.078593 -0.084393,0.078593c-0.064504,0 -0.069335,-0.017209 -0.020318,-0.07358c0.073596,-0.084691 0.045181,-0.137404 -0.044045,-0.081576m-25.895313,0.123041c0.019465,0.071006 0.078427,0.104341 0.18456,0.104341c0.085673,0 0.268102,0.014635 0.405349,0.032657c0.238549,0.031166 0.249489,0.02656 0.249489,-0.105832c0,-0.131035 -0.00682,-0.134152 -0.12787,-0.058403c-0.07047,0.04404 -0.12787,0.055017 -0.12787,0.024392c0,-0.071413 -0.209565,-0.072362 -0.255741,-0.00122c-0.019323,0.029811 -0.086242,0.054203 -0.148756,0.054203c-0.062515,0 -0.099597,-0.021817 -0.082264,-0.048512c0.017334,-0.026695 -0.003837,-0.06152 -0.047028,-0.077239c-0.054984,-0.020191 -0.069903,0.002574 -0.049869,0.075612m24.921651,-0.072902c-0.039072,0.013009 -0.070614,0.064365 -0.070187,0.113962c0.000568,0.058267 0.01577,0.068566 0.042623,0.028863c0.023016,-0.033742 0.092919,-0.071142 0.155434,-0.082931c0.08752,-0.016397 0.094055,-0.028456 0.028415,-0.052441c-0.046885,-0.017073 -0.117214,-0.020461 -0.156285,-0.007452m0.497273,0.006911c0,0.055693 0.172199,0.132661 0.211981,0.094719c0.013781,-0.013279 -0.028274,-0.051222 -0.093488,-0.084557c-0.065214,-0.033199 -0.118493,-0.037806 -0.118493,-0.010162m-23.610269,0.165591c-0.021028,0.032386 -0.119915,0.057048 -0.219653,0.054608c-0.099739,-0.002303 -0.149183,-0.016531 -0.109969,-0.031708c0.039355,-0.015041 0.057258,-0.04946 0.039783,-0.076426c-0.017476,-0.02683 0.005399,-0.035367 0.050722,-0.0187c0.045323,0.016531 0.100734,0.002032 0.123039,-0.032522c0.026995,-0.041736 0.059531,-0.044446 0.097324,-0.008401c0.031257,0.029811 0.039639,0.080762 0.018754,0.113148m0.820928,-0.103662c0.056831,0.03496 0.061519,0.052847 0.014208,0.053389c-0.120483,0.001356 -0.078285,0.085642 0.047454,0.09472c0.084678,0.005962 0.109115,-0.015177 0.085246,-0.074258c-0.018328,-0.045531 -0.033246,-0.092959 -0.033246,-0.105425c0,-0.012467 -0.044754,-0.022224 -0.099454,-0.021817c-0.084964,0.000676 -0.087095,0.008536 -0.014208,0.053389m1.101674,0.186324c-0.020176,0.050273 -0.125028,0.073444 -0.324222,0.071548l-0.294387,-0.002711l0.269949,-0.052169c0.148472,-0.028593 0.269949,-0.075343 0.269949,-0.103663c0,-0.028322 0.024438,-0.03713 0.054416,-0.019514c0.029837,0.017616 0.040776,0.065586 0.024295,0.106509m19.300754,0.016938c0,0.092551 -0.207718,0.086182 -0.245511,-0.007588c-0.02117,-0.052578 0.011366,-0.073038 0.107553,-0.067755c0.07587,0.004201 0.137958,0.038079 0.137958,0.075343m-17.12923,0.021951c0.027564,0.042414 0.014918,0.047834 -0.039214,0.016667c-0.068055,-0.039026 -0.068339,-0.03225 -0.001847,0.045802c0.066777,0.078459 0.065641,0.091738 -0.00753,0.091738c-0.04717,0 -0.099028,-0.048783 -0.115368,-0.108405c-0.032537,-0.118569 0.093914,-0.153936 0.163958,-0.045802m14.887378,-0.013009c-0.017618,0.027237 0,0.060437 0.039355,0.073851c0.112953,0.038484 0.009378,0.103934 -0.133269,0.084151c-0.123323,-0.017074 -0.124603,-0.022224 -0.029268,-0.112742c0.106842,-0.101495 0.176035,-0.126836 0.123181,-0.04526m-0.514465,0.113013c0.02117,0.032793 -0.056262,0.054203 -0.195499,0.054203c-0.126876,0 -0.230735,-0.024391 -0.230735,-0.054203c0,-0.029811 0.087946,-0.054203 0.1955,-0.054203c0.107553,0 0.211412,0.024392 0.230734,0.054203m-11.735658,0.087674c0,0.011382 -0.063935,0.020732 -0.142079,0.020732c-0.078143,0 -0.142079,-0.021003 -0.142079,-0.046749c0,-0.025612 0.063935,-0.034961 0.142079,-0.020733c0.078143,0.014228 0.142079,0.035232 0.142079,0.04675m4.81645,0.00542c0.742359,-0.010435 1.392935,-0.029676 1.44593,-0.04255c0.052853,-0.012872 0.097608,0.000949 0.099456,0.030761c0.005541,0.09106 -3.078266,0.072361 -3.110092,-0.018836c-0.020318,-0.058269 -0.001136,-0.060572 0.094624,-0.011653c0.082973,0.042278 0.538334,0.055422 1.470082,0.042278m0.284157,-0.055693c-0.0547,0.01355 -0.14421,0.01355 -0.19891,0c-0.0547,-0.013686 -0.009946,-0.024798 0.099454,-0.024798c0.1094,0 0.154156,0.011111 0.099456,0.024798m0.625855,-0.000136c-0.054416,0.013552 -0.156712,0.014093 -0.227326,0.001085c-0.070754,-0.013009 -0.026284,-0.024121 0.098745,-0.024663c0.125028,-0.000678 0.182854,0.010028 0.128581,0.023578m4.105348,0.016938c0,0.029812 -0.095903,0.050951 -0.213116,0.047021l-0.213118,-0.007047l0.19891,-0.039975c0.1094,-0.021951 0.205303,-0.04309 0.213118,-0.04702c0.007813,-0.00393 0.014207,0.017209 0.014207,0.04702" fill="#f3f3f2" fill-rule="evenodd"/>
   <path stroke="null" id="path3" d="m13.195382,19.065322c-2.804055,0.016126 -5.116378,0.046614 -5.138541,0.067753c-0.022165,0.021139 3.116058,0.038755 6.973624,0.039026c6.442534,0.000543 15.140988,0.072904 15.822821,0.131714c0.575559,0.049595 4.147262,0.096753 4.104923,0.054203c-0.104853,-0.105561 -5.097338,-0.23619 -10.271116,-0.268847c-2.328662,-0.01477 -4.719838,-0.032657 -5.313724,-0.039975c-0.593887,-0.007181 -3.373931,0 -6.177987,0.016126m-6.962116,0.200551c0.180866,0.01084 0.462182,0.010706 0.625145,-0.000271c0.162964,-0.01084 0.014918,-0.019648 -0.328911,-0.019514c-0.34383,0.000136 -0.477099,0.008944 -0.296233,0.019784m29.124608,0.21505c0.070614,0.01301 0.17291,0.012467 0.227324,-0.001083c0.054274,-0.01355 -0.003551,-0.024256 -0.12858,-0.023578c-0.125028,0.000542 -0.1695,0.011653 -0.098745,0.024661m-26.389035,5.835626c-2.067664,0.724422 -1.707638,4.505891 0.429076,4.505891c0.852043,0 1.651233,-0.740413 1.829683,-1.695197c0.130429,-0.698541 0.131423,-0.682009 -0.081553,-1.394371c-0.285577,-0.955328 -1.408422,-1.685711 -2.177206,-1.416322m12.27996,0.016938c-1.83295,0.253263 -2.813574,2.158496 -1.828688,3.553409c1.430585,2.026106 4.786046,0.971723 4.627345,-1.45413c-0.085247,-1.304935 -1.401601,-2.292241 -2.798657,-2.099279m-11.268363,0.19906c0.33431,0.142147 0.827179,0.603144 0.9667,0.903833c0.215675,0.465468 0.241107,0.583766 0.23855,1.109535c-0.010372,2.074347 -2.167403,2.990647 -3.118191,1.324584c-0.998951,-1.750483 0.303053,-4.022672 1.912941,-3.337953m12.271294,-0.050002c1.761769,0.509914 2.262453,2.509326 0.929475,3.711682c-1.892765,1.707257 -4.884364,-0.233751 -3.81011,-2.471925c0.45195,-0.94137 1.843038,-1.540177 2.880635,-1.239757m-9.291487,1.86431c-0.130145,0.137269 -0.119346,0.404354 0.021311,0.525769c0.14975,0.129139 3.728559,0.20028 4.032748,0.080085c0.278899,-0.110303 0.315129,-0.510999 0.057399,-0.634988c-0.257588,-0.123853 -3.991402,-0.097294 -4.111458,0.029134m4.100092,0.074393c0.095619,0.091198 0.08482,0.290664 -0.021169,0.391753c-0.077574,0.074122 -0.323654,0.084557 -1.889641,0.079813c-2.162571,-0.006504 -2.246113,-0.021681 -2.148506,-0.3927l0.037793,-0.143909l1.976733,0c1.46156,0 1.994352,0.016938 2.04479,0.065044m15.810462,8.228277c-0.093204,0.0332 0.111815,0.039975 0.596728,0.019514c0.74719,-0.031437 0.921662,0.017887 0.33289,0.094043c-0.251337,0.032521 -0.353917,0.07629 -0.474399,0.202176c-0.398956,0.41655 -2.028451,0.547721 -2.548031,0.205158c-0.382475,-0.252178 -0.329621,-0.284293 0.54416,-0.330231c0.429787,-0.022495 0.909301,-0.061249 1.065586,-0.086047c0.349938,-0.055558 -0.609657,-0.019648 -1.506028,0.056371c-3.714918,0.31519 -14.626524,0.389719 -20.999157,0.143367c-0.281315,-0.01084 -0.390004,-0.00935 -0.241533,0.003252c0.38901,0.0332 0.343971,0.161796 -0.100734,0.287683c-0.361162,0.102173 -2.036264,-0.007725 -2.236168,-0.146755c-0.082264,-0.057048 -0.200615,-0.122905 -0.263129,-0.146212l-0.113662,-0.042414l0.113662,-0.038484c0.062514,-0.021139 0.369403,-0.021139 0.681975,0c0.312572,0.021139 0.760118,0.037806 0.994547,0.037128l0.426236,-0.001354l-0.312572,-0.043633c-0.531799,-0.074123 -3.581934,-0.110032 -3.836112,-0.044989c-0.125028,0.031844 -0.310441,0.070599 -0.412027,0.086047c-0.101585,0.015448 -0.184702,0.051087 -0.184702,0.079407c0,0.028322 -0.023585,0.037671 -0.052284,0.020733c-0.089368,-0.052712 -0.288703,0.246623 -0.288703,0.433353c0,0.170062 0.252899,0.458286 0.402223,0.458286c0.116219,0 0.13952,0.01084 0.183138,0.085098c0.052427,0.089435 0.435896,0.105966 0.539898,0.023307c0.049585,-0.039433 0.052711,-0.036452 0.011366,0.01084c-0.096472,0.110439 -0.063935,0.151768 0.119772,0.151768c0.12375,0 0.167795,-0.021546 0.147477,-0.072224c-0.016055,-0.03984 0.005682,-0.072362 0.048307,-0.072362c0.042481,0 0.064077,0.020326 0.048022,0.04526c-0.016196,0.024798 0.007815,0.045124 0.05328,0.045124c0.045323,0 0.097181,0.036588 0.115226,0.081305c0.017901,0.044717 0.085531,0.081305 0.150176,0.081305c0.102154,0 0.1094,-0.015719 0.055269,-0.121957l-0.061946,-0.121957l0.111815,0.121957c0.102012,0.111386 0.336299,0.179412 0.271085,0.078729c-0.015345,-0.023849 -0.00412,-0.078729 0.025005,-0.121956c0.04305,-0.063689 0.059957,-0.055017 0.088799,0.045395c0.033247,0.11613 0.042341,0.118297 0.138527,0.035367c0.062799,-0.054339 0.131849,-0.071548 0.177456,-0.044311c0.041061,0.024527 0.100165,0.046616 0.131422,0.049053c0.119772,0.009622 0.253752,0.09323 0.223631,0.139573c-0.017334,0.026695 0.020318,0.048512 0.083542,0.048512c0.063366,0 0.145062,-0.05339 0.181718,-0.118705c0.065641,-0.116943 0.067914,-0.117214 0.160265,-0.01355c0.122756,0.137811 0.238549,0.1599 0.192231,0.036723c-0.019465,-0.051764 -0.015203,-0.076697 0.009519,-0.055422c0.024722,0.021275 0.09363,0.013821 0.153303,-0.016533c0.118777,-0.060706 0.372245,-0.010433 0.294385,0.058405c-0.026569,0.023442 -0.112242,0.059216 -0.190384,0.079407c-0.105138,0.027237 -0.120341,0.022495 -0.058537,-0.018023c0.103574,-0.067889 0.056405,-0.126429 -0.050864,-0.063282c-0.152025,0.089706 -0.021881,0.212883 0.221641,0.20963c0.197915,-0.002574 0.217949,-0.012872 0.136538,-0.069651c-0.102438,-0.071548 -0.016481,-0.174397 0.092208,-0.110303c0.031258,0.018429 0.056831,0.009757 0.056831,-0.019377c0,-0.029134 -0.031968,-0.065586 -0.071039,-0.081034c-0.03907,-0.015583 -0.007103,-0.019377 0.071039,-0.008536c0.078143,0.010704 0.142079,0.022765 0.142079,0.026559c0,0.003795 0.108691,0.013416 0.241533,0.021139c0.132843,0.007725 0.241534,-0.000406 0.241534,-0.018293c0,-0.017887 0.070328,-0.027509 0.156285,-0.021546c0.085957,0.006098 0.156287,0.01599 0.156287,0.022222c0,0.006234 0.319676,0.01965 0.71039,0.029948c0.850197,0.022358 0.804163,0.02141 1.190047,0.025203c0.17021,0.001627 0.333884,0.017481 0.364004,0.035232c0.032395,0.019107 0.035946,0.003252 0.00881,-0.038619c-0.031968,-0.04946 -0.023869,-0.057998 0.026711,-0.028051c0.040065,0.023578 0.25503,0.040245 0.477667,0.03713c0.222779,-0.003117 0.788533,-0.003659 1.257392,-0.001085c0.468859,0.002439 3.190934,0.003253 6.048978,0.001761c3.477791,-0.001761 5.23274,0.015855 5.306337,0.05339c0.061377,0.031303 0.095192,0.033335 0.07658,0.004608c-0.020885,-0.032251 0.887563,-0.055288 2.422575,-0.061384c1.35088,-0.005556 2.705169,-0.016262 3.0095,-0.02385c0.304331,-0.007723 0.560072,0.004201 0.568313,0.026424c0.008241,0.022224 0.117215,0.015448 0.242243,-0.015041c0.298649,-0.073038 0.711244,-0.09323 0.672172,-0.032929c-0.01705,0.026153 0.060099,0.033742 0.171346,0.01694c0.111106,-0.016804 0.217664,-0.006641 0.236703,0.022764c0.019038,0.029405 -0.015772,0.053526 -0.077576,0.053526c-0.061804,0 -0.12517,0.030489 -0.140941,0.067753c-0.022023,0.052171 -0.029695,0.051358 -0.033104,-0.003252c-0.002558,-0.039026 -0.030122,-0.055829 -0.061378,-0.037401c-0.11281,0.066535 -0.05328,0.135508 0.117073,0.135508c0.101301,0 0.159127,-0.022629 0.138668,-0.054203c-0.019323,-0.029812 0.006535,-0.054203 0.057258,-0.054203c0.066634,0 0.082404,-0.030354 0.056404,-0.108405c-0.020743,-0.062198 -0.01023,-0.108407 0.02458,-0.108407c0.033388,0 0.061093,0.03049 0.06152,0.067755c0.000568,0.047021 0.016623,0.043904 0.052569,-0.010028c0.044754,-0.067618 0.064788,-0.067618 0.152023,0c0.055269,0.042821 0.082264,0.048646 0.059815,0.013143c-0.071749,-0.114096 0.506936,-0.076968 0.666488,0.042686c0.141937,0.106508 0.318539,0.138216 0.318539,0.057318c0,-0.050137 0.195926,-0.27928 0.238692,-0.27928c0.014634,0 0.026569,0.036587 0.026569,0.081305c0,0.044717 -0.011651,0.070328 -0.025716,0.056777c-0.027989,-0.026695 -0.182714,0.105697 -0.182714,0.156105c0,0.052848 0.302627,0.026153 0.508356,-0.044717c0.121335,-0.041736 0.170353,-0.082388 0.129007,-0.10678c-0.036655,-0.021546 -0.114088,-0.015041 -0.172055,0.014499c-0.07928,0.040518 -0.105423,0.034961 -0.105423,-0.022222c0,-0.041737 0.019607,-0.064501 0.043477,-0.050409c0.023869,0.014093 0.05953,0.000813 0.07928,-0.029676c0.023869,-0.036857 0.070754,-0.037264 0.141368,-0.00122c0.075301,0.038484 0.114657,0.034554 0.136962,-0.013416c0.017192,-0.036994 0.025716,-0.018563 0.018755,0.041059c-0.01705,0.147567 0.374234,0.186457 0.529383,0.052441c0.057542,-0.049597 0.12986,-0.075207 0.160974,-0.056913c0.031115,0.018293 0.074307,0.005962 0.095903,-0.027509c0.028416,-0.043904 0.051716,-0.042007 0.083542,0.007047c0.06152,0.094991 0.232156,0.022088 0.190385,-0.08144c-0.023585,-0.058676 0.001847,-0.083337 0.086241,-0.083337c0.065924,0 0.119772,0.024391 0.119772,0.054203c0,0.107322 0.275491,0.057184 0.313566,-0.057049c0.029553,-0.088893 0.053138,-0.098378 0.117499,-0.047563c0.044187,0.034961 0.083684,0.048512 0.08752,0.029947c0.003978,-0.018563 0.011508,-0.06423 0.016766,-0.101495c0.005399,-0.037264 0.03907,-0.062062 0.075016,-0.055151c0.077432,0.014771 0.281315,-0.253941 0.266539,-0.35137c-0.005542,-0.037264 -0.013355,-0.088352 -0.017334,-0.113691c-0.010799,-0.070058 -0.192233,-0.244184 -0.332748,-0.319256c-0.441721,-0.236459 -2.787574,-0.485251 -3.197896,-0.339174m-15.893291,1.053976c0.037508,0.093092 -0.453514,0.341071 -0.773048,0.390532c-0.317829,0.04919 -0.951355,-0.195537 -0.951355,-0.367496c0,-0.024392 0.338856,-0.0519 0.753014,-0.061115c0.414157,-0.009214 0.79507,-0.022222 0.846359,-0.028727c0.051432,-0.006504 0.107696,0.023578 0.12503,0.066806m-10.419589,0.506797c0,0.0851 0.138527,0.17345 0.271796,0.17345c0.083826,0 0.126023,-0.025882 0.110537,-0.067753c-0.013923,-0.037942 -0.093345,-0.060573 -0.180297,-0.051358c-0.09775,0.010299 -0.141793,-0.004878 -0.118635,-0.040652c0.020318,-0.031437 0.009946,-0.057049 -0.023158,-0.057049c-0.033104,0 -0.060242,0.019514 -0.060242,0.043362m25.994058,0.096346c0.035662,0.088486 -0.013639,0.097701 -0.134264,0.024934c-0.055268,-0.033335 -0.098601,-0.028456 -0.127018,0.014364c-0.080842,0.121279 -0.045323,0.14445 0.196493,0.129003c0.254462,-0.01626 0.363721,-0.199331 0.137674,-0.230904c-0.069761,-0.009757 -0.09363,0.01084 -0.072887,0.062604m-23.919006,0.021817c-0.022305,0.034554 -0.077716,0.049055 -0.123039,0.032522c-0.045323,-0.016667 -0.068197,-0.00813 -0.050722,0.0187c0.017476,0.026966 -0.000427,0.059353 -0.039783,0.071955c-0.039214,0.012602 0.011366,0.025205 0.112384,0.028049c0.196495,0.005556 0.291545,-0.07087 0.198484,-0.159627c-0.037793,-0.036045 -0.070328,-0.033335 -0.097324,0.008401m0.482356,0.004337c0,0.031573 -0.025574,0.042279 -0.056831,0.023849c-0.031257,-0.018429 -0.056831,-0.000676 -0.056831,0.039433c0,0.040111 0.047312,0.072904 0.105138,0.072904c0.073028,0 0.097039,-0.029676 0.078569,-0.096889c-0.029126,-0.106508 -0.070045,-0.129544 -0.070045,-0.039297m21.831735,0.064501c-0.084678,0.080763 -0.39995,0.101495 -0.530805,0.034961c-0.062514,-0.031708 -0.110109,-0.026966 -0.136678,0.013957c-0.025149,0.038891 -0.015628,0.04797 0.025005,0.023985c0.036088,-0.021275 0.065641,-0.024256 0.065641,-0.00664c0,0.017616 -0.057542,0.053932 -0.12787,0.080627c-0.089651,0.034147 0.001846,0.0458 0.30703,0.039026c0.23926,-0.00542 0.408902,-0.025205 0.376792,-0.04404c-0.034099,-0.02019 -0.01435,-0.057725 0.047738,-0.090789c0.058109,-0.031032 0.091499,-0.070058 0.074023,-0.086725c-0.017476,-0.016667 -0.062799,-0.000678 -0.100876,0.035638m-21.202044,0.029541c-0.002558,0.038484 -0.036515,0.066128 -0.075587,0.061249c-0.039072,-0.004878 -0.122187,-0.005149 -0.184702,-0.000678c-0.208998,0.01477 0.037366,0.103798 0.269949,0.097429c0.194362,-0.005284 0.319392,-0.092687 0.132558,-0.092687c-0.044185,0 -0.093345,-0.030489 -0.109115,-0.067753c-0.022307,-0.052578 -0.029695,-0.052034 -0.033104,0.002439m0.592182,0.092145l-0.284157,0.06816l0.298365,0.00149c0.219084,0.001083 0.298364,-0.0187 0.298364,-0.074529c0,-0.041872 -0.006393,-0.073309 -0.014208,-0.069651c-0.007815,0.003523 -0.142079,0.036994 -0.298364,0.074529m18.816551,0.006504c-0.020176,0.050002 -0.008666,0.06667 0.029978,0.043904c0.034382,-0.020326 0.084964,-0.003252 0.112242,0.037808c0.039924,0.060165 0.049727,0.057318 0.050438,-0.014364c0.001136,-0.117484 -0.151172,-0.170604 -0.192658,-0.067347m0.591329,0.00542c0,0.038349 0.051149,0.069651 0.113664,0.069651c0.062514,0 0.113662,-0.031301 0.113662,-0.069651c0,-0.038348 -0.051149,-0.069785 -0.113662,-0.069785c-0.062515,0 -0.113664,0.031437 -0.113664,0.069785m-2.137707,0.0561c-0.095335,0.090518 -0.094057,0.095668 0.029268,0.112742c0.142646,0.019784 0.246222,-0.045666 0.133269,-0.08415c-0.039355,-0.013416 -0.056973,-0.046614 -0.039355,-0.073851c0.052853,-0.081576 -0.016339,-0.056236 -0.123181,0.045259m-15.610274,0.031303c-0.016907,0.042414 0.056547,0.06396 0.2215,0.064908c0.188254,0.001083 0.223631,-0.010976 0.148897,-0.050951c-0.14705,-0.078595 -0.341556,-0.085912 -0.370398,-0.013957m2.31829,-0.017751c0.019323,0.029811 -0.004688,0.054203 -0.053422,0.054203c-0.048732,0 -0.088657,0.018293 -0.088657,0.040652c0,0.022358 0.063935,0.040651 0.142079,0.040651c0.078143,0 0.142079,-0.004064 0.142079,-0.009079c0,-0.061113 -0.081411,-0.18063 -0.123039,-0.18063c-0.029837,0 -0.038362,0.024391 -0.019039,0.054203m13.79565,-0.013552c-0.150603,0.04797 -0.059957,0.097701 0.175183,0.096346c0.277337,-0.001625 0.343261,-0.108135 0.071181,-0.114638c-0.096472,-0.002304 -0.207292,0.005962 -0.246364,0.018293m-1.321185,0.067755c0,0.029811 0.10386,0.054203 0.230735,0.054203c0.139237,0 0.216669,-0.02141 0.195499,-0.054203c-0.019322,-0.029812 -0.123181,-0.054203 -0.230734,-0.054203c-0.107554,0 -0.1955,0.024391 -0.1955,0.054203m-11.593581,0.061655c0,0.025746 0.063935,0.04675 0.142079,0.04675c0.078143,0 0.142079,-0.00935 0.142079,-0.020733c0,-0.011518 -0.063935,-0.032521 -0.142079,-0.046749c-0.078143,-0.014228 -0.142079,-0.004878 -0.142079,0.020732m1.04186,0.019648c-0.03481,0.03591 0.250341,0.06003 0.845222,0.071413c0.609942,0.011789 0.897651,-0.00122 0.897651,-0.040652c0,-0.052848 -0.175183,-0.062605 -1.456018,-0.081576c-0.128865,-0.001897 -0.257872,0.021004 -0.286856,0.050815m4.143994,-0.043904c0.0547,0.013552 0.14421,0.013552 0.19891,0c0.0547,-0.013686 0.009945,-0.024798 -0.099456,-0.024798c-0.1094,0 -0.154154,0.011111 -0.099454,0.024798m1.297032,0.024934c-0.07587,0.027373 -0.759976,0.042821 -1.520237,0.034284c-0.760262,-0.008401 -1.38228,0.002981 -1.38228,0.025339c0,0.06003 3.05596,0.050273 3.094889,-0.009757c0.051716,-0.079813 -0.04177,-0.103934 -0.192373,-0.049866m1.402454,-0.019919c-0.417426,0.009485 -0.667768,0.036587 -0.667768,0.07209c0,0.037942 0.315272,0.050815 0.955477,0.038891c0.657395,-0.012332 0.936579,-0.035368 0.895091,-0.073716c-0.063935,-0.059217 -0.13128,-0.061386 -1.1828,-0.037264m2.003302,0.011789l-0.19891,0.039975l0.213118,0.007047c0.117214,0.00393 0.213116,-0.017209 0.213116,-0.047021c0,-0.029812 -0.006393,-0.050951 -0.014207,-0.047021c-0.007815,0.00393 -0.103718,0.025068 -0.213118,0.047021" fill="#a7a6a6" fill-rule="evenodd"/>
   <path stroke="null" id="path4" d="m18.365181,3.090088c-0.039497,0.035638 -0.194506,0.059081 -0.345676,0.052441c-0.150745,-0.006505 -0.430071,0.022765 -0.62074,0.065179c-0.190811,0.042414 -0.368125,0.064501 -0.394267,0.04919c-0.062941,-0.03713 -0.282168,0.030625 -0.251621,0.077781c0.013212,0.02019 -0.069477,0.036723 -0.18385,0.036723c-0.121619,0 -0.202887,0.025068 -0.196068,0.060301c0.007104,0.037264 -0.058251,0.053118 -0.170493,0.041194c-0.127587,-0.013416 -0.157423,-0.004066 -0.099597,0.03103c0.045323,0.027509 0.102865,0.037942 0.12787,0.023307c0.024864,-0.014634 0.045323,0.011518 0.045323,0.058269c0,0.089977 -0.204166,0.017345 -0.295949,-0.105288c-0.025716,-0.034284 -0.065783,-0.029405 -0.11082,0.01355c-0.03893,0.037128 -0.128297,0.067347 -0.198626,0.067347c-0.10528,0 -0.376081,0.084015 -0.46829,0.145128c-0.012219,0.00813 0.013072,0.055558 0.056405,0.105288c0.070328,0.080898 0.065214,0.086319 -0.049018,0.051765c-0.090504,-0.027373 -0.137673,-0.013823 -0.161969,0.046343c-0.040066,0.099597 -0.16822,0.112335 -0.22633,0.022495c-0.022307,-0.03442 -0.016197,-0.048241 0.013497,-0.030625c0.029837,0.01748 0.087662,0.012195 0.12858,-0.011925c0.052143,-0.030896 0.055695,-0.054881 0.01151,-0.081034c-0.034668,-0.020326 -0.062941,-0.013414 -0.062941,0.015313c0,0.028727 -0.055127,0.038619 -0.122614,0.021817c-0.083258,-0.020868 -0.109542,-0.010706 -0.082264,0.031437c0.026427,0.040923 0.008808,0.05068 -0.051716,0.028456c-0.154156,-0.056371 -0.373808,0.086996 -0.309304,0.201906c0.074591,0.132932 0.068481,0.160034 -0.028131,0.124666c-0.045465,-0.016667 -0.139237,0.007588 -0.208572,0.053797c-0.114657,0.076561 -0.132558,0.075885 -0.201608,-0.008672c-0.071323,-0.087267 -0.073881,-0.087267 -0.041345,0.001625c0.023016,0.063011 -0.000569,0.104747 -0.070897,0.125887c-0.057968,0.017345 -0.152876,0.055964 -0.210843,0.085776c-0.070472,0.036316 -0.093772,0.03618 -0.070045,-0.000271c0.051005,-0.078866 -0.06223,-0.128868 -0.198341,-0.087674c-0.112384,0.034013 -0.112953,0.03862 -0.013782,0.11464c0.096187,0.073715 0.093488,0.076697 -0.038219,0.0416c-0.122472,-0.032657 -0.131849,-0.026559 -0.069618,0.045124c0.058962,0.067618 0.056689,0.088352 -0.012788,0.113827c-0.046743,0.017074 -0.100023,0.007723 -0.118493,-0.020733c-0.052995,-0.081981 -0.197346,-0.060979 -0.163389,0.023714c0.016907,0.041872 -0.027847,0.11464 -0.099597,0.162608c-0.15657,0.104612 -0.20857,0.109627 -0.198057,0.019243c0.004404,-0.037264 -0.017618,-0.07358 -0.048874,-0.080627c-0.031257,-0.007181 -0.053991,0.047156 -0.050438,0.120465c0.003409,0.073446 -0.01577,0.120467 -0.042623,0.104612c-0.026996,-0.015853 -0.049018,-0.000406 -0.049018,0.034284c0,0.034825 -0.038077,0.049324 -0.084537,0.032251c-0.048874,-0.017887 -0.078853,-0.003117 -0.071039,0.034825c0.007388,0.03618 -0.031257,0.062469 -0.085957,0.058269c-0.0547,-0.004066 -0.099456,0.014228 -0.099456,0.040651c0,0.02656 -0.027278,0.048241 -0.060666,0.048241c-0.035662,0 -0.045892,-0.050273 -0.024722,-0.121956c0.028131,-0.095533 0.023016,-0.104341 -0.023727,-0.040652c-0.03282,0.044717 -0.0601,0.06003 -0.060526,0.034013c-0.001847,-0.100141 -0.171346,0.093499 -0.171346,0.195807c0,0.083337 -0.027564,0.101224 -0.120199,0.078053c-0.117924,-0.029405 -0.334452,0.059352 -0.334452,0.137133c0,0.021682 0.044755,0.024121 0.099454,0.00542c0.054701,-0.0187 0.086384,-0.02412 0.070472,-0.011924c-0.016055,0.012196 -0.121903,0.103663 -0.235139,0.203125c-0.148614,0.130358 -0.218375,0.162068 -0.249773,0.113556c-0.028416,-0.043904 -0.020176,-0.053526 0.023442,-0.02778c0.040208,0.023714 0.06081,0.010706 0.051432,-0.03225c-0.008666,-0.039569 0.018187,-0.065179 0.059673,-0.056913c0.041345,0.00813 0.058962,-0.010164 0.039214,-0.040652c-0.019749,-0.030625 -0.004688,-0.055558 0.033673,-0.055558c0.038361,0 0.053705,-0.015177 0.034241,-0.033877c-0.019607,-0.018565 -0.112953,0.02832 -0.207576,0.104205c-0.096045,0.077104 -0.142789,0.147297 -0.105991,0.158949c0.037366,0.011925 0.046885,0.05068 0.021738,0.0893c-0.024296,0.037535 -0.083542,0.053796 -0.131707,0.03618c-0.072601,-0.026559 -0.075301,-0.017887 -0.01577,0.050545c0.084962,0.097429 -0.001989,0.112064 -0.101587,0.017073c-0.053562,-0.051086 -0.089793,-0.045124 -0.165662,0.027102c-0.091357,0.087267 -0.088941,0.092551 0.04305,0.093365c0.107269,0.000678 0.120766,0.012467 0.057541,0.05068c-0.045323,0.027372 -0.102864,0.03767 -0.12787,0.023036c-0.024864,-0.014635 -0.045323,0.01206 -0.045323,0.059487c0,0.047428 -0.038361,0.100275 -0.085246,0.11735c-0.046887,0.017209 -0.085247,0.064501 -0.085247,0.105019c0,0.044717 -0.035093,0.060977 -0.088799,0.041329c-0.073312,-0.02683 -0.061662,-0.059352 0.067487,-0.187949c0.085958,-0.08564 0.125881,-0.155561 0.088799,-0.155561c-0.037082,0 -0.067487,0.020326 -0.067487,0.044988c0,0.024798 -0.058962,0.075207 -0.130854,0.11193c-0.093772,0.047834 -0.12787,0.109218 -0.120055,0.21654c0.008524,0.116537 -0.068766,0.230363 -0.349512,0.514387c-0.198341,0.200551 -0.453372,0.485251 -0.566892,0.632684c-0.11352,0.147567 -0.229741,0.268169 -0.258297,0.268169c-0.028558,0 -0.052001,0.036587 -0.052001,0.081305c0,0.044717 -0.038361,0.081303 -0.085246,0.081303c-0.046887,0 -0.085247,0.032793 -0.085247,0.072904c0,0.040109 -0.051149,0.117079 -0.113662,0.171011c-0.062515,0.053932 -0.113664,0.122092 -0.113664,0.151361c0,0.084557 -0.442288,0.519536 -0.48818,0.480238c-0.022874,-0.019512 -0.022874,-0.004606 -0.000284,0.033064c0.04177,0.068974 -0.088799,0.26451 -0.373808,0.560052c-0.083542,0.086589 -0.140799,0.15746 -0.127301,0.15746c0.013497,0 -0.068766,0.134152 -0.182998,0.298116c-0.114088,0.163964 -0.243664,0.298116 -0.287992,0.298116c-0.044328,0 -0.066492,0.021817 -0.049158,0.048512c0.037792,0.058269 -0.112669,0.417769 -0.195216,0.466416c-0.032251,0.019107 -0.043901,0.05732 -0.026,0.085098c0.018045,0.027644 0.005684,0.050409 -0.027422,0.050409c-0.033104,0 -0.060241,0.035367 -0.060241,0.078593c0,0.043228 -0.040634,0.100277 -0.090362,0.126836c-0.049727,0.026559 -0.088088,0.064367 -0.085246,0.084015c0.015486,0.108813 -0.000995,0.14689 -0.051007,0.117484c-0.032393,-0.019107 -0.04177,0.002846 -0.022163,0.051629c0.018754,0.046749 0.008382,0.115045 -0.023018,0.151903c-0.097181,0.113827 -0.35889,0.582005 -0.325358,0.582005c0.017476,0 -0.012219,0.079271 -0.066066,0.17616c-0.053705,0.096887 -0.105138,0.217489 -0.114231,0.267898c-0.009093,0.050544 -0.06763,0.178598 -0.130001,0.284565c-0.062515,0.106101 -0.101301,0.192826 -0.086384,0.192826c0.015061,0 -0.020885,0.120738 -0.079564,0.268305c-0.05882,0.147431 -0.092777,0.281585 -0.075585,0.298116c0.017191,0.016397 0.00142,0.029812 -0.034951,0.029812c-0.036515,0 -0.06635,0.071683 -0.06635,0.159356c0,0.087674 -0.025574,0.174533 -0.056833,0.192962c-0.031257,0.018429 -0.056831,0.117484 -0.056831,0.220064c0,0.102578 -0.025573,0.186459 -0.056831,0.186459c-0.031257,0 -0.056831,0.071683 -0.056831,0.159356c0,0.087672 -0.025574,0.174533 -0.056831,0.192962c-0.031257,0.018429 -0.056831,0.094584 -0.056831,0.169113c0,0.197163 -0.174472,0.675097 -0.233719,0.640137c-0.027705,-0.016262 -0.050438,0.005691 -0.050438,0.049053c0,0.100139 -0.154012,0.159627 -0.190811,0.073715c-0.016765,-0.039431 -0.029268,-0.031843 -0.031968,0.019243c-0.002557,0.046207 0.025716,0.112877 0.062657,0.148109c0.037082,0.035368 0.048449,0.082117 0.025432,0.104205c-0.02316,0.021953 -0.065783,0.004066 -0.094908,-0.039838c-0.028984,-0.043769 -0.05328,-0.0519 -0.053705,-0.017887c-0.000427,0.033877 -0.042908,0.058269 -0.094197,0.054203c-0.051291,-0.004201 -0.105849,0.026559 -0.121335,0.068431c-0.020034,0.05461 0.005541,0.067618 0.091355,0.046209c0.07175,-0.017887 0.148188,0.004471 0.192233,0.056371c0.055695,0.065585 0.056262,0.076425 0.002131,0.045395c-0.045181,-0.025882 -0.071039,-0.008673 -0.071039,0.047021c0,0.048239 -0.025574,0.072631 -0.056831,0.054203c-0.076438,-0.045124 -0.07246,0.044717 0.005257,0.11884c0.079847,0.076154 -0.039214,0.307602 -0.13057,0.253668c-0.037792,-0.022222 -0.046601,-0.01206 -0.022163,0.025612c0.022307,0.034418 0.009235,0.062604 -0.029126,0.062604c-0.038361,0 -0.05328,0.015719 -0.033104,0.034825c0.020032,0.019107 0.07317,0.005827 0.118066,-0.029676c0.106133,-0.08415 0.174757,0.014906 0.078001,0.112471c-0.045607,0.045802 -0.071608,0.233073 -0.071608,0.51398c0,0.242964 -0.018754,0.413704 -0.04177,0.379421c-0.023016,-0.034418 -0.041345,-0.038077 -0.040777,-0.008266c0.005257,0.301369 0.093062,0.308009 2.668371,0.202042c7.553018,-0.310854 23.574181,-0.178599 28.80749,0.237679c0.409469,0.032522 0.445699,0.027102 0.472694,-0.071141c0.044612,-0.163015 -0.018754,-1.548849 -0.075585,-1.652376c-0.027564,-0.050138 -0.050154,-0.201228 -0.050154,-0.335516c0,-0.134423 -0.025574,-0.259361 -0.056831,-0.27779c-0.031257,-0.018429 -0.056831,-0.140386 -0.056831,-0.271015c0,-0.130629 -0.025574,-0.252585 -0.056831,-0.271015c-0.031257,-0.018429 -0.056831,-0.115994 -0.056831,-0.216811c0,-0.100818 -0.025574,-0.198384 -0.056831,-0.216812c-0.031258,-0.018429 -0.056831,-0.115994 -0.056831,-0.216811c0,-0.100818 -0.025574,-0.198384 -0.056831,-0.216812c-0.031258,-0.018429 -0.056833,-0.103799 -0.056833,-0.18971c0,-0.085912 -0.025573,-0.171282 -0.056831,-0.18971c-0.031257,-0.018429 -0.056831,-0.093365 -0.056831,-0.166538c0,-0.073175 -0.022591,-0.175347 -0.050153,-0.227111c-0.027705,-0.051764 -0.078854,-0.161254 -0.113664,-0.243235c-0.03495,-0.081983 -0.090503,-0.205023 -0.123607,-0.27332c-0.033106,-0.068431 -0.065924,-0.159898 -0.073028,-0.203261c-0.007104,-0.043497 -0.056831,-0.162067 -0.110395,-0.263427c-0.053564,-0.101495 -0.098176,-0.211255 -0.098887,-0.243913c-0.003126,-0.125751 -1.005771,-1.93789 -1.092582,-1.974613c-0.023442,-0.010028 -0.042623,-0.042143 -0.042623,-0.071548c0,-0.029405 -0.076722,-0.159898 -0.170493,-0.289849c-0.093772,-0.129951 -0.170493,-0.257058 -0.170493,-0.282397c0,-0.025341 -0.051149,-0.081169 -0.113664,-0.124126c-0.062514,-0.042955 -0.113662,-0.103256 -0.113662,-0.133881c-0.000142,-0.030759 -0.063651,-0.129003 -0.141368,-0.218438c-0.077574,-0.089435 -0.192516,-0.223587 -0.255315,-0.298116c-0.062797,-0.074529 -0.203314,-0.233073 -0.312145,-0.35232c-0.108833,-0.119246 -0.198484,-0.234292 -0.199193,-0.255838c-0.004547,-0.136049 -1.582893,-1.630289 -2.388193,-2.260669c-0.864687,-0.677129 -0.846075,-0.663443 -1.038024,-0.758434c-0.08553,-0.042278 -0.155433,-0.097158 -0.155433,-0.121957c0,-0.024661 -0.033531,-0.044988 -0.074592,-0.044988c-0.040918,0 -0.124034,-0.042955 -0.184702,-0.095397c-0.060524,-0.052441 -0.231587,-0.156105 -0.380058,-0.230228c-0.148472,-0.074258 -0.269949,-0.153258 -0.269949,-0.175617c0,-0.022495 -0.049016,-0.040787 -0.108974,-0.040787c-0.059815,0 -0.117355,-0.018294 -0.12787,-0.040652c-0.016623,-0.03591 -0.201892,-0.127919 -0.814533,-0.404491c-0.093772,-0.042278 -0.221642,-0.102985 -0.284157,-0.13483c-0.111958,-0.056913 -0.318112,-0.142147 -0.596729,-0.246623c-0.078142,-0.029269 -0.186547,-0.0748 -0.240822,-0.101224c-0.054274,-0.026288 -0.150177,-0.047834 -0.213118,-0.047834c-0.062941,0 -0.114373,-0.024392 -0.114373,-0.054203c0,-0.029812 -0.062372,-0.054203 -0.138668,-0.054203c-0.076296,0 -0.154581,-0.024392 -0.173904,-0.054203c-0.019322,-0.029812 -0.089366,-0.054203 -0.155576,-0.054203c-0.128012,0 -0.4609,-0.090113 -0.625144,-0.169249c-0.054273,-0.026153 -0.186974,-0.047563 -0.294954,-0.047563c-0.107978,0 -0.212122,-0.024391 -0.231445,-0.054203c-0.019323,-0.029812 -0.143641,-0.054203 -0.2762,-0.054203c-0.132558,0 -0.26526,-0.022088 -0.294954,-0.04919c-0.0547,-0.049866 -0.333315,-0.086725 -1.105369,-0.146483c-0.234429,-0.018023 -0.453229,-0.053661 -0.486191,-0.079002c-0.097466,-0.075207 -3.022855,-0.055829 -3.107819,0.020462m-3.729978,0.942183c0.045465,0.053389 0.049727,0.075478 0.010514,0.052983c-0.037651,-0.021546 -0.090788,0.000949 -0.120057,0.050815c-0.037366,0.063553 -0.064361,0.071006 -0.093628,0.025882c-0.088515,-0.136592 0.096754,-0.254889 0.203172,-0.12968m-0.482356,0.000135c-0.064077,0.060979 -0.039072,0.124938 0.048874,0.124938c0.046887,0 0.085247,-0.0229 0.085247,-0.050951c0,-0.068431 -0.088799,-0.11735 -0.134122,-0.073987m-0.547853,0.260446c-0.057542,0.066128 -0.0547,0.081303 0.015345,0.081303c0.047454,0 0.100874,-0.036587 0.118919,-0.081303c0.017901,-0.044718 0.011082,-0.081305 -0.015486,-0.081305c-0.026427,0 -0.079847,0.036587 -0.118777,0.081305m12.389218,0.608021c1.772568,0.553819 4.493791,2.511358 5.974246,4.297346c2.14126,2.583583 3.101993,5.013636 3.270072,8.271234l0.033813,0.655856l-0.220362,0.035096c-0.121335,0.019241 -0.604117,0.011518 -1.072975,-0.017345c-4.188606,-0.2576 -19.385716,-0.357604 -26.739115,-0.176024c-0.890831,0.022088 -1.662031,0.031573 -1.713606,0.021139c-0.104853,-0.021139 -0.169073,-0.389583 -0.091072,-0.522517c0.025005,-0.042685 0.083258,-0.389719 0.129433,-0.771307c0.145631,-1.202629 0.617047,-2.091557 2.087698,-3.935541c0.298506,-0.374271 0.589056,-0.755317 0.645745,-0.846784c0.056547,-0.091469 0.123039,-0.166268 0.147477,-0.166268c0.02458,0 0.044612,-0.031979 0.044612,-0.071141c0,-0.039026 0.051149,-0.123448 0.113662,-0.187407c0.062515,-0.063958 0.113664,-0.148515 0.113664,-0.187948c0,-0.039433 0.051147,-0.10678 0.113662,-0.149736c0.062514,-0.042957 0.113662,-0.111252 0.113662,-0.151768c0,-0.040382 0.102296,-0.167217 0.227324,-0.281855c0.12503,-0.11464 0.227326,-0.236597 0.227326,-0.271015c0,-0.034418 0.102296,-0.156376 0.227324,-0.271015c0.125028,-0.114638 0.227326,-0.235918 0.227326,-0.269794c0,-0.033742 0.153443,-0.205023 0.340987,-0.38064c0.187543,-0.175618 0.340988,-0.333213 0.340988,-0.350286c0,-0.070872 0.743637,-0.733773 0.823059,-0.733773c0.047454,0 0.086241,-0.024392 0.086241,-0.054203c0,-0.029812 0.032678,-0.054203 0.072745,-0.054203c0.039924,0 0.109542,-0.048783 0.154581,-0.108407c0.045039,-0.059623 0.117215,-0.108405 0.160264,-0.108405c0.04305,0 0.149893,-0.073173 0.237556,-0.162608c0.087662,-0.089435 0.189958,-0.16261 0.227324,-0.16261c0.037366,0 0.139662,-0.073173 0.227324,-0.162608c0.087662,-0.089435 0.200188,-0.16261 0.250058,-0.16261c0.050011,0 0.09093,-0.024391 0.09093,-0.054203c0,-0.029811 0.045465,-0.054203 0.10116,-0.054203c0.055553,0 0.137958,-0.048783 0.182998,-0.108405c0.045038,-0.059623 0.127443,-0.108405 0.182996,-0.108405c0.055695,0 0.10116,-0.024392 0.10116,-0.054203c0,-0.029812 0.051149,-0.054204 0.113662,-0.054204c0.062515,0 0.113662,-0.024391 0.113662,-0.054203c0,-0.029811 0.051149,-0.054203 0.113664,-0.054203c0.062514,0 0.113662,-0.024391 0.113662,-0.054203c0,-0.029811 0.051147,-0.054203 0.113662,-0.054203c0.062515,0 0.113662,-0.024391 0.113662,-0.054203c0,-0.029812 0.051149,-0.054203 0.113662,-0.054203c0.062515,0 0.113664,-0.024392 0.113664,-0.054203c0,-0.029812 0.051147,-0.054203 0.113662,-0.054203c0.062514,0 0.113662,-0.024392 0.113662,-0.054203c0,-0.029812 0.051149,-0.054204 0.113662,-0.054204c0.062515,0 0.113662,-0.019919 0.113662,-0.044446c0,-0.024391 0.12787,-0.07751 0.284157,-0.118162c0.156285,-0.040652 0.284156,-0.093772 0.284156,-0.118162c0,-0.024527 0.076723,-0.044446 0.170495,-0.044446c0.093772,0 0.170493,-0.024392 0.170493,-0.054203c0,-0.029812 0.076722,-0.054204 0.170493,-0.054204c0.093772,0 0.170495,-0.024391 0.170495,-0.054203c0,-0.029811 0.051432,-0.054203 0.114373,-0.054203c0.062941,0 0.158843,-0.02141 0.213116,-0.047563c0.184843,-0.089028 0.504236,-0.169248 0.673878,-0.169248c0.093203,0 0.201039,-0.030219 0.239969,-0.067347c0.056122,-0.053525 0.080985,-0.051086 0.122046,0.012196c0.044896,0.06938 0.089935,0.067753 0.35278,-0.013009c0.909868,-0.279145 1.697265,-0.417499 2.404105,-0.422378c0.469852,-0.003252 0.696467,-0.024527 2.188003,-0.205022c0.484487,-0.058674 1.187774,-0.123177 1.562861,-0.143231c0.375085,-0.020055 0.771484,-0.057185 0.880885,-0.082524c0.252188,-0.058403 0.860852,-0.010976 1.193456,0.092958m-16.462173,1.95754l-0.168506,0.153664l0.190102,0c0.112241,0 0.180865,-0.02412 0.167651,-0.058809c-0.012219,-0.032251 0.000711,-0.10136 0.028842,-0.153531c0.077291,-0.143231 -0.027564,-0.115045 -0.218089,0.058676m-0.333031,0.282532c-0.020176,0.031032 -0.009519,0.087674 0.023727,0.125887c0.043049,0.04946 0.04035,0.089977 -0.009377,0.141062c-0.04987,0.051493 -0.05058,0.06152 -0.002131,0.035639c0.037082,-0.019921 0.108547,-0.114911 0.158843,-0.210985c0.051005,-0.097565 0.060241,-0.145128 0.020601,-0.107322c-0.084395,0.080491 -0.183281,0.090384 -0.13327,0.013279c0.019323,-0.029811 0.022307,-0.054203 0.006678,-0.054203c-0.015628,0 -0.044897,0.025475 -0.065072,0.056642m-0.441011,0.442431c-0.055837,0.055693 -0.083684,0.130765 -0.061804,0.166945c0.021738,0.036181 0.018612,0.047699 -0.006962,0.025475c-0.06365,-0.054881 -0.206723,0.065857 -0.161258,0.136049c0.020176,0.031032 0.009946,0.040789 -0.022591,0.021546c-0.032535,-0.019107 -0.088799,-0.000678 -0.12517,0.041059c-0.050296,0.057725 -0.049727,0.085505 0.002273,0.11613c0.046176,0.027237 0.053564,0.017344 0.022732,-0.030083c-0.034382,-0.053254 -0.008099,-0.063689 0.107695,-0.04255c0.119772,0.021817 0.149324,0.008808 0.13526,-0.059894c-0.009946,-0.048241 0.039497,-0.13903 0.109968,-0.201635c0.070328,-0.062604 0.109258,-0.133474 0.086242,-0.15773c-0.022874,-0.024121 0.003126,-0.028456 0.057826,-0.009757c0.0547,0.0187 0.099454,0.013009 0.099454,-0.012738c0,-0.094991 -0.145204,-0.090655 -0.243664,0.007181m-0.656544,0.760603c-0.09235,0.088081 -0.08212,0.185781 0.019323,0.185781c0.046887,0 0.072745,-0.01206 0.057258,-0.026695c-0.015345,-0.014634 -0.00128,-0.057184 0.031257,-0.094583c0.076864,-0.088352 -0.02117,-0.147162 -0.107838,-0.064503m-0.367839,0.396359c-0.068055,0.089029 -0.078143,0.129953 -0.029695,0.120196c0.099028,-0.019784 0.217947,-0.129275 0.217947,-0.200416c0,-0.09648 -0.079138,-0.062604 -0.188253,0.08022m-0.428083,0.518723c-0.095192,0.145399 -0.034241,0.203397 0.08951,0.085369c0.062657,-0.059759 0.076438,-0.109625 0.039924,-0.14445c-0.036514,-0.034825 -0.081269,-0.014499 -0.129434,0.059081m-0.179301,0.201092c0,0.077781 0.064503,0.111252 0.152449,0.079136c0.068766,-0.025205 0.07033,-0.039433 0.008668,-0.076832c-0.097181,-0.058676 -0.161116,-0.059624 -0.161116,-0.002304m-0.155008,0.241203c-0.074165,0.156512 0.09363,0.231719 0.188822,0.084693c0.024154,-0.037264 0.015772,-0.047834 -0.021027,-0.02629c-0.035804,0.02114 -0.069192,-0.014363 -0.079705,-0.084691c-0.017618,-0.115994 -0.021312,-0.114911 -0.088089,0.026288m-0.183849,0.280365c-0.037793,0.043499 -0.049869,0.108271 -0.026711,0.143909c0.025005,0.03862 0.018045,0.050815 -0.017049,0.030083c-0.100876,-0.059488 -0.218091,0.118433 -0.129434,0.196621c0.056831,0.050138 0.065072,0.050273 0.035662,0.000407c-0.021738,-0.036859 0.01165,-0.09052 0.077005,-0.123855c0.063368,-0.032386 0.115226,-0.095939 0.115226,-0.141469c0,-0.045395 0.025574,-0.067482 0.056831,-0.049053c0.031257,0.018429 0.056831,-0.004471 0.056831,-0.050951c0,-0.106237 -0.078711,-0.108813 -0.168362,-0.005691m-0.456782,0.69163c0,0.023442 0.051149,0.042548 0.113662,0.042548c0.062515,0 0.113662,-0.019107 0.113662,-0.042548c0,-0.023443 -0.051147,-0.042685 -0.113662,-0.042685c-0.062514,0 -0.113662,0.019241 -0.113662,0.042685m-0.340988,0.581326c0,0.061386 -0.027136,0.111659 -0.060241,0.111659c-0.033104,0 -0.043334,0.026017 -0.022732,0.057862c0.020601,0.031708 -0.009803,0.092009 -0.06763,0.133746c-0.057826,0.041736 -0.077147,0.076697 -0.042907,0.077646c0.109968,0.003116 0.381906,-0.252316 0.31243,-0.293239c-0.035235,-0.020732 -0.050296,-0.058674 -0.033673,-0.08442c0.016623,-0.025746 0.004262,-0.062062 -0.027422,-0.080763c-0.032109,-0.018836 -0.057826,0.015719 -0.057826,0.07751m-0.220362,0.485794c-0.04305,0.026017 -0.061804,0.073038 -0.041488,0.104341c0.020318,0.031303 0.001422,0.076697 -0.042054,0.100817c-0.109543,0.060979 -0.179019,0.287953 -0.088231,0.287953c0.038503,0 0.053847,-0.015583 0.033815,-0.034554c-0.019891,-0.01897 0.020032,-0.109625 0.088515,-0.201499c0.068623,-0.091874 0.129574,-0.198248 0.1354,-0.236461c0.012503,-0.08171 0.014492,-0.081169 -0.085957,-0.020597m-0.42595,0.750033c-0.023585,0.066806 -0.026996,0.146077 -0.007531,0.17616c0.019465,0.030083 0.01023,0.054744 -0.020601,0.054744c-0.030831,0 -0.092066,0.068838 -0.135968,0.152853c-0.074592,0.142554 -0.072319,0.152446 0.03353,0.144992c0.098745,-0.007045 0.263412,-0.243642 0.169499,-0.243642c-0.019463,0 0.010941,-0.048783 0.067488,-0.108405c0.056547,-0.059623 0.07516,-0.108405 0.041345,-0.108405c-0.033815,0 -0.071181,-0.042685 -0.083116,-0.094855c-0.018043,-0.079136 -0.028699,-0.0748 -0.064645,0.026559m-0.206156,0.718732c0,0.059623 0.020032,0.108405 0.044612,0.108405c0.02458,0 0.044754,-0.048783 0.044754,-0.108405c0,-0.059624 -0.020174,-0.108407 -0.044754,-0.108407c-0.02458,0 -0.044612,0.048783 -0.044612,0.108407m-0.246222,0.361398c-0.020885,0.019784 -0.037224,0.074665 -0.03623,0.121957c0.00142,0.071954 0.011224,0.070327 0.060384,-0.010164c0.032251,-0.052848 0.086524,-0.079542 0.120624,-0.059488c0.037366,0.021953 0.045891,0.011654 0.021595,-0.025881c-0.045465,-0.070194 -0.109826,-0.080492 -0.166373,-0.026424m-0.151597,0.599349c0,0.110845 0.023016,0.170333 0.057826,0.149872c0.031684,-0.018701 0.044045,-0.055017 0.027422,-0.080763c-0.016623,-0.025746 -0.004262,-0.062062 0.02742,-0.080762c0.088089,-0.0519 0.068908,-0.17223 -0.02742,-0.17223c-0.058962,0 -0.085247,0.056642 -0.085247,0.183883m-0.094624,0.325625c0.020034,0.03103 -0.002984,0.087672 -0.051289,0.126022c-0.048449,0.038213 -0.081553,0.132525 -0.073739,0.209359c0.007957,0.076968 -0.017901,0.200821 -0.057257,0.27535l-0.07175,0.135508l0.113095,-0.134017c0.062088,-0.073716 0.101727,-0.151497 0.087804,-0.172772c-0.013782,-0.02141 0.020174,-0.06396 0.075585,-0.094719c0.055269,-0.030761 0.078285,-0.056642 0.051007,-0.057591c-0.028274,-0.000949 -0.028274,-0.03198 0,-0.071955c0.027278,-0.038619 0.00483,-0.023713 -0.04987,0.033064c-0.121903,0.126836 -0.131422,0.05068 -0.013639,-0.109761c0.063366,-0.086047 0.068481,-0.127105 0.019607,-0.155969c-0.038645,-0.022765 -0.051005,-0.015448 -0.029553,0.01748m-0.347523,1.22851c0.006395,0.073311 0.032109,0.121145 0.057258,0.106373c0.025147,-0.014905 0.028415,-0.053796 0.007104,-0.086724c-0.024864,-0.038349 -0.004973,-0.047292 0.055837,-0.02507c0.131422,0.048106 0.118635,0 -0.018612,-0.070056c-0.099597,-0.050816 -0.111673,-0.041872 -0.101587,0.075476m-0.126165,0.872803c0,0.049731 0.027564,0.081576 0.061093,0.07087c0.033673,-0.010704 0.061093,-0.042548 0.061093,-0.07087c0,-0.02832 -0.02742,-0.060165 -0.061093,-0.07087c-0.03353,-0.010704 -0.061093,0.021139 -0.061093,0.07087m-0.075443,0.608835c-0.014492,0.022902 -0.024722,0.200145 -0.022591,0.39392c0.001989,0.193776 0.013781,0.273047 0.026,0.17616c0.012361,-0.096887 0.046318,-0.17616 0.075585,-0.17616c0.029269,0 0.05328,-0.038077 0.05328,-0.084557c0,-0.046478 -0.025574,-0.06938 -0.056831,-0.050951c-0.07246,0.042686 -0.072318,-0.00664 0.000142,-0.135778c0.0547,-0.097565 -0.017192,-0.214372 -0.075585,-0.122634m11.828719,1.843713c0.447404,0.009215 1.16348,0.009215 1.591276,0c0.42794,-0.009214 0.061947,-0.016667 -0.813255,-0.016667c-0.875202,0 -1.225282,0.007588 -0.778021,0.016667m3.26439,-0.000135c0.336015,0.009621 0.885858,0.009621 1.221873,0c0.336014,-0.009486 0.061093,-0.017345 -0.610937,-0.017345c-0.672029,0 -0.946951,0.007859 -0.610936,0.017345m-10.059136,0.053254c0.117215,0.011789 0.309021,0.011789 0.426234,0c0.117215,-0.011654 0.021312,-0.021275 -0.213116,-0.021275c-0.23443,0 -0.330333,0.009621 -0.213118,0.021275m18.555412,-0.000271c0.101587,0.01206 0.267818,0.01206 0.369403,0c0.101587,-0.011925 0.01847,-0.021817 -0.184702,-0.021817c-0.203172,0 -0.286287,0.009892 -0.184702,0.021817m-20.757623,0.066263l-0.966132,0.030083l0.681975,0.027101c0.375087,0.014906 1.896744,0.014093 3.381461,-0.001761l2.699485,-0.028863l-2.301666,-0.012467c-1.265917,-0.006911 -2.352816,-0.019648 -2.415329,-0.02832c-0.062515,-0.008672 -0.548422,-0.002303 -1.079794,0.014228m14.250441,0.043497c0.461044,0.009079 1.21548,0.009079 1.676523,0c0.461044,-0.009079 0.083826,-0.016531 -0.838262,-0.016531c-0.922087,0 -1.299305,0.007452 -0.838262,0.016531m6.535598,0.053526c0.148472,0.011111 0.391425,0.011111 0.539896,0c0.148472,-0.011111 0.026995,-0.020326 -0.269949,-0.020326c-0.296944,0 -0.418419,0.009215 -0.269947,0.020326m2.527713,0.053525c0.100874,0.011925 0.279893,0.012196 0.397818,0.000407c0.117926,-0.011789 0.035378,-0.021546 -0.183423,-0.021817c-0.2188,-0.000271 -0.315271,0.00935 -0.214396,0.02141m2.246825,0.053932c0.086526,0.012467 0.214396,0.012196 0.284157,-0.000678c0.069901,-0.012872 -0.000711,-0.023171 -0.156998,-0.022764c-0.156285,0.000406 -0.213543,0.010975 -0.12716,0.023442m1.775266,0.014364l-0.738806,0.030082l0.85247,0.026019c0.468857,0.014363 0.941978,0.010704 1.051378,-0.008266l0.19891,-0.03442l-0.236845,-0.006233c-0.130285,-0.003388 -0.270942,-0.013279 -0.312572,-0.021817c-0.041628,-0.008537 -0.408191,-0.002032 -0.814535,0.014635m-20.785328,8.603362c0.070614,0.013009 0.17291,0.012467 0.227324,-0.001085c0.054274,-0.01355 -0.003551,-0.024256 -0.12858,-0.023578c-0.125028,0.000542 -0.1695,0.011654 -0.098745,0.024663m10.370997,8.075291c0.0547,0.01355 0.14421,0.01355 0.19891,0c0.0547,-0.013686 0.009946,-0.024799 -0.099454,-0.024799c-0.1094,0 -0.154156,0.011113 -0.099456,0.024799m-8.865678,0.054203c0.0547,0.01355 0.14421,0.01355 0.19891,0c0.0547,-0.013686 0.009945,-0.024799 -0.099456,-0.024799c-0.1094,0 -0.154154,0.011113 -0.099454,0.024799m16.143492,1.128776c-0.076296,0.053254 -0.061377,0.059894 0.087237,0.039026c0.098603,-0.013686 0.179303,-0.04255 0.179303,-0.064094c0,-0.061115 -0.165095,-0.045667 -0.266539,0.025068m1.459996,-0.024256c0,0.024391 0.054558,0.034284 0.121335,0.022088c0.177456,-0.032657 0.189247,-0.066399 0.023158,-0.066399c-0.079422,0 -0.144493,0.019919 -0.144493,0.044311m-23.191564,0.009892c-0.039783,0.124126 -0.025574,0.201499 0.041345,0.226026c0.046176,0.016804 0.067345,0.006505 0.04788,-0.023442c-0.019038,-0.029405 0.006962,-0.053526 0.057968,-0.053526c0.082405,0 0.083116,-0.009079 0.007389,-0.081303c-0.077432,-0.073853 -0.143357,-0.102715 -0.154581,-0.067755m3.451504,0.081305c-0.028131,0.043362 0.647451,0.029134 0.693343,-0.014635c0.014918,-0.014363 -0.129007,-0.026017 -0.31996,-0.026017c-0.190811,0 -0.35889,0.018294 -0.373381,0.040652m0.758413,-0.019919c0,0.047021 0.28231,0.067889 0.351502,0.026152c0.047596,-0.028862 -0.002558,-0.045529 -0.138384,-0.046073c-0.117215,-0.000406 -0.213118,0.008537 -0.213118,0.019921m1.932264,0.03347c0.110251,0.067889 0.170493,0.067889 0.170493,0c0,-0.029811 -0.057542,-0.053796 -0.12787,-0.053389c-0.103433,0.000676 -0.111531,0.01084 -0.042623,0.053389m0.832151,-0.012602c-0.014776,0.0229 0.07317,0.032657 0.195642,0.02141c0.12233,-0.011111 0.222495,-0.029811 0.222495,-0.0416c0,-0.040382 -0.391141,-0.021411 -0.418137,0.02019m1.137336,-0.000949c-0.030262,0.046614 5.413321,0.036587 5.462197,-0.010028c0.017759,-0.016802 -1.198146,-0.030625 -2.701901,-0.030625c-1.503614,0 -2.745804,0.018294 -2.760296,0.040652m6.225014,-0.012196c0.038077,0.036181 0.783562,0.044989 0.820644,0.009757c0.016055,-0.015448 -0.16822,-0.029947 -0.409753,-0.032386c-0.241391,-0.002303 -0.426377,0.007859 -0.410891,0.022629m0.998952,0.034827c0.049016,0.046749 0.100165,0.047698 0.196068,0.003657c0.121761,-0.055964 0.117783,-0.059894 -0.06635,-0.063282c-0.149466,-0.002845 -0.180297,0.011383 -0.129718,0.059624m1.249293,-0.02507c0.070328,0.013009 0.185412,0.013009 0.255741,0c0.070328,-0.012872 0.012788,-0.023442 -0.12787,-0.023442c-0.140657,0 -0.198199,0.010569 -0.12787,0.023442m0.59744,0.000678c0.086524,0.012467 0.214395,0.012196 0.284156,-0.000678c0.069903,-0.012872 -0.000711,-0.023171 -0.156996,-0.022765c-0.156287,0.000407 -0.213543,0.010976 -0.12716,0.023443" fill="#f6d899" fill-rule="evenodd"/>
  </g>
 </g>
</svg>